<?xml version="1.0" encoding="UTF-8" standalone="no"?>
<!-- Generator: Adobe Illustrator 26.3.1, SVG Export Plug-In . SVG Version: 6.00 Build 0)  -->

<svg
   version="1.1"
   id="Layer_1"
   x="0px"
   y="0px"
   viewBox="0 0 4251.97 2125.98"
   style="enable-background:new 0 0 4251.97 2125.98;"
   xml:space="preserve"
   sodipodi:docname="bronchomotor.svg"
   inkscape:version="1.2.1 (9c6d41e410, 2022-07-14)"
   xmlns:inkscape="http://www.inkscape.org/namespaces/inkscape"
   xmlns:sodipodi="http://sodipodi.sourceforge.net/DTD/sodipodi-0.dtd"
   xmlns="http://www.w3.org/2000/svg"
   xmlns:svg="http://www.w3.org/2000/svg"><defs
   id="defs13756" /><sodipodi:namedview
   id="namedview13754"
   pagecolor="#ffffff"
   bordercolor="#666666"
   borderopacity="1.0"
   inkscape:showpageshadow="2"
   inkscape:pageopacity="0.0"
   inkscape:pagecheckerboard="0"
   inkscape:deskcolor="#d1d1d1"
   showgrid="false"
   inkscape:zoom="0.61477383"
   inkscape:cx="2718.0728"
   inkscape:cy="994.67475"
   inkscape:window-width="1920"
   inkscape:window-height="1038"
   inkscape:window-x="1200"
   inkscape:window-y="405"
   inkscape:window-maximized="1"
   inkscape:current-layer="Layer_1" />
<style
   type="text/css"
   id="style12453">
	.st0{fill:#FFFFFF;stroke:#000000;stroke-miterlimit:10;}
	.st1{fill:#9B8579;stroke:#000000;stroke-miterlimit:10;}
	.st2{fill:#FBB040;stroke:#000000;stroke-miterlimit:10;}
	.st3{font-family:'Chalkduster';}
	.st4{font-size:21px;}
	.st5{font-family:'Times-Italic';}
	.st6{font-size:12px;}
	.st7{fill:#A7A9AC;}
	.st8{fill:#BCBEC0;}
	.st9{fill:none;stroke:#000000;stroke-miterlimit:10;}
	.st10{fill:none;stroke:#000000;stroke-width:0.75;stroke-miterlimit:10;}
	.st11{fill:#006838;stroke:#000000;stroke-miterlimit:10;}
	.st12{fill:#27AAE1;stroke:#000000;stroke-miterlimit:10;}
	.st13{fill:none;stroke:#EC008C;stroke-width:2;stroke-miterlimit:10;}
	.st14{fill:#ED1C24;}
	.st15{fill:none;stroke:#006838;stroke-width:2;stroke-miterlimit:10;}
	.st16{fill:#D1D3D4;stroke:#000000;stroke-miterlimit:10;}
	.st17{font-family:'TimesNewRomanPS-BoldMT';}
	.st18{font-size:11px;}
	.st19{font-size:16px;}
	.st20{fill:#8DC63F;stroke:#000000;stroke-miterlimit:10;}
	.st21{font-family:'MyriadPro-Regular';}
	.st22{fill:#009444;}
	.st23{font-size:36px;}
	.st24{fill:none;stroke:#39B54A;stroke-width:2;stroke-miterlimit:10;}
	.st25{fill:#BCBEC0;stroke:#000000;stroke-miterlimit:10;}
	.st26{fill:#939598;stroke:#000000;stroke-miterlimit:10;}
	.st27{fill:#00A79D;stroke:#000000;stroke-miterlimit:10;}
	.st28{fill:#F7941D;stroke:#000000;stroke-miterlimit:10;}
	.st29{fill:#603913;stroke:#000000;stroke-width:0.5;stroke-miterlimit:10;}
	.st30{fill:#EE2A7B;stroke:#000000;stroke-width:0.5;stroke-miterlimit:10;}
	.st31{fill:#D7DF23;stroke:#000000;stroke-miterlimit:10;}
	.st32{fill:#58595B;stroke:#000000;stroke-width:0.5;stroke-miterlimit:10;}
	.st33{fill:#FFFFFF;stroke:#000000;stroke-width:0.5;stroke-miterlimit:10;}
	.st34{fill:#F15A29;}
	.st35{fill:none;stroke:#F15A29;stroke-width:1.5;stroke-miterlimit:10;}
	.st36{fill:#006838;}
	.st37{fill:none;stroke:#ED1C24;stroke-width:2;stroke-miterlimit:10;}
	.st38{fill:none;stroke:#000000;stroke-width:2;stroke-miterlimit:10;}
	.st39{fill:none;stroke:#009444;stroke-width:2;stroke-miterlimit:10;}
	.st40{fill:none;stroke:#58595B;stroke-width:1.5;stroke-miterlimit:10;}
	.st41{fill:none;stroke:#1C75BC;stroke-width:1.5;stroke-miterlimit:10;}
	.st42{fill:none;stroke:#006838;stroke-width:1.5;stroke-miterlimit:10;}
	.st43{fill:none;stroke:#39B54A;stroke-width:1.5;stroke-miterlimit:10;}
	.st44{fill:none;stroke:#92278F;stroke-width:1.5;stroke-miterlimit:10;}
	.st45{font-family:'Times-Bold';}
	.st46{font-size:13px;}
	.st47{fill:#1C75BC;}
	.st48{fill:#39B54A;}
	.st49{fill:#92278F;}
</style>
<g
   id="g12459">
	
		<rect
   x="3943.12"
   y="843.09"
   transform="matrix(-0.3404 -0.9403 0.9403 -0.3404 4516.1475 4889.2417)"
   class="st0"
   width="59.68"
   height="35.01"
   id="rect12455" />
	
		<rect
   x="4012.87"
   y="778.67"
   transform="matrix(-0.3404 -0.9403 0.9403 -0.3404 4633.3813 4920.98)"
   class="st1"
   width="59.68"
   height="113.35"
   id="rect12457" />
</g>
<g
   id="g12465">
	
		<rect
   x="3882.97"
   y="1312.26"
   transform="matrix(0.471 -0.8821 0.8821 0.471 896.7986 4155.0205)"
   class="st0"
   width="59.68"
   height="35.01"
   id="rect12461" />
	
		<rect
   x="3948.4"
   y="1308.03"
   transform="matrix(0.471 -0.8821 0.8821 0.471 900.592 4231.2251)"
   class="st2"
   width="59.68"
   height="113.35"
   id="rect12463" />
</g>
<g
   id="g12471">
	
		<rect
   x="3784.69"
   y="1453"
   transform="matrix(0.6365 -0.7712 0.7712 0.6365 252.3071 3476.3921)"
   class="st0"
   width="59.68"
   height="35.01"
   id="rect12467" />
	
		<rect
   x="3841.9"
   y="1461.05"
   transform="matrix(0.6365 -0.7712 0.7712 0.6365 236.684 3537.6765)"
   class="st2"
   width="59.68"
   height="113.35"
   id="rect12469" />
</g>
<g
   id="g12477">
	
		<rect
   x="3662.42"
   y="1568.55"
   transform="matrix(0.7417 -0.6707 0.6707 0.7417 -110.1255 2886.1311)"
   class="st0"
   width="59.68"
   height="35.01"
   id="rect12473" />
	
		<rect
   x="3712.17"
   y="1584.4"
   transform="matrix(0.7417 -0.6707 0.6707 0.7417 -134.1773 2933.7124)"
   class="st2"
   width="59.68"
   height="113.35"
   id="rect12475" />
</g>
<text
   transform="matrix(0 1 -1 0 1413.5898 1621.6543)"
   class="st3 st4"
   id="text12479">T12</text>
<text
   transform="matrix(0 1 -1 0 1326.3936 1621.6543)"
   class="st3 st4"
   id="text12481">T13</text>
<text
   transform="matrix(0 1 -1 0 1239.1963 1621.6543)"
   class="st3 st4"
   id="text12483">L1</text>
<text
   transform="matrix(0 1 -1 0 2198.3359 1621.6543)"
   class="st3 st4"
   id="text12485">T3</text>
<text
   transform="matrix(0 1 -1 0 2111.1387 1621.6543)"
   class="st3 st4"
   id="text12487">T4</text>
<text
   transform="matrix(0 1 -1 0 2023.9424 1621.6543)"
   class="st3 st4"
   id="text12489">T5</text>
<text
   transform="matrix(0 1 -1 0 1936.7451 1621.6533)"
   class="st3 st4"
   id="text12491">T6</text>
<text
   transform="matrix(0 1 -1 0 1849.5479 1621.6543)"
   class="st3 st4"
   id="text12493">T7</text>
<text
   transform="matrix(0 1 -1 0 1675.1533 1621.6543)"
   class="st3 st4"
   id="text12495">T9</text>
<text
   transform="matrix(0 1 -1 0 1587.957 1621.6541)"
   class="st3 st4"
   id="text12497">T10</text>
<text
   transform="matrix(0 1 -1 0 1762.3516 1621.6543)"
   class="st3 st4"
   id="text12499">T8</text>
<text
   transform="matrix(0 1 -1 0 1500.7607 1621.6543)"
   class="st3 st4"
   id="text12501">T11</text>
<text
   transform="matrix(0 1 -1 0 2285.5625 1621.6543)"
   class="st3 st4"
   id="text12503">T2</text>
<text
   transform="matrix(0 1 -1 0 2372.7334 1621.6543)"
   class="st3 st4"
   id="text12505">T1</text>
<text
   transform="matrix(1 0 0 1 2399.3232 1098.8127)"
   class="st5 st6"
   id="text12507">White</text>
<text
   transform="matrix(1 0 0 1 2399.3232 1183.7188)"
   class="st5 st6"
   id="text12509">DRG</text>
<text
   transform="matrix(1 0 0 1 2325.3643 1098.8124)"
   class="st5 st6"
   id="text12511">Grey</text>
<text
   transform="matrix(1 0 0 1 2332.814 1183.7188)"
   class="st5 st6"
   id="text12513">VR</text>
<rect
   x="2189.46"
   y="1536.3"
   transform="matrix(4.474958e-08 1 -1 4.474958e-08 3769.9814 -636.4076)"
   class="st7"
   width="27.47"
   height="60.97"
   id="rect12515" />
<rect
   x="2102.26"
   y="1536.3"
   transform="matrix(4.474958e-08 1 -1 4.474958e-08 3682.7847 -549.2107)"
   class="st7"
   width="27.47"
   height="60.97"
   id="rect12517" />
<rect
   x="2015.07"
   y="1536.3"
   transform="matrix(4.474958e-08 1 -1 4.474958e-08 3595.5876 -462.0138)"
   class="st7"
   width="27.47"
   height="60.97"
   id="rect12519" />
<rect
   x="1927.87"
   y="1536.3"
   transform="matrix(4.474995e-08 1 -1 4.474995e-08 3508.3909 -374.817)"
   class="st7"
   width="27.47"
   height="60.97"
   id="rect12521" />
<rect
   x="1753.48"
   y="1536.3"
   transform="matrix(4.474958e-08 1 -1 4.474958e-08 3333.9971 -200.4232)"
   class="st7"
   width="27.47"
   height="60.97"
   id="rect12523" />
<rect
   x="1840.67"
   y="1536.3"
   transform="matrix(4.474958e-08 1 -1 4.474958e-08 3421.1941 -287.6201)"
   class="st7"
   width="27.47"
   height="60.97"
   id="rect12525" />
<rect
   x="1666.28"
   y="1536.3"
   transform="matrix(4.474958e-08 1 -1 4.474958e-08 3246.8003 -113.2264)"
   class="st7"
   width="27.47"
   height="60.97"
   id="rect12527" />
<rect
   x="1579.08"
   y="1536.3"
   transform="matrix(4.474995e-08 1 -1 4.474995e-08 3159.6035 -26.0295)"
   class="st7"
   width="27.47"
   height="60.97"
   id="rect12529" />
<rect
   x="1491.89"
   y="1536.3"
   transform="matrix(4.474991e-08 1 -1 4.474991e-08 3072.4065 61.1673)"
   class="st7"
   width="27.47"
   height="60.97"
   id="rect12531" />
<rect
   x="1491.89"
   y="1264.98"
   transform="matrix(4.474995e-08 1 -1 4.474995e-08 2801.0876 -210.1516)"
   class="st8"
   width="27.47"
   height="60.97"
   id="rect12533" />
<rect
   x="1491.89"
   y="1485.82"
   transform="matrix(4.474919e-08 1 -1 4.474919e-08 3021.9226 10.6834)"
   class="st8"
   width="27.47"
   height="60.97"
   id="rect12535" />
<rect
   x="1491.89"
   y="1292.45"
   transform="matrix(4.474919e-08 1 -1 4.474919e-08 2828.5564 -182.6828)"
   class="st7"
   width="27.47"
   height="60.97"
   id="rect12537" />
<rect
   x="1491.89"
   y="1320.46"
   transform="matrix(4.474922e-08 1 -1 4.474922e-08 2856.5674 -154.6718)"
   class="st8"
   width="27.47"
   height="60.97"
   id="rect12539" />
<rect
   x="1491.89"
   y="1347.93"
   transform="matrix(4.474922e-08 1 -1 4.474922e-08 2884.0361 -127.203)"
   class="st7"
   width="27.47"
   height="60.97"
   id="rect12541" />
<rect
   x="1491.89"
   y="1375.4"
   transform="matrix(4.474991e-08 1 -1 4.474991e-08 2911.5051 -99.7341)"
   class="st8"
   width="27.47"
   height="60.97"
   id="rect12543" />
<rect
   x="1491.89"
   y="1402.87"
   transform="matrix(4.474922e-08 1 -1 4.474922e-08 2938.9739 -72.2652)"
   class="st7"
   width="27.47"
   height="60.97"
   id="rect12545" />
<rect
   x="1491.89"
   y="1430.88"
   transform="matrix(4.474922e-08 1 -1 4.474922e-08 2966.9849 -44.2543)"
   class="st8"
   width="27.47"
   height="60.97"
   id="rect12547" />
<rect
   x="1491.89"
   y="1458.35"
   transform="matrix(4.474995e-08 1 -1 4.474995e-08 2994.4539 -16.7854)"
   class="st7"
   width="27.47"
   height="60.97"
   id="rect12549" />
<rect
   x="1319.36"
   y="1363.77"
   transform="matrix(1.990897e-07 1 -1 1.990897e-07 2899.876 -111.3642)"
   class="st9"
   width="372.53"
   height="60.97"
   id="rect12551" />
<rect
   x="1579.08"
   y="1264.98"
   transform="matrix(4.474995e-08 1 -1 4.474995e-08 2888.2844 -297.3485)"
   class="st8"
   width="27.47"
   height="60.97"
   id="rect12553" />
<rect
   x="1579.08"
   y="1485.82"
   transform="matrix(4.474922e-08 1 -1 4.474922e-08 3109.1196 -76.5134)"
   class="st8"
   width="27.47"
   height="60.97"
   id="rect12555" />
<rect
   x="1579.08"
   y="1292.45"
   transform="matrix(4.474922e-08 1 -1 4.474922e-08 2915.7532 -269.8796)"
   class="st7"
   width="27.47"
   height="60.97"
   id="rect12557" />
<rect
   x="1579.08"
   y="1320.46"
   transform="matrix(4.474922e-08 1 -1 4.474922e-08 2943.7642 -241.8687)"
   class="st8"
   width="27.47"
   height="60.97"
   id="rect12559" />
<rect
   x="1579.08"
   y="1347.93"
   transform="matrix(4.474919e-08 1 -1 4.474919e-08 2971.2332 -214.3998)"
   class="st7"
   width="27.47"
   height="60.97"
   id="rect12561" />
<rect
   x="1579.08"
   y="1375.4"
   transform="matrix(4.474995e-08 1 -1 4.474995e-08 2998.7019 -186.931)"
   class="st8"
   width="27.47"
   height="60.97"
   id="rect12563" />
<rect
   x="1579.08"
   y="1402.87"
   transform="matrix(4.474955e-08 1 -1 4.474955e-08 3026.1709 -159.4621)"
   class="st7"
   width="27.47"
   height="60.97"
   id="rect12565" />
<rect
   x="1579.08"
   y="1430.88"
   transform="matrix(4.474922e-08 1 -1 4.474922e-08 3054.1819 -131.4511)"
   class="st8"
   width="27.47"
   height="60.97"
   id="rect12567" />
<rect
   x="1579.08"
   y="1458.35"
   transform="matrix(4.474991e-08 1 -1 4.474991e-08 3081.6506 -103.9823)"
   class="st7"
   width="27.47"
   height="60.97"
   id="rect12569" />
<rect
   x="1406.55"
   y="1363.77"
   transform="matrix(1.990897e-07 1 -1 1.990897e-07 2987.0728 -198.5611)"
   class="st9"
   width="372.53"
   height="60.97"
   id="rect12571" />
<rect
   x="1666.28"
   y="1264.98"
   transform="matrix(4.474991e-08 1 -1 4.474991e-08 2975.4812 -384.5453)"
   class="st8"
   width="27.47"
   height="60.97"
   id="rect12573" />
<rect
   x="1666.28"
   y="1485.82"
   transform="matrix(4.474922e-08 1 -1 4.474922e-08 3196.3164 -163.7103)"
   class="st8"
   width="27.47"
   height="60.97"
   id="rect12575" />
<rect
   x="1666.28"
   y="1292.45"
   transform="matrix(4.474922e-08 1 -1 4.474922e-08 3002.9502 -357.0765)"
   class="st7"
   width="27.47"
   height="60.97"
   id="rect12577" />
<rect
   x="1666.28"
   y="1320.46"
   transform="matrix(4.474958e-08 1 -1 4.474958e-08 3030.9612 -329.0656)"
   class="st8"
   width="27.47"
   height="60.97"
   id="rect12579" />
<rect
   x="1666.28"
   y="1347.93"
   transform="matrix(4.474886e-08 1 -1 4.474886e-08 3058.4299 -301.5967)"
   class="st7"
   width="27.47"
   height="60.97"
   id="rect12581" />
<rect
   x="1666.28"
   y="1375.4"
   transform="matrix(4.475028e-08 1 -1 4.475028e-08 3085.8989 -274.1278)"
   class="st8"
   width="27.47"
   height="60.97"
   id="rect12583" />
<rect
   x="1666.28"
   y="1402.87"
   transform="matrix(4.474922e-08 1 -1 4.474922e-08 3113.3677 -246.659)"
   class="st7"
   width="27.47"
   height="60.97"
   id="rect12585" />
<rect
   x="1666.28"
   y="1430.88"
   transform="matrix(4.474958e-08 1 -1 4.474958e-08 3141.3787 -218.648)"
   class="st8"
   width="27.47"
   height="60.97"
   id="rect12587" />
<rect
   x="1666.28"
   y="1458.35"
   transform="matrix(4.474955e-08 1 -1 4.474955e-08 3168.8474 -191.1792)"
   class="st7"
   width="27.47"
   height="60.97"
   id="rect12589" />
<rect
   x="1493.75"
   y="1363.77"
   transform="matrix(1.990897e-07 1 -1 1.990897e-07 3074.2698 -285.7579)"
   class="st9"
   width="372.53"
   height="60.97"
   id="rect12591" />
<rect
   x="1753.48"
   y="1264.98"
   transform="matrix(4.474958e-08 1 -1 4.474958e-08 3062.6782 -471.7422)"
   class="st8"
   width="27.47"
   height="60.97"
   id="rect12593" />
<rect
   x="1753.48"
   y="1485.82"
   transform="matrix(4.474955e-08 1 -1 4.474955e-08 3283.5132 -250.9072)"
   class="st8"
   width="27.47"
   height="60.97"
   id="rect12595" />
<rect
   x="1753.48"
   y="1292.45"
   transform="matrix(4.474958e-08 1 -1 4.474958e-08 3090.147 -444.2734)"
   class="st7"
   width="27.47"
   height="60.97"
   id="rect12597" />
<rect
   x="1753.48"
   y="1320.46"
   transform="matrix(4.474919e-08 1 -1 4.474919e-08 3118.158 -416.2624)"
   class="st8"
   width="27.47"
   height="60.97"
   id="rect12599" />
<rect
   x="1753.48"
   y="1347.93"
   transform="matrix(4.474886e-08 1 -1 4.474886e-08 3145.6267 -388.7935)"
   class="st7"
   width="27.47"
   height="60.97"
   id="rect12601" />
<rect
   x="1753.48"
   y="1375.4"
   transform="matrix(4.475031e-08 1 -1 4.475031e-08 3173.0957 -361.3247)"
   class="st8"
   width="27.47"
   height="60.97"
   id="rect12603" />
<rect
   x="1753.48"
   y="1402.87"
   transform="matrix(4.474955e-08 1 -1 4.474955e-08 3200.5645 -333.8558)"
   class="st7"
   width="27.47"
   height="60.97"
   id="rect12605" />
<rect
   x="1753.48"
   y="1430.88"
   transform="matrix(4.474955e-08 1 -1 4.474955e-08 3228.5754 -305.8449)"
   class="st8"
   width="27.47"
   height="60.97"
   id="rect12607" />
<rect
   x="1753.48"
   y="1458.35"
   transform="matrix(4.474958e-08 1 -1 4.474958e-08 3256.0444 -278.376)"
   class="st7"
   width="27.47"
   height="60.97"
   id="rect12609" />
<rect
   x="1580.95"
   y="1363.77"
   transform="matrix(1.990896e-07 1 -1 1.990896e-07 3161.4666 -372.9548)"
   class="st9"
   width="372.53"
   height="60.97"
   id="rect12611" />
<rect
   x="1840.67"
   y="1264.98"
   transform="matrix(4.474995e-08 1 -1 4.474995e-08 3149.875 -558.9391)"
   class="st8"
   width="27.47"
   height="60.97"
   id="rect12613" />
<rect
   x="1840.67"
   y="1485.82"
   transform="matrix(4.474958e-08 1 -1 4.474958e-08 3370.7102 -338.104)"
   class="st8"
   width="27.47"
   height="60.97"
   id="rect12615" />
<rect
   x="1840.67"
   y="1292.45"
   transform="matrix(4.474922e-08 1 -1 4.474922e-08 3177.3438 -531.4702)"
   class="st7"
   width="27.47"
   height="60.97"
   id="rect12617" />
<rect
   x="1840.67"
   y="1320.46"
   transform="matrix(4.474886e-08 1 -1 4.474886e-08 3205.3547 -503.4593)"
   class="st8"
   width="27.47"
   height="60.97"
   id="rect12619" />
<rect
   x="1840.67"
   y="1347.93"
   transform="matrix(4.474955e-08 1 -1 4.474955e-08 3232.8237 -475.9904)"
   class="st7"
   width="27.47"
   height="60.97"
   id="rect12621" />
<rect
   x="1840.67"
   y="1375.4"
   transform="matrix(4.474995e-08 1 -1 4.474995e-08 3260.2925 -448.5215)"
   class="st8"
   width="27.47"
   height="60.97"
   id="rect12623" />
<rect
   x="1840.67"
   y="1402.87"
   transform="matrix(4.474922e-08 1 -1 4.474922e-08 3287.7615 -421.0527)"
   class="st7"
   width="27.47"
   height="60.97"
   id="rect12625" />
<rect
   x="1840.67"
   y="1430.88"
   transform="matrix(4.474922e-08 1 -1 4.474922e-08 3315.7725 -393.0417)"
   class="st8"
   width="27.47"
   height="60.97"
   id="rect12627" />
<rect
   x="1840.67"
   y="1458.35"
   transform="matrix(4.474955e-08 1 -1 4.474955e-08 3343.2412 -365.5729)"
   class="st7"
   width="27.47"
   height="60.97"
   id="rect12629" />
<rect
   x="1668.14"
   y="1363.77"
   transform="matrix(1.990897e-07 1 -1 1.990897e-07 3248.6633 -460.1516)"
   class="st9"
   width="372.53"
   height="60.97"
   id="rect12631" />
<rect
   x="1927.87"
   y="1264.98"
   transform="matrix(4.474995e-08 1 -1 4.474995e-08 3237.0718 -646.1359)"
   class="st8"
   width="27.47"
   height="60.97"
   id="rect12633" />
<rect
   x="1927.87"
   y="1485.82"
   transform="matrix(4.474919e-08 1 -1 4.474919e-08 3457.907 -425.3009)"
   class="st8"
   width="27.47"
   height="60.97"
   id="rect12635" />
<rect
   x="1927.87"
   y="1292.45"
   transform="matrix(4.474919e-08 1 -1 4.474919e-08 3264.5408 -618.6671)"
   class="st7"
   width="27.47"
   height="60.97"
   id="rect12637" />
<rect
   x="1927.87"
   y="1320.46"
   transform="matrix(4.474955e-08 1 -1 4.474955e-08 3292.5518 -590.6561)"
   class="st8"
   width="27.47"
   height="60.97"
   id="rect12639" />
<rect
   x="1927.87"
   y="1347.93"
   transform="matrix(4.474886e-08 1 -1 4.474886e-08 3320.0205 -563.1873)"
   class="st7"
   width="27.47"
   height="60.97"
   id="rect12641" />
<rect
   x="1927.87"
   y="1375.4"
   transform="matrix(4.474995e-08 1 -1 4.474995e-08 3347.4895 -535.7184)"
   class="st8"
   width="27.47"
   height="60.97"
   id="rect12643" />
<rect
   x="1927.87"
   y="1402.87"
   transform="matrix(4.474919e-08 1 -1 4.474919e-08 3374.9583 -508.2495)"
   class="st7"
   width="27.47"
   height="60.97"
   id="rect12645" />
<rect
   x="1927.87"
   y="1430.88"
   transform="matrix(4.474922e-08 1 -1 4.474922e-08 3402.9692 -480.2386)"
   class="st8"
   width="27.47"
   height="60.97"
   id="rect12647" />
<rect
   x="1927.87"
   y="1458.35"
   transform="matrix(4.474995e-08 1 -1 4.474995e-08 3430.438 -452.7697)"
   class="st7"
   width="27.47"
   height="60.97"
   id="rect12649" />
<rect
   x="1755.34"
   y="1363.77"
   transform="matrix(1.990897e-07 1 -1 1.990897e-07 3335.8601 -547.3485)"
   class="st9"
   width="372.53"
   height="60.97"
   id="rect12651" />
<rect
   x="2015.07"
   y="1264.98"
   transform="matrix(4.474995e-08 1 -1 4.474995e-08 3324.2688 -733.3328)"
   class="st8"
   width="27.47"
   height="60.97"
   id="rect12653" />
<rect
   x="2015.07"
   y="1485.82"
   transform="matrix(4.474922e-08 1 -1 4.474922e-08 3545.1038 -512.4977)"
   class="st8"
   width="27.47"
   height="60.97"
   id="rect12655" />
<rect
   x="2015.07"
   y="1292.45"
   transform="matrix(4.474882e-08 1 -1 4.474882e-08 3351.7375 -705.864)"
   class="st7"
   width="27.47"
   height="60.97"
   id="rect12657" />
<rect
   x="2015.07"
   y="1320.46"
   transform="matrix(4.474919e-08 1 -1 4.474919e-08 3379.7485 -677.853)"
   class="st8"
   width="27.47"
   height="60.97"
   id="rect12659" />
<rect
   x="2015.07"
   y="1347.93"
   transform="matrix(4.474922e-08 1 -1 4.474922e-08 3407.2173 -650.3842)"
   class="st7"
   width="27.47"
   height="60.97"
   id="rect12661" />
<rect
   x="2015.07"
   y="1375.4"
   transform="matrix(4.475031e-08 1 -1 4.475031e-08 3434.6863 -622.9153)"
   class="st8"
   width="27.47"
   height="60.97"
   id="rect12663" />
<rect
   x="2015.07"
   y="1402.87"
   transform="matrix(4.474922e-08 1 -1 4.474922e-08 3462.155 -595.4464)"
   class="st7"
   width="27.47"
   height="60.97"
   id="rect12665" />
<rect
   x="2015.07"
   y="1430.88"
   transform="matrix(4.474958e-08 1 -1 4.474958e-08 3490.166 -567.4355)"
   class="st8"
   width="27.47"
   height="60.97"
   id="rect12667" />
<rect
   x="2015.07"
   y="1458.35"
   transform="matrix(4.474955e-08 1 -1 4.474955e-08 3517.635 -539.9666)"
   class="st7"
   width="27.47"
   height="60.97"
   id="rect12669" />
<rect
   x="1842.54"
   y="1363.77"
   transform="matrix(1.990897e-07 1 -1 1.990897e-07 3423.0571 -634.5454)"
   class="st9"
   width="372.53"
   height="60.97"
   id="rect12671" />
<rect
   x="2102.26"
   y="1264.98"
   transform="matrix(4.474998e-08 1 -1 4.474998e-08 3411.4656 -820.5297)"
   class="st8"
   width="27.47"
   height="60.97"
   id="rect12673" />
<rect
   x="2102.26"
   y="1485.82"
   transform="matrix(4.474952e-08 1 -1 4.474952e-08 3632.3008 -599.6946)"
   class="st8"
   width="27.47"
   height="60.97"
   id="rect12675" />
<rect
   x="2102.26"
   y="1292.45"
   transform="matrix(4.474919e-08 1 -1 4.474919e-08 3438.9343 -793.0608)"
   class="st7"
   width="27.47"
   height="60.97"
   id="rect12677" />
<rect
   x="2102.26"
   y="1320.46"
   transform="matrix(4.474886e-08 1 -1 4.474886e-08 3466.9453 -765.0499)"
   class="st8"
   width="27.47"
   height="60.97"
   id="rect12679" />
<rect
   x="2102.26"
   y="1347.93"
   transform="matrix(4.474925e-08 1 -1 4.474925e-08 3494.4143 -737.581)"
   class="st7"
   width="27.47"
   height="60.97"
   id="rect12681" />
<rect
   x="2102.26"
   y="1375.4"
   transform="matrix(4.475031e-08 1 -1 4.475031e-08 3521.8831 -710.1121)"
   class="st8"
   width="27.47"
   height="60.97"
   id="rect12683" />
<rect
   x="2102.26"
   y="1402.87"
   transform="matrix(4.474919e-08 1 -1 4.474919e-08 3549.3521 -682.6432)"
   class="st7"
   width="27.47"
   height="60.97"
   id="rect12685" />
<rect
   x="2102.26"
   y="1430.88"
   transform="matrix(4.474919e-08 1 -1 4.474919e-08 3577.363 -654.6323)"
   class="st8"
   width="27.47"
   height="60.97"
   id="rect12687" />
<rect
   x="2102.26"
   y="1458.35"
   transform="matrix(4.474958e-08 1 -1 4.474958e-08 3604.8318 -627.1635)"
   class="st7"
   width="27.47"
   height="60.97"
   id="rect12689" />
<rect
   x="1929.73"
   y="1363.77"
   transform="matrix(1.990897e-07 1 -1 1.990897e-07 3510.2539 -721.7422)"
   class="st9"
   width="372.53"
   height="60.97"
   id="rect12691" />
<rect
   x="2189.46"
   y="1264.98"
   transform="matrix(4.474952e-08 1 -1 4.474952e-08 3498.6624 -907.7266)"
   class="st8"
   width="27.47"
   height="60.97"
   id="rect12693" />
<rect
   x="2189.46"
   y="1485.82"
   transform="matrix(4.474958e-08 1 -1 4.474958e-08 3719.4976 -686.8915)"
   class="st8"
   width="27.47"
   height="60.97"
   id="rect12695" />
<rect
   x="2189.46"
   y="1292.45"
   transform="matrix(4.474958e-08 1 -1 4.474958e-08 3526.1313 -880.2577)"
   class="st7"
   width="27.47"
   height="60.97"
   id="rect12697" />
<rect
   x="2189.46"
   y="1320.46"
   transform="matrix(4.474886e-08 1 -1 4.474886e-08 3554.1423 -852.2467)"
   class="st8"
   width="27.47"
   height="60.97"
   id="rect12699" />
<rect
   x="2189.46"
   y="1347.93"
   transform="matrix(4.474952e-08 1 -1 4.474952e-08 3581.6111 -824.7779)"
   class="st7"
   width="27.47"
   height="60.97"
   id="rect12701" />
<rect
   x="2189.46"
   y="1375.4"
   transform="matrix(4.474998e-08 1 -1 4.474998e-08 3609.0801 -797.309)"
   class="st8"
   width="27.47"
   height="60.97"
   id="rect12703" />
<rect
   x="2189.46"
   y="1402.87"
   transform="matrix(4.474958e-08 1 -1 4.474958e-08 3636.5488 -769.8401)"
   class="st7"
   width="27.47"
   height="60.97"
   id="rect12705" />
<rect
   x="2189.46"
   y="1430.88"
   transform="matrix(4.474919e-08 1 -1 4.474919e-08 3664.5598 -741.8292)"
   class="st8"
   width="27.47"
   height="60.97"
   id="rect12707" />
<rect
   x="2189.46"
   y="1458.35"
   transform="matrix(4.474958e-08 1 -1 4.474958e-08 3692.0286 -714.3604)"
   class="st7"
   width="27.47"
   height="60.97"
   id="rect12709" />
<rect
   x="2016.93"
   y="1363.77"
   transform="matrix(1.990896e-07 1 -1 1.990896e-07 3597.4507 -808.9391)"
   class="st9"
   width="372.53"
   height="60.97"
   id="rect12711" />
<rect
   x="1404.69"
   y="1535.91"
   transform="matrix(4.474991e-08 1 -1 4.474991e-08 2984.813 147.9693)"
   class="st7"
   width="27.47"
   height="60.97"
   id="rect12713" />
<rect
   x="1317.49"
   y="1535.91"
   transform="matrix(4.474995e-08 1 -1 4.474995e-08 2897.616 235.1661)"
   class="st7"
   width="27.47"
   height="60.97"
   id="rect12715" />
<rect
   x="1230.29"
   y="1535.91"
   transform="matrix(4.474995e-08 1 -1 4.474995e-08 2810.4192 322.363)"
   class="st7"
   width="27.47"
   height="60.97"
   id="rect12717" />
<rect
   x="1230.29"
   y="1264.59"
   transform="matrix(4.474958e-08 1 -1 4.474958e-08 2539.1003 51.044)"
   class="st8"
   width="27.47"
   height="60.97"
   id="rect12719" />
<rect
   x="1230.29"
   y="1485.42"
   transform="matrix(4.474922e-08 1 -1 4.474922e-08 2759.9353 271.8791)"
   class="st8"
   width="27.47"
   height="60.97"
   id="rect12721" />
<rect
   x="1230.29"
   y="1292.06"
   transform="matrix(4.474919e-08 1 -1 4.474919e-08 2566.5691 78.5129)"
   class="st7"
   width="27.47"
   height="60.97"
   id="rect12723" />
<rect
   x="1230.29"
   y="1320.07"
   transform="matrix(4.474919e-08 1 -1 4.474919e-08 2594.5801 106.5238)"
   class="st8"
   width="27.47"
   height="60.97"
   id="rect12725" />
<rect
   x="1230.29"
   y="1347.54"
   transform="matrix(4.474922e-08 1 -1 4.474922e-08 2622.0488 133.9927)"
   class="st7"
   width="27.47"
   height="60.97"
   id="rect12727" />
<rect
   x="1230.29"
   y="1375"
   transform="matrix(4.474995e-08 1 -1 4.474995e-08 2649.5178 161.4615)"
   class="st8"
   width="27.47"
   height="60.97"
   id="rect12729" />
<rect
   x="1230.29"
   y="1402.47"
   transform="matrix(4.474919e-08 1 -1 4.474919e-08 2676.9866 188.9304)"
   class="st7"
   width="27.47"
   height="60.97"
   id="rect12731" />
<rect
   x="1230.29"
   y="1430.48"
   transform="matrix(4.474955e-08 1 -1 4.474955e-08 2704.9976 216.9414)"
   class="st8"
   width="27.47"
   height="60.97"
   id="rect12733" />
<rect
   x="1230.29"
   y="1457.95"
   transform="matrix(4.474958e-08 1 -1 4.474958e-08 2732.4666 244.4102)"
   class="st7"
   width="27.47"
   height="60.97"
   id="rect12735" />
<rect
   x="1057.76"
   y="1363.38"
   transform="matrix(1.990897e-07 1 -1 1.990897e-07 2637.8887 149.8315)"
   class="st9"
   width="372.53"
   height="60.97"
   id="rect12737" />
<rect
   x="1317.49"
   y="1264.59"
   transform="matrix(4.474958e-08 1 -1 4.474958e-08 2626.2971 -36.1529)"
   class="st8"
   width="27.47"
   height="60.97"
   id="rect12739" />
<rect
   x="1317.49"
   y="1485.42"
   transform="matrix(4.474958e-08 1 -1 4.474958e-08 2847.1321 184.6822)"
   class="st8"
   width="27.47"
   height="60.97"
   id="rect12741" />
<rect
   x="1317.49"
   y="1292.06"
   transform="matrix(4.474958e-08 1 -1 4.474958e-08 2653.7659 -8.684)"
   class="st7"
   width="27.47"
   height="60.97"
   id="rect12743" />
<rect
   x="1317.49"
   y="1320.07"
   transform="matrix(4.474919e-08 1 -1 4.474919e-08 2681.7769 19.327)"
   class="st8"
   width="27.47"
   height="60.97"
   id="rect12745" />
<rect
   x="1317.49"
   y="1347.54"
   transform="matrix(4.474922e-08 1 -1 4.474922e-08 2709.2458 46.7958)"
   class="st7"
   width="27.47"
   height="60.97"
   id="rect12747" />
<rect
   x="1317.49"
   y="1375"
   transform="matrix(4.474995e-08 1 -1 4.474995e-08 2736.7146 74.2647)"
   class="st8"
   width="27.47"
   height="60.97"
   id="rect12749" />
<rect
   x="1317.49"
   y="1402.47"
   transform="matrix(4.474958e-08 1 -1 4.474958e-08 2764.1836 101.7336)"
   class="st7"
   width="27.47"
   height="60.97"
   id="rect12751" />
<rect
   x="1317.49"
   y="1430.48"
   transform="matrix(4.474922e-08 1 -1 4.474922e-08 2792.1946 129.7445)"
   class="st8"
   width="27.47"
   height="60.97"
   id="rect12753" />
<rect
   x="1317.49"
   y="1457.95"
   transform="matrix(4.474955e-08 1 -1 4.474955e-08 2819.6633 157.2134)"
   class="st7"
   width="27.47"
   height="60.97"
   id="rect12755" />
<rect
   x="1144.96"
   y="1363.38"
   transform="matrix(1.990897e-07 1 -1 1.990897e-07 2725.0854 62.6346)"
   class="st9"
   width="372.53"
   height="60.97"
   id="rect12757" />
<rect
   x="1404.69"
   y="1264.59"
   transform="matrix(4.474955e-08 1 -1 4.474955e-08 2713.4939 -123.3497)"
   class="st8"
   width="27.47"
   height="60.97"
   id="rect12759" />
<rect
   x="1404.69"
   y="1485.42"
   transform="matrix(4.474955e-08 1 -1 4.474955e-08 2934.3291 97.4854)"
   class="st8"
   width="27.47"
   height="60.97"
   id="rect12761" />
<rect
   x="1404.69"
   y="1292.06"
   transform="matrix(4.474958e-08 1 -1 4.474958e-08 2740.9629 -95.8809)"
   class="st7"
   width="27.47"
   height="60.97"
   id="rect12763" />
<rect
   x="1404.69"
   y="1320.07"
   transform="matrix(4.474922e-08 1 -1 4.474922e-08 2768.9739 -67.8699)"
   class="st8"
   width="27.47"
   height="60.97"
   id="rect12765" />
<rect
   x="1404.69"
   y="1347.54"
   transform="matrix(4.474958e-08 1 -1 4.474958e-08 2796.4426 -40.401)"
   class="st7"
   width="27.47"
   height="60.97"
   id="rect12767" />
<rect
   x="1404.69"
   y="1375"
   transform="matrix(4.474991e-08 1 -1 4.474991e-08 2823.9116 -12.9322)"
   class="st8"
   width="27.47"
   height="60.97"
   id="rect12769" />
<rect
   x="1404.69"
   y="1402.47"
   transform="matrix(4.474922e-08 1 -1 4.474922e-08 2851.3804 14.5367)"
   class="st7"
   width="27.47"
   height="60.97"
   id="rect12771" />
<rect
   x="1404.69"
   y="1430.48"
   transform="matrix(4.474886e-08 1 -1 4.474886e-08 2879.3914 42.5476)"
   class="st8"
   width="27.47"
   height="60.97"
   id="rect12773" />
<rect
   x="1404.69"
   y="1457.95"
   transform="matrix(4.474995e-08 1 -1 4.474995e-08 2906.8601 70.0165)"
   class="st7"
   width="27.47"
   height="60.97"
   id="rect12775" />
<rect
   x="1232.16"
   y="1363.38"
   transform="matrix(1.990896e-07 1 -1 1.990896e-07 2812.2825 -24.5623)"
   class="st9"
   width="372.53"
   height="60.97"
   id="rect12777" />
<rect
   x="2363.86"
   y="1536.3"
   transform="matrix(4.474965e-08 1 -1 4.474965e-08 3944.3789 -810.8051)"
   class="st7"
   width="27.47"
   height="60.97"
   id="rect12779" />
<rect
   x="2363.86"
   y="1264.98"
   transform="matrix(4.474952e-08 1 -1 4.474952e-08 3673.0601 -1082.124)"
   class="st8"
   width="27.47"
   height="60.97"
   id="rect12781" />
<rect
   x="2363.86"
   y="1485.82"
   transform="matrix(4.474958e-08 1 -1 4.474958e-08 3893.895 -861.289)"
   class="st8"
   width="27.47"
   height="60.97"
   id="rect12783" />
<rect
   x="2363.86"
   y="1292.45"
   transform="matrix(4.474958e-08 1 -1 4.474958e-08 3700.5288 -1054.6552)"
   class="st7"
   width="27.47"
   height="60.97"
   id="rect12785" />
<rect
   x="2363.86"
   y="1320.46"
   transform="matrix(4.474886e-08 1 -1 4.474886e-08 3728.5398 -1026.6443)"
   class="st8"
   width="27.47"
   height="60.97"
   id="rect12787" />
<rect
   x="2363.86"
   y="1347.93"
   transform="matrix(4.474952e-08 1 -1 4.474952e-08 3756.0085 -999.1754)"
   class="st7"
   width="27.47"
   height="60.97"
   id="rect12789" />
<rect
   x="2363.86"
   y="1375.4"
   transform="matrix(4.474998e-08 1 -1 4.474998e-08 3783.4775 -971.7065)"
   class="st8"
   width="27.47"
   height="60.97"
   id="rect12791" />
<rect
   x="2363.86"
   y="1402.87"
   transform="matrix(4.474886e-08 1 -1 4.474886e-08 3810.9463 -944.2377)"
   class="st7"
   width="27.47"
   height="60.97"
   id="rect12793" />
<rect
   x="2363.86"
   y="1430.88"
   transform="matrix(4.474919e-08 1 -1 4.474919e-08 3838.9573 -916.2267)"
   class="st8"
   width="27.47"
   height="60.97"
   id="rect12795" />
<rect
   x="2363.86"
   y="1458.35"
   transform="matrix(4.474958e-08 1 -1 4.474958e-08 3866.4263 -888.7579)"
   class="st7"
   width="27.47"
   height="60.97"
   id="rect12797" />
<rect
   x="2191.33"
   y="1363.77"
   transform="matrix(1.990896e-07 1 -1 1.990896e-07 3771.8481 -983.3366)"
   class="st9"
   width="372.53"
   height="60.97"
   id="rect12799" />
<rect
   x="2276.66"
   y="1535.91"
   transform="matrix(4.474998e-08 1 -1 4.474998e-08 3856.7854 -724.0032)"
   class="st7"
   width="27.47"
   height="60.97"
   id="rect12801" />
<rect
   x="2276.66"
   y="1264.59"
   transform="matrix(4.474958e-08 1 -1 4.474958e-08 3585.4663 -995.3221)"
   class="st8"
   width="27.47"
   height="60.97"
   id="rect12803" />
<rect
   x="2276.66"
   y="1485.42"
   transform="matrix(4.474958e-08 1 -1 4.474958e-08 3806.3015 -774.4871)"
   class="st8"
   width="27.47"
   height="60.97"
   id="rect12805" />
<rect
   x="2276.66"
   y="1292.06"
   transform="matrix(4.474958e-08 1 -1 4.474958e-08 3612.9353 -967.8533)"
   class="st7"
   width="27.47"
   height="60.97"
   id="rect12807" />
<rect
   x="2276.66"
   y="1320.07"
   transform="matrix(4.474886e-08 1 -1 4.474886e-08 3640.946 -939.8423)"
   class="st8"
   width="27.47"
   height="60.97"
   id="rect12809" />
<rect
   x="2276.66"
   y="1347.54"
   transform="matrix(4.474919e-08 1 -1 4.474919e-08 3668.415 -912.3735)"
   class="st7"
   width="27.47"
   height="60.97"
   id="rect12811" />
<rect
   x="2276.66"
   y="1375"
   transform="matrix(4.474998e-08 1 -1 4.474998e-08 3695.8838 -884.9046)"
   class="st8"
   width="27.47"
   height="60.97"
   id="rect12813" />
<rect
   x="2276.66"
   y="1402.47"
   transform="matrix(4.474919e-08 1 -1 4.474919e-08 3723.3528 -857.4357)"
   class="st7"
   width="27.47"
   height="60.97"
   id="rect12815" />
<rect
   x="2276.66"
   y="1430.48"
   transform="matrix(4.474919e-08 1 -1 4.474919e-08 3751.3638 -829.4248)"
   class="st8"
   width="27.47"
   height="60.97"
   id="rect12817" />
<rect
   x="2276.66"
   y="1457.95"
   transform="matrix(4.474991e-08 1 -1 4.474991e-08 3778.8325 -801.9559)"
   class="st7"
   width="27.47"
   height="60.97"
   id="rect12819" />
<rect
   x="2104.13"
   y="1363.38"
   transform="matrix(1.990896e-07 1 -1 1.990896e-07 3684.2546 -896.5347)"
   class="st9"
   width="372.53"
   height="60.97"
   id="rect12821" />
<polygon
   class="st9"
   points="1444.79,977.86 1430.28,977.86 1430.28,937.52 1410.75,937.52 1410.75,977.86 1394.71,977.86   1394.71,1084.52 1411.04,1084.52 1403.04,1089.43 1389.63,1103.67 1399.96,1114.86 1416.62,1097.18 1425.03,1097.18   1435.62,1114.86 1448.61,1107.72 1439.28,1091.9 1430.28,1086.1 1444.79,1086.1 "
   id="polygon12823" />
<rect
   x="1372.24"
   y="1004.55"
   transform="matrix(-1 -4.439750e-11 4.439750e-11 -1 2757.0708 2063.967)"
   class="st10"
   width="12.6"
   height="54.87"
   id="rect12825" />
<g
   id="g12835">
	<g
   id="g12831">
		<polygon
   class="st9"
   points="1441.59,1181.16 1441.59,1172.13 1449.6,1172.13 1449.6,1160.72 1441.59,1160.72 1441.59,1152.46     1424,1152.46 1424,1181.16   "
   id="polygon12827" />
		<polyline
   class="st9"
   points="1441.59,1152.46 1424,1152.46 1424,1181.16 1441.59,1181.16   "
   id="polyline12829" />
	</g>
	<polygon
   class="st9"
   points="1415.21,1181.16 1415.21,1172.13 1415.21,1160.72 1415.21,1152.46 1392.72,1152.46 1392.72,1181.16     "
   id="polygon12833" />
</g>
<polygon
   class="st9"
   points="1357.82,977.86 1343.31,977.86 1343.31,937.52 1323.78,937.52 1323.78,977.86 1307.75,977.86   1307.75,1084.52 1324.07,1084.52 1316.07,1089.43 1302.66,1103.67 1312.99,1114.86 1329.66,1097.18 1338.06,1097.18   1348.65,1114.86 1361.64,1107.72 1352.31,1091.9 1343.31,1086.1 1357.82,1086.1 "
   id="polygon12837" />
<rect
   x="1285.27"
   y="1004.55"
   transform="matrix(-1 -4.526391e-11 4.526391e-11 -1 2583.1379 2063.967)"
   class="st10"
   width="12.6"
   height="54.87"
   id="rect12839" />
<g
   id="g12849">
	<g
   id="g12845">
		<polygon
   class="st9"
   points="1354.62,1181.16 1354.62,1172.13 1362.64,1172.13 1362.64,1160.72 1354.62,1160.72 1354.62,1152.46     1337.03,1152.46 1337.03,1181.16   "
   id="polygon12841" />
		<polyline
   class="st9"
   points="1354.62,1152.46 1337.03,1152.46 1337.03,1181.16 1354.62,1181.16   "
   id="polyline12843" />
	</g>
	<polygon
   class="st9"
   points="1328.24,1181.16 1328.24,1172.13 1328.24,1160.72 1328.24,1152.46 1305.76,1152.46 1305.76,1181.16     "
   id="polygon12847" />
</g>
<polygon
   class="st9"
   points="1270.86,977.86 1256.34,977.86 1256.34,937.52 1236.81,937.52 1236.81,977.86 1220.78,977.86   1220.78,1084.52 1237.1,1084.52 1229.1,1089.43 1215.69,1103.67 1226.03,1114.86 1242.69,1097.18 1251.1,1097.18 1261.69,1114.86   1274.67,1107.72 1265.34,1091.9 1256.34,1086.1 1270.86,1086.1 "
   id="polygon12851" />
<g
   id="g12861">
	<g
   id="g12857">
		<polygon
   class="st9"
   points="1267.65,1181.16 1267.65,1172.13 1275.67,1172.13 1275.67,1160.72 1267.65,1160.72 1267.65,1152.46     1250.07,1152.46 1250.07,1181.16   "
   id="polygon12853" />
		<polyline
   class="st9"
   points="1267.65,1152.46 1250.07,1152.46 1250.07,1181.16 1267.65,1181.16   "
   id="polyline12855" />
	</g>
	<polygon
   class="st9"
   points="1241.27,1181.16 1241.27,1172.13 1241.27,1160.72 1241.27,1152.46 1218.79,1152.46 1218.79,1181.16     "
   id="polygon12859" />
</g>
<polygon
   class="st9"
   points="1705.69,977.86 1691.17,977.86 1691.17,937.52 1671.64,937.52 1671.64,977.86 1655.61,977.86   1655.61,1084.52 1671.93,1084.52 1663.93,1089.43 1650.52,1103.67 1660.86,1114.86 1677.52,1097.18 1685.93,1097.18   1696.52,1114.86 1709.5,1107.72 1700.17,1091.9 1691.17,1086.1 1705.69,1086.1 "
   id="polygon12863" />
<rect
   x="1633.13"
   y="1004.55"
   transform="matrix(-1 -4.439750e-11 4.439750e-11 -1 3278.8657 2063.967)"
   class="st10"
   width="12.6"
   height="54.87"
   id="rect12865" />
<g
   id="g12875">
	<g
   id="g12871">
		<polygon
   class="st9"
   points="1702.48,1181.16 1702.48,1172.13 1710.5,1172.13 1710.5,1160.72 1702.48,1160.72 1702.48,1152.46     1684.9,1152.46 1684.9,1181.16   "
   id="polygon12867" />
		<polyline
   class="st9"
   points="1702.48,1152.46 1684.9,1152.46 1684.9,1181.16 1702.48,1181.16   "
   id="polyline12869" />
	</g>
	<polygon
   class="st9"
   points="1676.1,1181.16 1676.1,1172.13 1676.1,1160.72 1676.1,1152.46 1653.62,1152.46 1653.62,1181.16  "
   id="polygon12873" />
</g>
<polygon
   class="st9"
   points="1618.72,977.86 1604.21,977.86 1604.21,937.52 1584.68,937.52 1584.68,977.86 1568.64,977.86   1568.64,1084.52 1584.97,1084.52 1576.97,1089.43 1563.56,1103.67 1573.89,1114.86 1590.55,1097.18 1598.96,1097.18   1609.55,1114.86 1622.54,1107.72 1613.21,1091.9 1604.21,1086.1 1618.72,1086.1 "
   id="polygon12877" />
<rect
   x="1546.17"
   y="1004.55"
   transform="matrix(-1 -4.519197e-11 4.519197e-11 -1 3104.9341 2063.967)"
   class="st10"
   width="12.6"
   height="54.87"
   id="rect12879" />
<g
   id="g12889">
	<g
   id="g12885">
		<polygon
   class="st9"
   points="1615.52,1181.16 1615.52,1172.13 1623.53,1172.13 1623.53,1160.72 1615.52,1160.72 1615.52,1152.46     1597.93,1152.46 1597.93,1181.16   "
   id="polygon12881" />
		<polyline
   class="st9"
   points="1615.52,1152.46 1597.93,1152.46 1597.93,1181.16 1615.52,1181.16   "
   id="polyline12883" />
	</g>
	<polygon
   class="st9"
   points="1589.14,1181.16 1589.14,1172.13 1589.14,1160.72 1589.14,1152.46 1566.66,1152.46 1566.66,1181.16     "
   id="polygon12887" />
</g>
<polygon
   class="st9"
   points="1531.75,977.86 1517.24,977.86 1517.24,937.52 1497.71,937.52 1497.71,977.86 1481.68,977.86   1481.68,1084.52 1498,1084.52 1490,1089.43 1476.59,1103.67 1486.93,1114.86 1503.59,1097.18 1512,1097.18 1522.58,1114.86   1535.57,1107.72 1526.24,1091.9 1517.24,1086.1 1531.75,1086.1 "
   id="polygon12891" />
<rect
   x="1459.2"
   y="1004.55"
   transform="matrix(-1 -4.519197e-11 4.519197e-11 -1 2931.0024 2063.967)"
   class="st10"
   width="12.6"
   height="54.87"
   id="rect12893" />
<g
   id="g12903">
	<g
   id="g12899">
		<polygon
   class="st9"
   points="1528.55,1181.16 1528.55,1172.13 1536.57,1172.13 1536.57,1160.72 1528.55,1160.72 1528.55,1152.46     1510.97,1152.46 1510.97,1181.16   "
   id="polygon12895" />
		<polyline
   class="st9"
   points="1528.55,1152.46 1510.97,1152.46 1510.97,1181.16 1528.55,1181.16   "
   id="polyline12897" />
	</g>
	<polygon
   class="st9"
   points="1502.17,1181.16 1502.17,1172.13 1502.17,1160.72 1502.17,1152.46 1479.69,1152.46 1479.69,1181.16     "
   id="polygon12901" />
</g>
<polygon
   class="st9"
   points="1966.58,977.86 1952.07,977.86 1952.07,937.52 1932.54,937.52 1932.54,977.86 1916.51,977.86   1916.51,1084.52 1932.83,1084.52 1924.83,1089.43 1911.42,1103.67 1921.76,1114.86 1938.42,1097.18 1946.83,1097.18   1957.41,1114.86 1970.4,1107.72 1961.07,1091.9 1952.07,1086.1 1966.58,1086.1 "
   id="polygon12905" />
<rect
   x="1894.03"
   y="1004.55"
   transform="matrix(-1 -4.526391e-11 4.526391e-11 -1 3800.6626 2063.967)"
   class="st10"
   width="12.6"
   height="54.87"
   id="rect12907" />
<g
   id="g12917">
	<g
   id="g12913">
		<polygon
   class="st9"
   points="1963.38,1181.16 1963.38,1172.13 1971.4,1172.13 1971.4,1160.72 1963.38,1160.72 1963.38,1152.46     1945.8,1152.46 1945.8,1181.16   "
   id="polygon12909" />
		<polyline
   class="st9"
   points="1963.38,1152.46 1945.8,1152.46 1945.8,1181.16 1963.38,1181.16   "
   id="polyline12911" />
	</g>
	<polygon
   class="st9"
   points="1937,1181.16 1937,1172.13 1937,1160.72 1937,1152.46 1914.52,1152.46 1914.52,1181.16  "
   id="polygon12915" />
</g>
<polygon
   class="st9"
   points="1879.62,977.86 1865.11,977.86 1865.11,937.52 1845.58,937.52 1845.58,977.86 1829.54,977.86   1829.54,1084.52 1845.87,1084.52 1837.87,1089.43 1824.46,1103.67 1834.79,1114.86 1851.45,1097.18 1859.86,1097.18   1870.45,1114.86 1883.44,1107.72 1874.11,1091.9 1865.11,1086.1 1879.62,1086.1 "
   id="polygon12919" />
<rect
   x="1807.07"
   y="1004.55"
   transform="matrix(-1 -4.446988e-11 4.446988e-11 -1 3626.7302 2063.967)"
   class="st10"
   width="12.6"
   height="54.87"
   id="rect12921" />
<g
   id="g12931">
	<g
   id="g12927">
		<polygon
   class="st9"
   points="1876.42,1181.16 1876.42,1172.13 1884.43,1172.13 1884.43,1160.72 1876.42,1160.72 1876.42,1152.46     1858.83,1152.46 1858.83,1181.16   "
   id="polygon12923" />
		<polyline
   class="st9"
   points="1876.42,1152.46 1858.83,1152.46 1858.83,1181.16 1876.42,1181.16   "
   id="polyline12925" />
	</g>
	<polygon
   class="st9"
   points="1850.04,1181.16 1850.04,1172.13 1850.04,1160.72 1850.04,1152.46 1827.55,1152.46 1827.55,1181.16     "
   id="polygon12929" />
</g>
<polygon
   class="st9"
   points="1792.65,977.86 1778.14,977.86 1778.14,937.52 1758.61,937.52 1758.61,977.86 1742.58,977.86   1742.58,1084.52 1758.9,1084.52 1750.9,1089.43 1737.49,1103.67 1747.82,1114.86 1764.49,1097.18 1772.89,1097.18 1783.48,1114.86   1796.47,1107.72 1787.14,1091.9 1778.14,1086.1 1792.65,1086.1 "
   id="polygon12933" />
<rect
   x="1720.1"
   y="1004.55"
   transform="matrix(-1 -4.526391e-11 4.526391e-11 -1 3452.7981 2063.967)"
   class="st10"
   width="12.6"
   height="54.87"
   id="rect12935" />
<g
   id="g12945">
	<g
   id="g12941">
		<polygon
   class="st9"
   points="1789.45,1181.16 1789.45,1172.13 1797.47,1172.13 1797.47,1160.72 1789.45,1160.72 1789.45,1152.46     1771.86,1152.46 1771.86,1181.16   "
   id="polygon12937" />
		<polyline
   class="st9"
   points="1789.45,1152.46 1771.86,1152.46 1771.86,1181.16 1789.45,1181.16   "
   id="polyline12939" />
	</g>
	<polygon
   class="st9"
   points="1763.07,1181.16 1763.07,1172.13 1763.07,1160.72 1763.07,1152.46 1740.59,1152.46 1740.59,1181.16     "
   id="polygon12943" />
</g>
<polygon
   class="st9"
   points="2227.48,977.86 2212.97,977.86 2212.97,937.52 2193.44,937.52 2193.44,977.86 2177.41,977.86   2177.41,1084.52 2193.73,1084.52 2185.73,1089.43 2172.32,1103.67 2182.65,1114.86 2199.32,1097.18 2207.72,1097.18   2218.31,1114.86 2231.3,1107.72 2221.97,1091.9 2212.97,1086.1 2227.48,1086.1 "
   id="polygon12947" />
<rect
   x="2154.93"
   y="1004.55"
   transform="matrix(-1 -4.446988e-11 4.446988e-11 -1 4322.4614 2063.967)"
   class="st10"
   width="12.6"
   height="54.87"
   id="rect12949" />
<g
   id="g12959">
	<g
   id="g12955">
		<polygon
   class="st9"
   points="2224.28,1181.16 2224.28,1172.13 2232.3,1172.13 2232.3,1160.72 2224.28,1160.72 2224.28,1152.46     2206.7,1152.46 2206.7,1181.16   "
   id="polygon12951" />
		<polyline
   class="st9"
   points="2224.28,1152.46 2206.7,1152.46 2206.7,1181.16 2224.28,1181.16   "
   id="polyline12953" />
	</g>
	<polygon
   class="st9"
   points="2197.9,1181.16 2197.9,1172.13 2197.9,1160.72 2197.9,1152.46 2175.42,1152.46 2175.42,1181.16  "
   id="polygon12957" />
</g>
<polygon
   class="st9"
   points="2140.52,977.86 2126.01,977.86 2126.01,937.52 2106.47,937.52 2106.47,977.86 2090.44,977.86   2090.44,1084.52 2106.77,1084.52 2098.77,1089.43 2085.36,1103.67 2095.69,1114.86 2112.35,1097.18 2120.76,1097.18   2131.35,1114.86 2144.33,1107.72 2135.01,1091.9 2126.01,1086.1 2140.52,1086.1 "
   id="polygon12961" />
<rect
   x="2067.97"
   y="1004.55"
   transform="matrix(-1 -4.526391e-11 4.526391e-11 -1 4148.5283 2063.967)"
   class="st10"
   width="12.6"
   height="54.87"
   id="rect12963" />
<g
   id="g12973">
	<g
   id="g12969">
		<polygon
   class="st9"
   points="2137.32,1181.16 2137.32,1172.13 2145.33,1172.13 2145.33,1160.72 2137.32,1160.72 2137.32,1152.46     2119.73,1152.46 2119.73,1181.16   "
   id="polygon12965" />
		<polyline
   class="st9"
   points="2137.32,1152.46 2119.73,1152.46 2119.73,1181.16 2137.32,1181.16   "
   id="polyline12967" />
	</g>
	<polygon
   class="st9"
   points="2110.94,1181.16 2110.94,1172.13 2110.94,1160.72 2110.94,1152.46 2088.45,1152.46 2088.45,1181.16     "
   id="polygon12971" />
</g>
<polygon
   class="st9"
   points="2401.42,977.86 2386.9,977.86 2386.9,937.52 2367.37,937.52 2367.37,977.86 2351.34,977.86   2351.34,1084.52 2367.66,1084.52 2359.66,1089.43 2346.25,1103.67 2356.59,1114.86 2373.25,1097.18 2381.66,1097.18   2392.25,1114.86 2405.23,1107.72 2395.9,1091.9 2386.9,1086.1 2401.42,1086.1 "
   id="polygon12975" />
<rect
   x="2328.86"
   y="1004.55"
   transform="matrix(-1 -4.526391e-11 4.526391e-11 -1 4670.3257 2063.967)"
   class="st10"
   width="12.6"
   height="54.87"
   id="rect12977" />
<g
   id="g12987">
	<g
   id="g12983">
		<polygon
   class="st9"
   points="2398.21,1181.16 2398.21,1172.13 2406.23,1172.13 2406.23,1160.72 2398.21,1160.72 2398.21,1152.46     2380.63,1152.46 2380.63,1181.16   "
   id="polygon12979" />
		<polyline
   class="st9"
   points="2398.21,1152.46 2380.63,1152.46 2380.63,1181.16 2398.21,1181.16   "
   id="polyline12981" />
	</g>
	<polygon
   class="st9"
   points="2371.83,1181.16 2371.83,1172.13 2371.83,1160.72 2371.83,1152.46 2349.35,1152.46 2349.35,1181.16     "
   id="polygon12985" />
</g>
<polygon
   class="st9"
   points="2314.45,977.86 2299.94,977.86 2299.94,937.52 2280.41,937.52 2280.41,977.86 2264.37,977.86   2264.37,1084.52 2280.7,1084.52 2272.7,1089.43 2259.29,1103.67 2269.62,1114.86 2286.28,1097.18 2294.69,1097.18 2305.28,1114.86   2318.27,1107.72 2308.94,1091.9 2299.94,1086.1 2314.45,1086.1 "
   id="polygon12989" />
<rect
   x="2241.9"
   y="1004.55"
   transform="matrix(-1 -4.526391e-11 4.526391e-11 -1 4496.3931 2063.967)"
   class="st10"
   width="12.6"
   height="54.87"
   id="rect12991" />
<g
   id="g13001">
	<g
   id="g12997">
		<polygon
   class="st9"
   points="2311.25,1181.16 2311.25,1172.13 2319.26,1172.13 2319.26,1160.72 2311.25,1160.72 2311.25,1152.46     2293.66,1152.46 2293.66,1181.16   "
   id="polygon12993" />
		<polyline
   class="st9"
   points="2311.25,1152.46 2293.66,1152.46 2293.66,1181.16 2311.25,1181.16   "
   id="polyline12995" />
	</g>
	<polygon
   class="st9"
   points="2284.87,1181.16 2284.87,1172.13 2284.87,1160.72 2284.87,1152.46 2262.39,1152.46 2262.39,1181.16     "
   id="polygon12999" />
</g>
<polygon
   class="st9"
   points="2053.55,977.86 2039.04,977.86 2039.04,937.52 2019.51,937.52 2019.51,977.86 2003.47,977.86   2003.47,1084.52 2019.8,1084.52 2011.8,1089.43 1998.39,1103.67 2008.72,1114.86 2025.38,1097.18 2033.79,1097.18 2044.38,1114.86   2057.37,1107.72 2048.04,1091.9 2039.04,1086.1 2053.55,1086.1 "
   id="polygon13003" />
<rect
   x="1981"
   y="1004.55"
   transform="matrix(-1 -4.446988e-11 4.446988e-11 -1 3974.5955 2063.967)"
   class="st10"
   width="12.6"
   height="54.87"
   id="rect13005" />
<g
   id="g13015">
	<g
   id="g13011">
		<polygon
   class="st9"
   points="2050.35,1181.16 2050.35,1172.13 2058.36,1172.13 2058.36,1160.72 2050.35,1160.72 2050.35,1152.46     2032.76,1152.46 2032.76,1181.16   "
   id="polygon13007" />
		<polyline
   class="st9"
   points="2050.35,1152.46 2032.76,1152.46 2032.76,1181.16 2050.35,1181.16   "
   id="polyline13009" />
	</g>
	<polygon
   class="st9"
   points="2023.97,1181.16 2023.97,1172.13 2023.97,1160.72 2023.97,1152.46 2001.49,1152.46 2001.49,1181.16     "
   id="polygon13013" />
</g>
<g
   id="g13029">
	<g
   id="g13021">
		
			<rect
   x="2347.11"
   y="1580.52"
   transform="matrix(-1 -4.478030e-11 4.478030e-11 -1 4755.1846 3171.1948)"
   class="st11"
   width="60.97"
   height="10.15"
   id="rect13017" />
		
			<rect
   x="2347.11"
   y="1590.67"
   transform="matrix(-1 -4.492951e-11 4.492951e-11 -1 4755.1846 3192.4385)"
   class="st12"
   width="60.97"
   height="11.09"
   id="rect13019" />
	</g>
	<g
   id="g13027">
		
			<rect
   x="2259.91"
   y="1580.52"
   transform="matrix(-1 -4.492951e-11 4.492951e-11 -1 4580.7896 3171.1948)"
   class="st11"
   width="60.97"
   height="10.15"
   id="rect13023" />
		
			<rect
   x="2259.91"
   y="1590.67"
   transform="matrix(-1 -4.492951e-11 4.492951e-11 -1 4580.7896 3192.4385)"
   class="st12"
   width="60.97"
   height="11.09"
   id="rect13025" />
	</g>
</g>
<g
   id="g13035">
	
		<rect
   x="2478.72"
   y="1580.52"
   transform="matrix(-1 -1.506851e-11 1.506851e-11 -1 5139.353 3171.199)"
   class="st11"
   width="181.92"
   height="10.15"
   id="rect13031" />
	
		<rect
   x="2478.72"
   y="1590.68"
   transform="matrix(-1 -1.506851e-11 1.506851e-11 -1 5139.353 3192.4426)"
   class="st12"
   width="181.92"
   height="11.09"
   id="rect13033" />
</g>
<g
   id="g13049">
	<g
   id="g13041">
		
			<rect
   x="2172.71"
   y="1580.52"
   transform="matrix(-1 -4.478030e-11 4.478030e-11 -1 4406.3936 3171.1948)"
   class="st11"
   width="60.97"
   height="10.15"
   id="rect13037" />
		
			<rect
   x="2172.71"
   y="1590.67"
   transform="matrix(-1 -4.492951e-11 4.492951e-11 -1 4406.3936 3192.4385)"
   class="st12"
   width="60.97"
   height="11.09"
   id="rect13039" />
	</g>
	<g
   id="g13047">
		
			<rect
   x="2085.51"
   y="1580.52"
   transform="matrix(-1 -4.495927e-11 4.495927e-11 -1 4231.9985 3171.1948)"
   class="st11"
   width="60.97"
   height="10.15"
   id="rect13043" />
		
			<rect
   x="2085.51"
   y="1590.67"
   transform="matrix(-1 -4.495927e-11 4.495927e-11 -1 4231.9985 3192.4385)"
   class="st12"
   width="60.97"
   height="11.09"
   id="rect13045" />
	</g>
</g>
<g
   id="g13063">
	<g
   id="g13055">
		
			<rect
   x="1998.32"
   y="1580.52"
   transform="matrix(-1 -4.478030e-11 4.478030e-11 -1 4057.6047 3171.1948)"
   class="st11"
   width="60.97"
   height="10.15"
   id="rect13051" />
		
			<rect
   x="1998.32"
   y="1590.67"
   transform="matrix(-1 -4.478030e-11 4.478030e-11 -1 4057.6047 3192.4385)"
   class="st12"
   width="60.97"
   height="11.09"
   id="rect13053" />
	</g>
	<g
   id="g13061">
		
			<rect
   x="1911.12"
   y="1580.52"
   transform="matrix(-1 -4.492951e-11 4.492951e-11 -1 3883.2097 3171.1948)"
   class="st11"
   width="60.97"
   height="10.15"
   id="rect13057" />
		
			<rect
   x="1911.12"
   y="1590.67"
   transform="matrix(-1 -4.492951e-11 4.492951e-11 -1 3883.2097 3192.4385)"
   class="st12"
   width="60.97"
   height="11.09"
   id="rect13059" />
	</g>
</g>
<g
   id="g13077">
	<g
   id="g13069">
		
			<rect
   x="1823.92"
   y="1580.52"
   transform="matrix(-1 -4.478030e-11 4.478030e-11 -1 3708.8135 3171.1948)"
   class="st11"
   width="60.97"
   height="10.15"
   id="rect13065" />
		
			<rect
   x="1823.92"
   y="1590.67"
   transform="matrix(-1 -4.492951e-11 4.492951e-11 -1 3708.8135 3192.4385)"
   class="st12"
   width="60.97"
   height="11.09"
   id="rect13067" />
	</g>
	<g
   id="g13075">
		
			<rect
   x="1736.72"
   y="1580.52"
   transform="matrix(-1 -4.492951e-11 4.492951e-11 -1 3534.4185 3171.1948)"
   class="st11"
   width="60.97"
   height="10.15"
   id="rect13071" />
		
			<rect
   x="1736.72"
   y="1590.67"
   transform="matrix(-1 -4.492951e-11 4.492951e-11 -1 3534.4185 3192.4385)"
   class="st12"
   width="60.97"
   height="11.09"
   id="rect13073" />
	</g>
</g>
<g
   id="g13091">
	<g
   id="g13083">
		
			<rect
   x="1649.53"
   y="1580.52"
   transform="matrix(-1 -4.478030e-11 4.478030e-11 -1 3360.0222 3171.1948)"
   class="st11"
   width="60.97"
   height="10.15"
   id="rect13079" />
		
			<rect
   x="1649.53"
   y="1590.67"
   transform="matrix(-1 -4.478030e-11 4.478030e-11 -1 3360.0222 3192.4385)"
   class="st12"
   width="60.97"
   height="11.09"
   id="rect13081" />
	</g>
	<g
   id="g13089">
		
			<rect
   x="1562.33"
   y="1580.52"
   transform="matrix(-1 -4.492951e-11 4.492951e-11 -1 3185.6272 3171.1948)"
   class="st11"
   width="60.97"
   height="10.15"
   id="rect13085" />
		
			<rect
   x="1562.33"
   y="1590.67"
   transform="matrix(-1 -4.492951e-11 4.492951e-11 -1 3185.6272 3192.4385)"
   class="st12"
   width="60.97"
   height="11.09"
   id="rect13087" />
	</g>
</g>
<g
   id="g13105">
	<g
   id="g13097">
		
			<rect
   x="1475.13"
   y="1580.52"
   transform="matrix(-1 -4.478030e-11 4.478030e-11 -1 3011.231 3171.1948)"
   class="st11"
   width="60.97"
   height="10.15"
   id="rect13093" />
		
			<rect
   x="1475.13"
   y="1590.67"
   transform="matrix(-1 -4.478030e-11 4.478030e-11 -1 3011.231 3192.4385)"
   class="st12"
   width="60.97"
   height="11.09"
   id="rect13095" />
	</g>
	<g
   id="g13103">
		
			<rect
   x="1387.93"
   y="1580.52"
   transform="matrix(-1 -4.492951e-11 4.492951e-11 -1 2836.8359 3171.1948)"
   class="st11"
   width="60.97"
   height="10.15"
   id="rect13099" />
		
			<rect
   x="1387.93"
   y="1590.67"
   transform="matrix(-1 -4.492951e-11 4.492951e-11 -1 2836.8359 3192.4385)"
   class="st12"
   width="60.97"
   height="11.09"
   id="rect13101" />
	</g>
</g>
<g
   id="g13119">
	<g
   id="g13111">
		
			<rect
   x="1300.73"
   y="1580.52"
   transform="matrix(-1 -4.495927e-11 4.495927e-11 -1 2662.4397 3171.1948)"
   class="st11"
   width="60.97"
   height="10.15"
   id="rect13107" />
		
			<rect
   x="1300.73"
   y="1590.67"
   transform="matrix(-1 -4.478030e-11 4.478030e-11 -1 2662.4397 3192.4385)"
   class="st12"
   width="60.97"
   height="11.09"
   id="rect13109" />
	</g>
	<g
   id="g13117">
		
			<rect
   x="1213.54"
   y="1580.52"
   transform="matrix(-1 -4.495927e-11 4.495927e-11 -1 2488.0447 3171.1948)"
   class="st11"
   width="60.97"
   height="10.15"
   id="rect13113" />
		
			<rect
   x="1213.54"
   y="1590.67"
   transform="matrix(-1 -4.495927e-11 4.495927e-11 -1 2488.0447 3192.4385)"
   class="st12"
   width="60.97"
   height="11.09"
   id="rect13115" />
	</g>
</g>
<ellipse
   class="st13"
   cx="1850.09"
   cy="1256.22"
   rx="1259.9"
   ry="611.47"
   id="ellipse13121" />
<circle
   class="st14"
   cx="1403.97"
   cy="679.01"
   r="34.26"
   id="circle13123" />
<circle
   class="st14"
   cx="3057.51"
   cy="1419.62"
   r="34.26"
   id="circle13125" />
<circle
   class="st14"
   cx="2186.66"
   cy="1846.44"
   r="34.26"
   id="circle13127" />
<ellipse
   class="st15"
   cx="2126.89"
   cy="1039.36"
   rx="1874.55"
   ry="992.73"
   id="ellipse13129" />
<rect
   x="2383.41"
   y="1303.3"
   transform="matrix(-5.941520e-07 1 -1 -5.941520e-07 3963.9343 -1175.4171)"
   class="st9"
   width="372.53"
   height="181.92"
   id="rect13131" />
<rect
   x="2523.91"
   y="1333.54"
   class="st16"
   width="50.62"
   height="50.62"
   id="rect13133" />
<text
   transform="matrix(1 0 0 1 2518.2417 1395.8257)"
   class="st17 st18"
   id="text13135">N. Ambiguus</text>
<text
   transform="matrix(0.8748 0.4845 -0.4845 0.8748 3295.2407 986.3417)"
   class="st17 st19"
   id="text13137">TRACHEA</text>
<text
   transform="matrix(0.9199 0.392 -0.392 0.9199 3498.3494 1080.2161)"
   id="text13143"><tspan
     x="0"
     y="0"
     class="st17 st19"
     id="tspan13139">CRICOID</tspan><tspan
     x="0"
     y="19.2"
     class="st17 st19"
     id="tspan13141">LARYNX</tspan></text>
<text
   transform="matrix(0.9484 -0.3171 0.3171 0.9484 4020.4482 898.7728)"
   id="text13149"><tspan
     x="0"
     y="0"
     class="st17 st19"
     id="tspan13145">UPPER</tspan><tspan
     x="0"
     y="19.2"
     class="st17 st19"
     id="tspan13147">ESOPHAGUS</tspan></text>
<text
   transform="matrix(0.4475 -0.8943 0.8943 0.4475 4026.0222 1446.2847)"
   id="text13155"><tspan
     x="0"
     y="0"
     class="st17 st19"
     id="tspan13151">THYROHYOID</tspan><tspan
     x="-24.44"
     y="19.2"
     class="st17 st19"
     id="tspan13153">LARYNGOPHARYNX</tspan></text>
<text
   transform="matrix(0.6067 -0.7949 0.7949 0.6067 3916.9036 1588.4082)"
   id="text13161"><tspan
     x="0"
     y="0"
     class="st17 st19"
     id="tspan13157">HYOID</tspan><tspan
     x="-53.77"
     y="19.2"
     class="st17 st19"
     id="tspan13159">LARYNGOPHARYNX</tspan></text>
<text
   transform="matrix(0.7241 -0.6897 0.6897 0.7241 3759.5391 1743.4926)"
   class="st17 st19"
   id="text13163">OROPHARYNX</text>
<text
   transform="matrix(0.945 0.327 -0.327 0.945 3606.3955 1121.1071)"
   id="text13169"><tspan
     x="0"
     y="0"
     class="st17 st19"
     id="tspan13165">THYROID</tspan><tspan
     x="0"
     y="19.2"
     class="st17 st19"
     id="tspan13167">LARYNX</tspan></text>
<text
   transform="matrix(0.9745 0.2243 -0.2243 0.9745 3728.4824 1153.922)"
   id="text13175"><tspan
     x="0"
     y="0"
     class="st17 st19"
     id="tspan13171">INT. FACE</tspan><tspan
     x="-22.46"
     y="19.2"
     class="st17 st19"
     id="tspan13173">OF EPIGLOTTIS</tspan></text>
<text
   transform="matrix(0.9997 0.0241 -0.0241 0.9997 3862.6213 1183.6108)"
   id="text13181"><tspan
     x="0"
     y="0"
     class="st17 st19"
     id="tspan13177">EXT. FACE</tspan><tspan
     x="-20.23"
     y="19.2"
     class="st17 st19"
     id="tspan13179">OF EPIGLOTTIS</tspan></text>
<text
   transform="matrix(0.7841 0.6206 -0.6206 0.7841 3131.2522 872.7129)"
   class="st17 st19"
   id="text13183">BRONCHUS</text>
<text
   transform="matrix(0.6634 0.7482 -0.7482 0.6634 2970.5483 701.8743)"
   class="st17 st19"
   id="text13185">BRONCHIOLE</text>
<text
   transform="matrix(0.4187 0.9081 -0.9081 0.4187 2858.866 516.4009)"
   id="text13191"><tspan
     x="0"
     y="0"
     class="st17 st19"
     id="tspan13187">TERMINAL</tspan><tspan
     x="-11.12"
     y="19.2"
     class="st17 st19"
     id="tspan13189">BRONCHIOLE</tspan></text>
<g
   id="g13197">
	
		<rect
   x="2953.56"
   y="482.59"
   transform="matrix(0.4177 0.9086 -0.9086 0.4177 2216.6262 -2458.6841)"
   class="st0"
   width="146.09"
   height="35.01"
   id="rect13193" />
	
		<rect
   x="2886.17"
   y="474.41"
   transform="matrix(0.4177 0.9086 -0.9086 0.4177 2205.5388 -2379.4072)"
   class="st20"
   width="146.09"
   height="113.35"
   id="rect13195" />
</g>
<g
   id="g13203">
	
		<rect
   x="3048.7"
   y="624.37"
   transform="matrix(0.6553 0.7553 -0.7553 0.6553 1560.7313 -2136.7097)"
   class="st0"
   width="146.09"
   height="35.01"
   id="rect13199" />
	
		<rect
   x="2992.67"
   y="633.81"
   transform="matrix(0.6553 0.7553 -0.7553 0.6553 1578.1395 -2077.6348)"
   class="st20"
   width="146.09"
   height="113.35"
   id="rect13201" />
</g>
<g
   id="g13209">
	
		<rect
   x="3190.71"
   y="757.36"
   transform="matrix(0.7963 0.605 -0.605 0.7963 1133.7565 -1816.5874)"
   class="st0"
   width="146.09"
   height="35.01"
   id="rect13205" />
	
		<rect
   x="3145.84"
   y="777.25"
   transform="matrix(0.7963 0.605 -0.605 0.7963 1160.3455 -1777.4044)"
   class="st20"
   width="146.09"
   height="113.35"
   id="rect13207" />
</g>
<g
   id="g13215">
	
		<rect
   x="3341.16"
   y="850.35"
   transform="matrix(0.8802 0.4746 -0.4746 0.8802 820.9258 -1516.446)"
   class="st0"
   width="146.09"
   height="35.01"
   id="rect13211" />
	
		<rect
   x="3305.96"
   y="876.47"
   transform="matrix(0.8802 0.4746 -0.4746 0.8802 847.6964 -1491.9147)"
   class="st20"
   width="146.09"
   height="113.35"
   id="rect13213" />
</g>
<g
   id="g13221">
	
		<rect
   x="3554.95"
   y="931.4"
   transform="matrix(0.9255 0.3788 -0.3788 0.9255 626.6526 -1287.2913)"
   class="st0"
   width="59.68"
   height="35.01"
   id="rect13217" />
	
		<rect
   x="3526.85"
   y="960.88"
   transform="matrix(0.9255 0.3788 -0.3788 0.9255 650.5648 -1271.5292)"
   class="st20"
   width="59.68"
   height="113.35"
   id="rect13219" />
</g>
<g
   id="g13227">
	
		<rect
   x="3658.53"
   y="968.87"
   transform="matrix(0.9529 0.3032 -0.3032 0.9529 472.7827 -1072.0272)"
   class="st0"
   width="59.68"
   height="35.01"
   id="rect13223" />
	
		<rect
   x="3636.04"
   y="1000.38"
   transform="matrix(0.9529 0.3032 -0.3032 0.9529 493.1586 -1061.8776)"
   class="st20"
   width="59.68"
   height="113.35"
   id="rect13225" />
</g>
<g
   id="g13233">
	
		<rect
   x="3772.32"
   y="999.61"
   transform="matrix(0.9792 0.2029 -0.2029 0.9792 285.4751 -750.3318)"
   class="st0"
   width="59.68"
   height="35.01"
   id="rect13229" />
	
		<rect
   x="3757.27"
   y="1033.08"
   transform="matrix(0.9792 0.2029 -0.2029 0.9792 299.9004 -745.7667)"
   class="st20"
   width="59.68"
   height="113.35"
   id="rect13231" />
</g>
<g
   id="g13239">
	
		<rect
   x="3883.02"
   y="1015.6"
   transform="matrix(0.9995 0.0312 -0.0312 0.9995 34.1347 -121.5678)"
   class="st0"
   width="59.68"
   height="35.01"
   id="rect13235" />
	
		<rect
   x="3880.7"
   y="1050.57"
   transform="matrix(0.9995 0.0312 -0.0312 0.9995 36.4467 -121.4596)"
   class="st20"
   width="59.68"
   height="113.35"
   id="rect13237" />
</g>
<text
   transform="matrix(1 0 0 1 2523.9121 1642.3455)"
   class="st3 st4"
   id="text13241">Medulla</text>
<g
   id="g13263">
	<text
   transform="matrix(1 0 0 1 1205.8779 1300.8738)"
   class="st21 st6"
   id="text13243">I</text>
	<text
   transform="matrix(1 0 0 1 1203.0098 1328.6689)"
   class="st21 st6"
   id="text13245">II</text>
	<text
   transform="matrix(1 0 0 1 1200.1416 1356.4636)"
   class="st21 st6"
   id="text13247">III</text>
	<text
   transform="matrix(1 0 0 1 1199.1816 1384.2578)"
   class="st21 st6"
   id="text13249">IV</text>
	<text
   transform="matrix(1 0 0 1 1202.0498 1412.0531)"
   class="st21 st6"
   id="text13251">V</text>
	<text
   transform="matrix(1 0 0 1 1199.1816 1439.8473)"
   class="st21 st6"
   id="text13253">VI</text>
	<text
   transform="matrix(1 0 0 1 1196.3135 1467.6421)"
   class="st21 st6"
   id="text13255">VII</text>
	<text
   transform="matrix(1 0 0 1 1193.4463 1495.4373)"
   class="st21 st6"
   id="text13257">VIII</text>
	<text
   transform="matrix(1 0 0 1 1199.0264 1523.2319)"
   class="st21 st6"
   id="text13259">IX</text>
	<text
   transform="matrix(1 0 0 1 1201.8936 1573.9038)"
   class="st21 st6"
   id="text13261">X</text>
</g>
<text
   transform="matrix(1 0 0 1 4030.8977 1026.3877)"
   class="st22 st17 st23"
   id="text13265">X</text>
<text
   transform="matrix(1 0 0 1 3598.4194 1717.0498)"
   class="st22 st17 st23"
   id="text13267">B</text>
<text
   transform="matrix(1 0 0 1 82.0631 393.6044)"
   class="st22 st17 st23"
   id="text13269">X: Esophagolaryngeal Junction</text>
<text
   transform="matrix(1 0 0 1 82.0632 288.8428)"
   class="st22 st17 st23"
   id="text13271">B: Buccal Aperture</text>
<text
   transform="matrix(1 0 0 1 82.0632 341.2237)"
   class="st22 st17 st23"
   id="text13273">R: Rectal Aperture</text>
<text
   transform="matrix(1 0 0 1 2197.8589 1910.2649)"
   class="st14 st17 st23"
   id="text13275">A</text>
<text
   transform="matrix(1 0 0 1 1378.4921 639.2261)"
   class="st14 st17 st23"
   id="text13277">P</text>
<text
   transform="matrix(1 0 0 1 551.96 1135.6514)"
   class="st14 st17 st23"
   id="text13279">S</text>
<text
   transform="matrix(1 0 0 1 2996.0364 1453.8794)"
   class="st14 st17 st23"
   id="text13281">L</text>
<text
   transform="matrix(1 0 0 1 82.0635 236.4615)"
   class="st14 st17 st23"
   id="text13283">S: Systemic Capillary</text>
<text
   transform="matrix(1 0 0 1 82.0631 79.3187)"
   class="st14 st17 st23"
   id="text13285">A: Aortic Valve</text>
<text
   transform="matrix(1 0 0 1 82.0631 184.0808)"
   class="st14 st17 st23"
   id="text13287">P: Pulmonary Valve</text>
<text
   transform="matrix(1 0 0 1 82.0635 131.6997)"
   class="st14 st17 st23"
   id="text13289">L: Lung Capillary</text>
<circle
   class="st22"
   cx="3592.19"
   cy="1662.11"
   r="14.19"
   id="circle13291" />
<text
   transform="matrix(1 0 0 1 212.6759 1089.7526)"
   class="st22 st17 st23"
   id="text13293">R</text>
<circle
   class="st22"
   cx="252.35"
   cy="1042.62"
   r="14.19"
   id="circle13295" />
<g
   id="g13299">
	<path
   class="st24"
   d="M3030.53,244.81c-225.45,423.64,720,860.96,970.91,778.81"
   id="path13297" />
</g>
<circle
   class="st22"
   cx="4001.44"
   cy="1026.19"
   r="14.19"
   id="circle13301" />
<circle
   class="st22"
   cx="3029.62"
   cy="252.18"
   r="14.19"
   id="circle13303" />
<path
   class="st25"
   d="M574.38,639.23c-126.41,0-228.88,116.2-228.88,259.53h457.75C803.26,755.42,700.79,639.23,574.38,639.23z"
   id="path13305" />
<path
   class="st26"
   d="M574.38,718.04c-88.02,0-159.38,80.91-159.38,180.72h318.75C733.76,798.95,662.4,718.04,574.38,718.04z"
   id="path13307" />
<circle
   class="st14"
   cx="609.62"
   cy="1152.46"
   r="34.26"
   id="circle13309" />
<g
   id="g13327">
	<path
   class="st27"
   d="M2954.21,501.86c-25.96,0-47.01,19.19-47.01,42.86h94.01C3001.21,521.05,2980.17,501.86,2954.21,501.86z"
   id="path13311" />
	<path
   class="st28"
   d="M2954.21,514.87c-18.08,0-32.73,13.36-32.73,29.85h65.46C2986.94,528.23,2972.29,514.87,2954.21,514.87z"
   id="path13313" />
	
		<rect
   x="2937.23"
   y="504.82"
   transform="matrix(0.954 -0.2998 0.2998 0.954 -18.1246 904.5014)"
   class="st29"
   width="3.34"
   height="13.02"
   id="rect13315" />
	
		<rect
   x="2940.19"
   y="517.38"
   transform="matrix(0.954 -0.2998 0.2998 0.954 -20.805 905.8183)"
   class="st29"
   width="3.34"
   height="6.68"
   id="rect13317" />
	
		<rect
   x="2934"
   y="496.75"
   transform="matrix(0.954 -0.2998 0.2998 0.954 -15.1885 903.0589)"
   class="st29"
   width="3.34"
   height="8.56"
   id="rect13319" />
	
		<rect
   x="2966.79"
   y="504.05"
   transform="matrix(-0.954 -0.2998 0.2998 -0.954 5647.3721 1887.4929)"
   class="st30"
   width="3.34"
   height="13.02"
   id="rect13321" />
	
		<rect
   x="2963.84"
   y="516.62"
   transform="matrix(-0.954 -0.2998 0.2998 -0.954 5638.7876 1904.9646)"
   class="st30"
   width="3.34"
   height="6.68"
   id="rect13323" />
	
		<rect
   x="2970.03"
   y="495.99"
   transform="matrix(-0.954 -0.2998 0.2998 -0.954 5656.7749 1868.3544)"
   class="st30"
   width="3.34"
   height="8.56"
   id="rect13325" />
</g>
<g
   id="g13345">
	<path
   class="st27"
   d="M3970.55,81.83c-70.63,0-127.88,52.2-127.88,116.6h255.76C4098.43,134.04,4041.18,81.83,3970.55,81.83z"
   id="path13329" />
	<path
   class="st28"
   d="M3970.55,117.24c-49.18,0-89.05,36.35-89.05,81.19h178.09C4059.6,153.59,4019.73,117.24,3970.55,117.24z"
   id="path13331" />
	
		<rect
   x="3924.38"
   y="89.88"
   transform="matrix(0.954 -0.2998 0.2998 0.954 148.4315 1182.7101)"
   class="st29"
   width="9.1"
   height="35.41"
   id="rect13333" />
	
		<rect
   x="3932.41"
   y="124.06"
   transform="matrix(0.954 -0.2998 0.2998 0.954 141.1396 1186.2926)"
   class="st29"
   width="9.1"
   height="18.17"
   id="rect13335" />
	
		<rect
   x="3915.58"
   y="67.95"
   transform="matrix(0.954 -0.2998 0.2998 0.954 156.4189 1178.7858)"
   class="st29"
   width="9.1"
   height="23.28"
   id="rect13337" />
	
		<rect
   x="4004.8"
   y="87.81"
   transform="matrix(-0.954 -0.2998 0.2998 -0.954 7802.6836 1408.0469)"
   class="st30"
   width="9.1"
   height="35.41"
   id="rect13339" />
	
		<rect
   x="3996.77"
   y="121.99"
   transform="matrix(-0.954 -0.2998 0.2998 -0.954 7779.3306 1455.5784)"
   class="st30"
   width="9.1"
   height="18.17"
   id="rect13341" />
	
		<rect
   x="4013.59"
   y="65.88"
   transform="matrix(-0.954 -0.2998 0.2998 -0.954 7828.2642 1355.9811)"
   class="st30"
   width="9.1"
   height="23.28"
   id="rect13343" />
</g>
<g
   id="g13363">
	<path
   class="st27"
   d="M3057.51,651.66c-25.96,0-47.01,19.19-47.01,42.86h94.01C3104.52,670.85,3083.47,651.66,3057.51,651.66z"
   id="path13347" />
	<path
   class="st28"
   d="M3057.51,664.68c-18.08,0-32.73,13.36-32.73,29.85h65.46C3090.25,678.04,3075.59,664.68,3057.51,664.68z"
   id="path13349" />
	
		<rect
   x="3040.54"
   y="654.62"
   transform="matrix(0.954 -0.2998 0.2998 0.954 -58.281 942.3584)"
   class="st29"
   width="3.34"
   height="13.02"
   id="rect13351" />
	
		<rect
   x="3043.49"
   y="667.18"
   transform="matrix(0.954 -0.2998 0.2998 0.954 -60.9614 943.6753)"
   class="st29"
   width="3.34"
   height="6.68"
   id="rect13353" />
	
		<rect
   x="3037.31"
   y="646.56"
   transform="matrix(0.954 -0.2998 0.2998 0.954 -55.345 940.9159)"
   class="st29"
   width="3.34"
   height="8.56"
   id="rect13355" />
	
		<rect
   x="3070.1"
   y="653.86"
   transform="matrix(-0.954 -0.2998 0.2998 -0.954 5804.3262 2211.1855)"
   class="st30"
   width="3.34"
   height="13.02"
   id="rect13357" />
	
		<rect
   x="3067.15"
   y="666.42"
   transform="matrix(-0.954 -0.2998 0.2998 -0.954 5795.7417 2228.6575)"
   class="st30"
   width="3.34"
   height="6.68"
   id="rect13359" />
	
		<rect
   x="3073.33"
   y="645.8"
   transform="matrix(-0.954 -0.2998 0.2998 -0.954 5813.729 2192.0471)"
   class="st30"
   width="3.34"
   height="8.56"
   id="rect13361" />
</g>
<g
   id="g13381">
	<path
   class="st27"
   d="M3224.75,807.85c-25.96,0-47.01,19.19-47.01,42.86h94.01C3271.76,827.04,3250.71,807.85,3224.75,807.85z"
   id="path13365" />
	<path
   class="st28"
   d="M3224.75,820.87c-18.08,0-32.73,13.36-32.73,29.85h65.46C3257.49,834.23,3242.83,820.87,3224.75,820.87z"
   id="path13367" />
	
		<rect
   x="3207.78"
   y="810.81"
   transform="matrix(0.954 -0.2998 0.2998 0.954 -97.4102 999.674)"
   class="st29"
   width="3.34"
   height="13.02"
   id="rect13369" />
	
		<rect
   x="3210.73"
   y="823.37"
   transform="matrix(0.954 -0.2998 0.2998 0.954 -100.0905 1000.9908)"
   class="st29"
   width="3.34"
   height="6.68"
   id="rect13371" />
	
		<rect
   x="3204.55"
   y="802.75"
   transform="matrix(0.954 -0.2998 0.2998 0.954 -94.4741 998.2314)"
   class="st29"
   width="3.34"
   height="8.56"
   id="rect13373" />
	
		<rect
   x="3237.34"
   y="810.05"
   transform="matrix(-0.954 -0.2998 0.2998 -0.954 6084.2939 2566.5122)"
   class="st30"
   width="3.34"
   height="13.02"
   id="rect13375" />
	
		<rect
   x="3234.39"
   y="822.61"
   transform="matrix(-0.954 -0.2998 0.2998 -0.954 6075.71 2583.9839)"
   class="st30"
   width="3.34"
   height="6.68"
   id="rect13377" />
	
		<rect
   x="3240.57"
   y="801.99"
   transform="matrix(-0.954 -0.2998 0.2998 -0.954 6093.6968 2547.3735)"
   class="st30"
   width="3.34"
   height="8.56"
   id="rect13379" />
</g>
<g
   id="g13399">
	<path
   class="st27"
   d="M3379,901.99c-25.96,0-47.01,19.19-47.01,42.86h94.01C3426.01,921.18,3404.96,901.99,3379,901.99z"
   id="path13383" />
	<path
   class="st28"
   d="M3379,915.01c-18.08,0-32.73,13.36-32.73,29.85h65.46C3411.73,928.37,3397.08,915.01,3379,915.01z"
   id="path13385" />
	
		<rect
   x="3362.03"
   y="904.95"
   transform="matrix(0.954 -0.2998 0.2998 0.954 -118.5369 1050.2416)"
   class="st29"
   width="3.34"
   height="13.02"
   id="rect13387" />
	
		<rect
   x="3364.98"
   y="917.51"
   transform="matrix(0.954 -0.2998 0.2998 0.954 -121.2173 1051.5585)"
   class="st29"
   width="3.34"
   height="6.68"
   id="rect13389" />
	
		<rect
   x="3358.79"
   y="896.89"
   transform="matrix(0.954 -0.2998 0.2998 0.954 -115.6008 1048.7991)"
   class="st29"
   width="3.34"
   height="8.56"
   id="rect13391" />
	
		<rect
   x="3391.59"
   y="904.19"
   transform="matrix(-0.954 -0.2998 0.2998 -0.954 6357.4756 2796.7021)"
   class="st30"
   width="3.34"
   height="13.02"
   id="rect13393" />
	
		<rect
   x="3388.64"
   y="916.75"
   transform="matrix(-0.954 -0.2998 0.2998 -0.954 6348.8916 2814.1741)"
   class="st30"
   width="3.34"
   height="6.68"
   id="rect13395" />
	
		<rect
   x="3394.82"
   y="896.13"
   transform="matrix(-0.954 -0.2998 0.2998 -0.954 6366.8784 2777.5637)"
   class="st30"
   width="3.34"
   height="8.56"
   id="rect13397" />
</g>
<g
   id="g13437">
	<g
   id="g13417">
		<path
   class="st27"
   d="M543.26,777.55c-29.8,0-53.95,19.19-53.95,42.86h107.9C597.21,796.74,573.05,777.55,543.26,777.55z"
   id="path13401" />
		<path
   class="st31"
   d="M543.26,790.56c-20.75,0-37.57,13.36-37.57,29.85h75.14C580.82,803.93,564,790.56,543.26,790.56z"
   id="path13403" />
		<rect
   x="540.88"
   y="777.55"
   class="st32"
   width="3.34"
   height="13.02"
   id="rect13405" />
		
			<rect
   x="544.22"
   y="777.55"
   transform="matrix(-1 -1.224647e-16 1.224647e-16 -1 1091.2249 1568.113)"
   class="st33"
   width="2.78"
   height="13.02"
   id="rect13407" />
		<rect
   x="540.88"
   y="790.56"
   class="st32"
   width="3.34"
   height="6.68"
   id="rect13409" />
		
			<rect
   x="544.22"
   y="790.56"
   transform="matrix(-1 -1.224647e-16 1.224647e-16 -1 1091.2249 1587.8074)"
   class="st33"
   width="2.78"
   height="6.68"
   id="rect13411" />
		<rect
   x="540.88"
   y="768.99"
   class="st32"
   width="3.34"
   height="8.56"
   id="rect13413" />
		
			<rect
   x="544.22"
   y="768.99"
   transform="matrix(-1 -1.224647e-16 1.224647e-16 -1 1091.2249 1546.5398)"
   class="st33"
   width="2.78"
   height="8.56"
   id="rect13415" />
	</g>
	<g
   id="g13435">
		<path
   class="st27"
   d="M543.26,777.55c-29.8,0-53.95,19.19-53.95,42.86h107.9C597.21,796.74,573.05,777.55,543.26,777.55z"
   id="path13419" />
		<path
   class="st31"
   d="M543.26,790.56c-20.75,0-37.57,13.36-37.57,29.85h75.14C580.82,803.93,564,790.56,543.26,790.56z"
   id="path13421" />
		<rect
   x="540.88"
   y="777.55"
   class="st32"
   width="3.34"
   height="13.02"
   id="rect13423" />
		
			<rect
   x="544.22"
   y="777.55"
   transform="matrix(-1 -1.224647e-16 1.224647e-16 -1 1091.2249 1568.113)"
   class="st33"
   width="2.78"
   height="13.02"
   id="rect13425" />
		<rect
   x="540.88"
   y="790.56"
   class="st32"
   width="3.34"
   height="6.68"
   id="rect13427" />
		
			<rect
   x="544.22"
   y="790.56"
   transform="matrix(-1 -1.224647e-16 1.224647e-16 -1 1091.2249 1587.8074)"
   class="st33"
   width="2.78"
   height="6.68"
   id="rect13429" />
		<rect
   x="540.88"
   y="768.99"
   class="st32"
   width="3.34"
   height="8.56"
   id="rect13431" />
		
			<rect
   x="544.22"
   y="768.99"
   transform="matrix(-1 -1.224647e-16 1.224647e-16 -1 1091.2249 1546.5398)"
   class="st33"
   width="2.78"
   height="8.56"
   id="rect13433" />
	</g>
</g>
<g
   id="g13445">
	<circle
   class="st34"
   cx="1240.77"
   cy="1463.73"
   r="5.67"
   id="circle13439" />
	<path
   class="st35"
   d="M1240.77,1463.73c9.2,0,44.98-1.2,44.98-5.53v0.47v-220.36c0-14.87-53.93-37.68-53.93-47.23s0-28.82,0-34.36   s17.96-27.76,27.27-31.4s3.1-21.81-0.89-26.91s-7.22-7.98-10.59-7.98c-11.71,0-24.15,22.16-33.52,34.89   c-8.37,11.36-20.99,8.07-22.29,0V843.94c0-18.92-60.33-74.95-192.15-74.95"
   id="path13441" />
	<path
   class="st35"
   d="M1214.09,1125.32c-8.37,11.36-20.99,8.07-22.29,0V843.94c0-18.92-60.33-74.95-192.15-74.95"
   id="path13443" />
</g>
<g
   id="g13453">
	<circle
   class="st34"
   cx="1328.11"
   cy="1463.73"
   r="5.67"
   id="circle13447" />
	<path
   class="st35"
   d="M1328.11,1463.73c9.2,0,44.98-1.2,44.98-5.53v0.47v-220.36c0-14.87-53.93-37.68-53.93-47.23s0-28.82,0-34.36   s17.96-27.76,27.27-31.4s3.1-21.81-0.89-26.91c-3.99-5.1-7.22-7.98-10.59-7.98c-11.71,0-24.15,22.16-33.52,34.89   c-8.37,11.36-20.99,8.07-22.29,0V843.94c0-18.92-60.33-74.95-192.15-74.95"
   id="path13449" />
	<path
   class="st35"
   d="M1301.42,1125.32c-8.37,11.36-20.99,8.07-22.29,0V843.94c0-18.92-60.33-74.95-192.15-74.95"
   id="path13451" />
</g>
<g
   id="g13461">
	<circle
   class="st34"
   cx="1416.12"
   cy="1463.73"
   r="5.67"
   id="circle13455" />
	<path
   class="st35"
   d="M1416.12,1463.73c9.2,0,44.98-1.2,44.98-5.53v0.47v-220.36c0-14.87-53.93-37.68-53.93-47.23s0-28.82,0-34.36   s17.96-27.76,27.27-31.4c9.31-3.63,3.1-21.81-0.89-26.91s-7.22-7.98-10.59-7.98c-11.71,0-24.15,22.16-33.52,34.89   c-8.37,11.36-20.99,8.07-22.29,0V843.94c0-18.92-60.33-74.95-192.15-74.95"
   id="path13457" />
	<path
   class="st35"
   d="M1389.43,1125.32c-8.37,11.36-20.99,8.07-22.29,0V843.94c0-18.92-60.33-74.95-192.15-74.95"
   id="path13459" />
</g>
<g
   id="g13469">
	<circle
   class="st34"
   cx="1503.45"
   cy="1463.73"
   r="5.67"
   id="circle13463" />
	<path
   class="st35"
   d="M1503.45,1463.73c9.2,0,44.98-1.2,44.98-5.53v0.47v-220.36c0-14.87-53.93-37.68-53.93-47.23s0-28.82,0-34.36   s17.96-27.76,27.27-31.4s3.1-21.81-0.89-26.91s-7.22-7.98-10.59-7.98c-11.71,0-24.15,22.16-33.52,34.89   c-8.37,11.36-20.99,8.07-22.29,0V843.94c0-18.92-60.33-74.95-192.15-74.95"
   id="path13465" />
	<path
   class="st35"
   d="M1476.77,1125.32c-8.37,11.36-20.99,8.07-22.29,0V843.94c0-18.92-60.33-74.95-192.15-74.95"
   id="path13467" />
</g>
<g
   id="g13477">
	<circle
   class="st34"
   cx="1590.27"
   cy="1463.73"
   r="5.67"
   id="circle13471" />
	<path
   class="st35"
   d="M1590.27,1463.73c9.2,0,44.98-1.2,44.98-5.53v0.47v-220.36c0-14.87-53.93-37.68-53.93-47.23s0-28.82,0-34.36   s17.96-27.76,27.27-31.4s3.1-21.81-0.89-26.91s-7.22-7.98-10.59-7.98c-11.71,0-24.15,22.16-33.52,34.89   c-8.37,11.36-20.99,8.07-22.29,0V843.94c0-18.92-60.33-74.95-192.15-74.95"
   id="path13473" />
	<path
   class="st35"
   d="M1563.58,1125.32c-8.37,11.36-20.99,8.07-22.29,0V843.94c0-18.92-60.33-74.95-192.15-74.95"
   id="path13475" />
</g>
<g
   id="g13485">
	<circle
   class="st34"
   cx="1677.6"
   cy="1463.73"
   r="5.67"
   id="circle13479" />
	<path
   class="st35"
   d="M1677.6,1463.73c9.2,0,44.98-1.2,44.98-5.53v0.47v-220.36c0-14.87-53.93-37.68-53.93-47.23s0-28.82,0-34.36   s17.96-27.76,27.27-31.4s3.1-21.81-0.89-26.91s-7.22-7.98-10.59-7.98c-11.71,0-24.15,22.16-33.52,34.89   c-8.37,11.36-20.99,8.07-22.29,0V843.94c0-18.92-60.33-74.95-192.15-74.95"
   id="path13481" />
	<path
   class="st35"
   d="M1650.92,1125.32c-8.37,11.36-20.99,8.07-22.29,0V843.94c0-18.92-60.33-74.95-192.15-74.95"
   id="path13483" />
</g>
<g
   id="g13493">
	<circle
   class="st34"
   cx="1765.61"
   cy="1463.73"
   r="5.67"
   id="circle13487" />
	<path
   class="st35"
   d="M1765.61,1463.73c9.2,0,44.98-1.2,44.98-5.53v0.47v-220.36c0-14.87-53.93-37.68-53.93-47.23s0-28.82,0-34.36   s17.96-27.76,27.27-31.4s3.1-21.81-0.89-26.91c-3.99-5.1-7.22-7.98-10.59-7.98c-11.71,0-24.15,22.16-33.52,34.89   c-8.37,11.36-20.99,8.07-22.29,0V843.94c0-18.92-60.33-74.95-192.15-74.95"
   id="path13489" />
	<path
   class="st35"
   d="M1738.93,1125.32c-8.37,11.36-20.99,8.07-22.29,0V843.94c0-18.92-60.33-74.95-192.15-74.95"
   id="path13491" />
</g>
<g
   id="g13501">
	<circle
   class="st34"
   cx="1852.95"
   cy="1463.73"
   r="5.67"
   id="circle13495" />
	<path
   class="st35"
   d="M1852.95,1463.73c9.2,0,44.98-1.2,44.98-5.53v0.47v-220.36c0-14.87-53.93-37.68-53.93-47.23s0-28.82,0-34.36   s17.96-27.76,27.27-31.4s3.1-21.81-0.89-26.91s-7.22-7.98-10.59-7.98c-11.71,0-24.15,22.16-33.52,34.89   c-8.37,11.36-20.99,8.07-22.29,0V843.94c0-18.92-60.33-74.95-192.15-74.95"
   id="path13497" />
	<path
   class="st35"
   d="M1826.26,1125.32c-8.37,11.36-20.99,8.07-22.29,0V843.94c0-18.92-60.33-74.95-192.15-74.95"
   id="path13499" />
</g>
<g
   id="g13509">
	<circle
   class="st34"
   cx="1936.32"
   cy="1463.73"
   r="5.67"
   id="circle13503" />
	<path
   class="st35"
   d="M1936.32,1463.73c9.2,0,44.98-1.2,44.98-5.53v0.47v-220.36c0-14.87-53.93-37.68-53.93-47.23s0-28.82,0-34.36   s17.96-27.76,27.27-31.4s3.1-21.81-0.89-26.91c-3.99-5.1-7.22-7.98-10.59-7.98c-11.71,0-24.15,22.16-33.52,34.89   c-8.37,11.36-20.99,8.07-22.29,0V843.94c0-18.92-60.33-74.95-192.15-74.95"
   id="path13505" />
	<path
   class="st35"
   d="M1909.64,1125.32c-8.37,11.36-20.99,8.07-22.29,0V843.94c0-18.92-60.33-74.95-192.15-74.95"
   id="path13507" />
</g>
<g
   id="g13517">
	<circle
   class="st34"
   cx="2023.65"
   cy="1463.73"
   r="5.67"
   id="circle13511" />
	<path
   class="st35"
   d="M2023.65,1463.73c9.2,0,44.98-1.2,44.98-5.53v0.47v-220.36c0-14.87-53.93-37.68-53.93-47.23s0-28.82,0-34.36   s17.96-27.76,27.27-31.4c9.31-3.63,3.1-21.81-0.89-26.91s-7.22-7.98-10.59-7.98c-11.71,0-24.15,22.16-33.52,34.89   c-8.37,11.36-20.99,8.07-22.29,0V843.94c0-18.92-60.33-74.95-192.15-74.95"
   id="path13513" />
	<path
   class="st35"
   d="M1996.97,1125.32c-8.37,11.36-20.99,8.07-22.29,0V843.94c0-18.92-60.33-74.95-192.15-74.95"
   id="path13515" />
</g>
<g
   id="g13525">
	<circle
   class="st34"
   cx="2111.67"
   cy="1463.73"
   r="5.67"
   id="circle13519" />
	<path
   class="st35"
   d="M2111.67,1463.73c9.2,0,44.98-1.2,44.98-5.53v0.47v-220.36c0-14.87-53.93-37.68-53.93-47.23s0-28.82,0-34.36   s17.96-27.76,27.27-31.4c9.31-3.63,3.1-21.81-0.89-26.91s-7.22-7.98-10.59-7.98c-11.71,0-24.15,22.16-33.52,34.89   c-8.37,11.36-20.99,8.07-22.29,0V843.94c0-18.92-60.33-74.95-192.15-74.95"
   id="path13521" />
	<path
   class="st35"
   d="M2084.98,1125.32c-8.37,11.36-20.99,8.07-22.29,0V843.94c0-18.92-60.33-74.95-192.15-74.95"
   id="path13523" />
</g>
<g
   id="g13533">
	<circle
   class="st34"
   cx="2199"
   cy="1463.73"
   r="5.67"
   id="circle13527" />
	<path
   class="st35"
   d="M2199,1463.73c9.2,0,44.98-1.2,44.98-5.53v0.47v-220.36c0-14.87-53.93-37.68-53.93-47.23s0-28.82,0-34.36   s17.96-27.76,27.27-31.4c9.31-3.63,3.1-21.81-0.89-26.91s-7.22-7.98-10.59-7.98c-11.71,0-24.15,22.16-33.52,34.89   c-8.37,11.36-20.99,8.07-22.29,0V843.94c0-18.92-60.33-74.95-192.15-74.95"
   id="path13529" />
	<path
   class="st35"
   d="M2172.31,1125.32c-8.37,11.36-20.99,8.07-22.29,0V843.94c0-18.92-60.33-74.95-192.15-74.95"
   id="path13531" />
</g>
<g
   id="g13541">
	<circle
   class="st34"
   cx="2285.82"
   cy="1463.73"
   r="5.67"
   id="circle13535" />
	<path
   class="st35"
   d="M2285.82,1463.73c9.2,0,44.98-1.2,44.98-5.53v0.47v-220.36c0-14.87-53.93-37.68-53.93-47.23s0-28.82,0-34.36   s17.96-27.76,27.27-31.4c9.31-3.63,3.1-21.81-0.89-26.91c-3.99-5.1-7.22-7.98-10.59-7.98c-11.71,0-24.15,22.16-33.52,34.89   c-8.37,11.36-20.99,8.07-22.29,0V843.94c0-18.92-60.33-74.95-192.15-74.95"
   id="path13537" />
	<path
   class="st35"
   d="M2259.13,1125.32c-8.37,11.36-20.99,8.07-22.29,0V843.94c0-18.92-60.33-74.95-192.15-74.95"
   id="path13539" />
</g>
<g
   id="g13549">
	<circle
   class="st34"
   cx="2373.15"
   cy="1463.73"
   r="5.67"
   id="circle13543" />
	<path
   class="st35"
   d="M2373.15,1463.73c9.2,0,44.98-1.2,44.98-5.53v0.47v-220.36c0-14.87-53.93-37.68-53.93-47.23s0-28.82,0-34.36   s17.96-27.76,27.27-31.4c9.31-3.63,3.1-21.81-0.89-26.91s-7.22-7.98-10.59-7.98c-11.71,0-24.15,22.16-33.52,34.89   c-8.37,11.36-20.99,8.07-22.29,0V843.94c0-18.92-60.33-74.95-192.15-74.95"
   id="path13545" />
	<path
   class="st35"
   d="M2346.46,1125.32c-8.37,11.36-20.99,8.07-22.29,0V843.94c0-18.92-60.33-74.95-192.15-74.95"
   id="path13547" />
</g>
<g
   id="g13559">
	<g
   id="g13557">
		<line
   class="st35"
   x1="2132.02"
   y1="768.99"
   x2="614.87"
   y2="768.99"
   id="line13551" />
		<g
   id="g13555">
			<rect
   x="613.37"
   y="759.24"
   class="st34"
   width="3"
   height="19.5"
   id="rect13553" />
		</g>
	</g>
</g>
<g
   id="g13569">
	<g
   id="g13567">
		<path
   class="st15"
   d="M2550.97,1360.77c0-229.21,128.2-283.48,412.56-283.48c114.98,0,448.48,12.39,443-88.43"
   id="path13561" />
		<g
   id="g13565">
			
				<rect
   x="3400"
   y="987.86"
   transform="matrix(0.9997 -0.0242 0.0242 0.9997 -22.9057 82.6248)"
   class="st36"
   width="13"
   height="2"
   id="rect13563" />
		</g>
	</g>
</g>
<circle
   class="st36"
   cx="2551.04"
   cy="1364.29"
   r="5.67"
   id="circle13571" />
<g
   id="g13581">
	<g
   id="g13579">
		<path
   class="st15"
   d="M3079.61,1077.29c38.52-3.41,165.21-73.81,163.21-174.2"
   id="path13573" />
		<g
   id="g13577">
			
				<rect
   x="3241.79"
   y="896.59"
   transform="matrix(0.0114 -0.9999 0.9999 0.0114 2302.9443 4135.4106)"
   class="st36"
   width="2"
   height="13"
   id="rect13575" />
		</g>
	</g>
</g>
<g
   id="g13591">
	<g
   id="g13589">
		<path
   class="st15"
   d="M3063.39,1077.75c41.94-0.41,71-189.13,30.96-338.3"
   id="path13583" />
		<g
   id="g13587">
			
				<rect
   x="3087.83"
   y="738.46"
   transform="matrix(0.9692 -0.2465 0.2465 0.9692 -86.7956 785.443)"
   class="st36"
   width="13"
   height="2"
   id="rect13585" />
		</g>
	</g>
</g>
<g
   id="g13601">
	<g
   id="g13599">
		<path
   class="st15"
   d="M3033.8,1077.29c38.65-0.56-105.21-299.52-111.65-375.49c-6.27-73.94,16.61-92.87,27.08-99.77"
   id="path13593" />
		<g
   id="g13597">
			
				<rect
   x="2948.24"
   y="595.55"
   transform="matrix(0.8188 -0.5741 0.5741 0.8188 188.8764 1802.4171)"
   class="st36"
   width="2"
   height="13"
   id="rect13595" />
		</g>
	</g>
</g>
<text
   transform="matrix(1 -9.900000e-04 9.900000e-04 1 487.868 834.9536)"
   id="text13607"><tspan
     x="0"
     y="0"
     class="st17 st19"
     id="tspan13603">CHROMAFFIN</tspan><tspan
     x="34.21"
     y="16"
     class="st17 st19"
     id="tspan13605">CELL</tspan></text>
<path
   class="st37"
   d="M696.62,1502.57c-978.07-1002.47,251-697.08,594.95-794.6"
   id="path13609" />
<g
   id="g13627">
	<g
   id="g13615">
		
			<rect
   x="3392.31"
   y="972.72"
   transform="matrix(0.8802 0.4746 -0.4746 0.8802 876.2504 -1498.3678)"
   class="st38"
   width="27.5"
   height="27.5"
   id="rect13611" />
		<circle
   class="st22"
   cx="3404.91"
   cy="979.18"
   r="5.67"
   id="circle13613" />
	</g>
	<g
   id="g13625">
		<g
   id="g13623">
			<path
   class="st39"
   d="M3395.32,951.42c4.88,5.44,10.21,16.43,10.47,27.42"
   id="path13617" />
			<g
   id="g13621">
				
					<rect
   x="3388.79"
   y="950.45"
   transform="matrix(0.7557 -0.6549 0.6549 0.7557 206.2995 2455.9734)"
   class="st22"
   width="13"
   height="2"
   id="rect13619" />
			</g>
		</g>
	</g>
</g>
<g
   id="g13645">
	<g
   id="g13633">
		
			<rect
   x="3226.69"
   y="883.29"
   transform="matrix(0.7898 0.6134 -0.6134 0.7898 1231.5494 -1799.1598)"
   class="st38"
   width="27.5"
   height="27.5"
   id="rect13629" />
		<circle
   class="st22"
   cx="3240.51"
   cy="889.65"
   r="5.67"
   id="circle13631" />
	</g>
	<g
   id="g13643">
		<g
   id="g13641">
			<path
   class="st39"
   d="M3235.63,860.69c3.91,6.17,7.36,17.89,5.8,28.77"
   id="path13635" />
			<g
   id="g13639">
				
					<rect
   x="3229.1"
   y="859.72"
   transform="matrix(0.8535 -0.5211 0.5211 0.8535 25.5301 1812.2382)"
   class="st22"
   width="13"
   height="2"
   id="rect13637" />
			</g>
		</g>
	</g>
</g>
<g
   id="g13663">
	<g
   id="g13651">
		
			<rect
   x="3076.9"
   y="724.16"
   transform="matrix(0.6301 0.7765 -0.7765 0.6301 1716.2898 -2127.0115)"
   class="st38"
   width="27.5"
   height="27.5"
   id="rect13647" />
		<circle
   class="st22"
   cx="3092.39"
   cy="730.73"
   r="5.67"
   id="circle13649" />
	</g>
	<g
   id="g13661">
		<g
   id="g13659">
			<path
   class="st39"
   d="M3094.21,701.42c2.41,6.9,3.11,19.09-0.88,29.34"
   id="path13653" />
			<g
   id="g13657">
				
					<rect
   x="3087.68"
   y="700.44"
   transform="matrix(0.9494 -0.3141 0.3141 0.9494 -63.7324 1007.2991)"
   class="st22"
   width="13"
   height="2"
   id="rect13655" />
			</g>
		</g>
	</g>
</g>
<g
   id="g13681">
	<g
   id="g13669">
		
			<rect
   x="2939.03"
   y="582.09"
   transform="matrix(0.4142 0.9102 -0.9102 0.4142 2272.0295 -2338.5308)"
   class="st38"
   width="27.5"
   height="27.5"
   id="rect13665" />
		<circle
   class="st22"
   cx="2956.27"
   cy="589.33"
   r="5.67"
   id="circle13667" />
	</g>
	<g
   id="g13679">
		<g
   id="g13677">
			<path
   class="st39"
   d="M2965.42,561.43c0.6,7.29-1.8,19.26-8.24,28.17"
   id="path13671" />
			<g
   id="g13675">
				
					<rect
   x="2958.88"
   y="560.43"
   transform="matrix(0.9979 -0.0648 0.0648 0.9979 -30.1554 193.3951)"
   class="st22"
   width="13"
   height="2"
   id="rect13673" />
			</g>
		</g>
	</g>
</g>
<line
   class="st40"
   x1="4006.14"
   y1="1979.91"
   x2="4045.51"
   y2="1979.91"
   id="line13683" />
<line
   class="st41"
   x1="4006.14"
   y1="2002.32"
   x2="4045.51"
   y2="2002.32"
   id="line13685" />
<line
   class="st42"
   x1="4006.14"
   y1="2029.62"
   x2="4045.51"
   y2="2029.62"
   id="line13687" />
<line
   class="st43"
   x1="4006.14"
   y1="2052.04"
   x2="4045.51"
   y2="2052.04"
   id="line13689" />
<line
   class="st35"
   x1="4006.14"
   y1="2078.76"
   x2="4045.51"
   y2="2078.76"
   id="line13691" />
<line
   class="st44"
   x1="4006.14"
   y1="2101.18"
   x2="4045.51"
   y2="2101.18"
   id="line13693" />
<text
   transform="matrix(1 0 0 1 4055.7439 1982.7074)"
   class="st45 st46"
   id="text13695">1st order Sensory</text>
<text
   transform="matrix(1 0 0 1 4055.7439 2005.1223)"
   class="st47 st45 st46"
   id="text13697">Somatic Lower Motor</text>
<text
   transform="matrix(1 0 0 1 4055.7439 2032.4204)"
   class="st36 st45 st46"
   id="text13699">Parasympathetic Pre-Ganglionic</text>
<text
   transform="matrix(1 0 0 1 4055.7439 2054.8354)"
   class="st48 st45 st46"
   id="text13701">Parasympathetic Post-Ganglionic</text>
<text
   transform="matrix(1 0 0 1 4055.7439 2081.563)"
   class="st34 st45 st46"
   id="text13703">Sympathetic Pre-Ganglionic</text>
<text
   transform="matrix(1 0 0 1 4055.7439 2103.978)"
   class="st49 st45 st46"
   id="text13705">Sympathetic Post-Ganglionic</text>
<path
   class="st37"
   d="M2041.56,1860.67c-193.25,21.96-366.55,25.44-387.93,49.59c-21.39,24.16,20.22,77.87,405.66,72.44  s878.72,2.12,1031.36-257.9s332.65-660.19,347.15-725.45c60.96-274.3-358.19,18.2-544.49,208.64"
   id="path13707" />
<path
   class="st37"
   d="M2978.3,1839.48c172.08-82.36,305.32-817.36,308.95-937.39s-132.31-297.72-393.95,305.91"
   id="path13709" />
<path
   class="st37"
   d="M2981.71,1837.76c144.95-130.82,158.94-357.27,162.54-418.53c7.34-124.81-20.88-614.16-22.51-661.4  c-1.64-47.24-28.61-255.44-156.23-19.92s-75.16,410.73-72.2,470.08"
   id="path13711" />
<path
   class="st37"
   d="M2981.71,1837.76c90.12-135.01,180.86-415.45,140.03-647.51c-42.13-239.42-69.46-258.92-98.49-315.58  c-34.22-66.81-82.82-136.12-74.61-180.14c0,0,8.17-36.2,23.66-61.46c11.59-18.9,128.42-190.17-134.42-152.62  s5.78,553.52,55.43,727.54c39.04,136.82-349.45-292.69-480.36-387.68c-130.91-94.99-440.63-131.42-1067.12-82.4  c-156.55,12.25-8.79-40.32-8.79-40.32"
   id="path13713" />
<path
   class="st37"
   d="M2895.83,1226.92c18.55,98.57,35.64,375.48-178.26,472.74"
   id="path13715" />
<text
   transform="matrix(1 0 0 1 495.2534 682.6899)"
   class="st17 st19"
   id="text13717">ADRENAL CORTEX</text>
<text
   transform="matrix(1 0 0 1 879.8184 719.272)"
   class="st17 st19"
   id="text13719">SUPRARENAL VEINS</text>
<text
   transform="matrix(1 0 0 1 827.5981 793.8524)"
   class="st17 st19"
   id="text13721">SPLANCHNIC N.</text>
<text
   transform="matrix(0.9986 -0.0534 0.0534 0.9986 2409.0227 1964.7031)"
   class="st17 st19"
   id="text13723">BRONCHIAL ARTERY</text>
<text
   transform="matrix(0.9995 -0.0319 0.0319 0.9995 1631.0524 710.2828)"
   class="st17 st19"
   id="text13725">BRONCHIAL VEIN</text>
<text
   transform="matrix(0.9994 0.036 -0.036 0.9994 1855.3176 628.5454)"
   class="st17 st19"
   id="text13727">PULMONARY ARTERY</text>
<text
   transform="matrix(0.9983 -0.0586 0.0586 0.9983 2050.3523 1852.0223)"
   class="st17 st19"
   id="text13729">AORTA</text>
<text
   transform="matrix(0.9493 -0.3143 0.3143 0.9493 2484.8708 1775.0909)"
   class="st17 st19"
   id="text13731">PULMONARY VEIN</text>
<text
   transform="matrix(0.7166 -0.6975 0.6975 0.7166 2573.363 1182.7852)"
   class="st17 st19"
   id="text13733">VAGUS N.</text>
<text
   transform="matrix(1 0 0 1 3880.9849 237.9865)"
   id="text13739"><tspan
     x="0"
     y="0"
     class="st17 st23"
     id="tspan13735">Respiratory</tspan><tspan
     x="-26.52"
     y="36"
     class="st17 st23"
     id="tspan13737">Smooth Muscle</tspan></text>
<text
   transform="matrix(1 0 0 1 4020.4482 57.6866)"
   class="st17 st23"
   id="text13741">beta-ADR</text>
<text
   transform="matrix(1 0 0 1 3797.6838 57.6866)"
   class="st17 st23"
   id="text13743">mAchR</text>
<text
   transform="matrix(0.6093 0.7929 -0.7929 0.6093 405.4326 1204.382)"
   class="st17 st19"
   id="text13745">SUPRARENAL ARTERIES</text>
<text
   transform="matrix(1 0 0 1 550.3763 773.2698)"
   class="st17 st19"
   id="text13747">nAchR</text>
<text
   transform="matrix(1 0 0 1 563.8059 893.4238)"
   class="st17 st19"
   id="text13749">ADRENAL MEDULLA</text>
<rect
   x="3767.49"
   y="16.05"
   class="st38"
   width="422.78"
   height="291.84"
   id="rect13751" />
<text
   class="st35 st36 st37"
   id="text816"
   x="1221.5352"
   y="900.53961"
   style="font-size:36px;font-family:CourierNewPS-BoldMT;fill:#ec008c">1</text><text
   class="st35 st36 st37"
   id="text780"
   x="2660.2712"
   y="1182.2333"
   style="font-size:36px;font-family:CourierNewPS-BoldMT;fill:#ec008c">2</text><text
   class="st35 st36 st37"
   id="text780-3"
   x="3422.354"
   y="839.90137"
   style="font-size:36px;font-family:CourierNewPS-BoldMT;fill:#ec008c;stroke:#ed1c24;stroke-width:2;stroke-miterlimit:10">3</text><text
   class="st35 st36 st37"
   id="text780-6"
   x="3272.625"
   y="739.96887"
   style="font-size:36px;font-family:CourierNewPS-BoldMT;fill:#ec008c;stroke:#ed1c24;stroke-width:2;stroke-miterlimit:10">4</text><text
   class="st35 st36 st37"
   id="text780-7"
   x="3141.2998"
   y="612.43304"
   style="font-size:36px;font-family:CourierNewPS-BoldMT;fill:#ec008c;stroke:#ed1c24;stroke-width:2;stroke-miterlimit:10">5</text><text
   class="st35 st36 st37"
   id="text780-5"
   x="3061.075"
   y="494.94299"
   style="font-size:36px;font-family:CourierNewPS-BoldMT;fill:#ec008c;stroke:#ed1c24;stroke-width:2;stroke-miterlimit:10">6</text></svg>
