<?xml version="1.0" encoding="utf-8"?>
<!-- Generator: Adobe Illustrator 26.3.1, SVG Export Plug-In . SVG Version: 6.00 Build 0)  -->
<svg version="1.1" id="Layer_1" xmlns="http://www.w3.org/2000/svg" xmlns:xlink="http://www.w3.org/1999/xlink" x="0px" y="0px"
	 viewBox="0 0 1984.25 1984.25" style="enable-background:new 0 0 1984.25 1984.25;" xml:space="preserve">
<style type="text/css">
	.st0{fill:none;stroke:#000000;stroke-miterlimit:10;}
	.st1{fill:#FFFFFF;stroke:#000000;stroke-miterlimit:10;}
	.st2{fill:#A7A9AC;}
	.st3{fill:#BCBEC0;}
	.st4{fill:none;stroke:#000000;stroke-width:0.75;stroke-miterlimit:10;}
	.st5{fill:none;stroke:#F15A29;stroke-width:1.5;stroke-miterlimit:10;}
	.st6{fill:#92278F;}
	.st7{font-family:'Times-Bold';}
	.st8{font-size:7px;}
	.st9{fill:none;stroke:#58595B;stroke-width:1.5;stroke-miterlimit:10;}
	.st10{fill:#58595B;}
	.st11{font-family:'MyriadPro-Regular';}
	.st12{font-size:12px;}
	.st13{fill:none;stroke:#92278F;stroke-width:1.5;stroke-miterlimit:10;}
	.st14{font-size:13px;}
	.st15{fill:#F15A29;}
	.st16{font-family:'Chalkduster';}
	.st17{font-size:21px;}
	.st18{fill:#1C75BC;stroke:#000000;stroke-miterlimit:10;}
	.st19{fill:#C49A6C;stroke:#000000;stroke-miterlimit:10;}
	.st20{fill:#F9ED32;stroke:#000000;stroke-miterlimit:10;}
	.st21{fill:#8DC63F;stroke:#000000;stroke-miterlimit:10;}
	.st22{fill:#808285;stroke:#000000;stroke-miterlimit:10;}
	.st23{fill:#D1D3D4;stroke:#000000;stroke-miterlimit:10;}
	.st24{fill:#6D6E71;stroke:#000000;stroke-miterlimit:10;}
	.st25{fill:none;stroke:#754C29;stroke-width:2;stroke-miterlimit:10;}
	.st26{fill:#754C29;}
	.st27{fill:none;stroke:#000000;stroke-width:2;stroke-miterlimit:10;}
	.st28{font-size:14px;}
	.st29{fill:#C0C2C4;}
	.st30{fill:#97999C;}
	.st31{fill:#D1D3D4;}
	.st32{fill:#ED1C24;}
	.st33{fill:#F7941D;}
	.st34{fill:#B1B3B6;}
	.st35{fill:#808285;}
	.st36{fill:#939598;}
	.st37{fill:#C7C8CA;}
	.st38{fill:none;stroke:#58595B;stroke-width:2;stroke-miterlimit:10;}
	.st39{fill:#BE1E2D;}
	.st40{font-family:'CourierNewPS-BoldMT';}
	.st41{font-size:18px;}
	.st42{opacity:0.5;}
	.st43{fill:none;stroke:#808285;stroke-width:3;stroke-miterlimit:10;}
	.st44{fill:none;stroke:#808285;stroke-width:3;stroke-miterlimit:10;stroke-dasharray:2.0025,2.0025;}
	.st45{font-family:'Times-BoldItalic';}
	.st46{fill:none;stroke:#808285;stroke-width:3;stroke-miterlimit:10;stroke-dasharray:1.9721,1.9721;}
</style>
<g>
	<g>
		<polygon class="st0" points="507.31,290.26 516.34,290.26 516.34,282.24 527.74,282.24 527.74,290.26 536,290.26 536,307.84 
			507.31,307.84 		"/>
		<polyline class="st0" points="536,290.26 536,307.84 507.31,307.84 507.31,290.26 		"/>
	</g>
	<polygon class="st0" points="507.31,316.64 516.34,316.64 527.74,316.64 536,316.64 536,339.12 507.31,339.12 	"/>
</g>
<g>
	<g>
		<polygon class="st0" points="507.31,377.45 516.34,377.45 516.34,369.44 527.74,369.44 527.74,377.45 536,377.45 536,395.04 
			507.31,395.04 		"/>
		<polyline class="st0" points="536,377.45 536,395.04 507.31,395.04 507.31,377.45 		"/>
	</g>
	<polygon class="st0" points="507.31,403.83 516.34,403.83 527.74,403.83 536,403.83 536,426.31 507.31,426.31 	"/>
</g>
<g>
	<g>
		<polygon class="st0" points="507.31,464.65 516.34,464.65 516.34,456.63 527.74,456.63 527.74,464.65 536,464.65 536,482.24 
			507.31,482.24 		"/>
		<polyline class="st0" points="536,464.65 536,482.24 507.31,482.24 507.31,464.65 		"/>
	</g>
	<polygon class="st0" points="507.31,491.03 516.34,491.03 527.74,491.03 536,491.03 536,513.51 507.31,513.51 	"/>
</g>
<g>
	<g>
		<polygon class="st0" points="507.31,551.85 516.34,551.85 516.34,543.83 527.74,543.83 527.74,551.85 536,551.85 536,569.43 
			507.31,569.43 		"/>
		<polyline class="st0" points="536,551.85 536,569.43 507.31,569.43 507.31,551.85 		"/>
	</g>
	<polygon class="st0" points="507.31,578.23 516.34,578.23 527.74,578.23 536,578.23 536,600.71 507.31,600.71 	"/>
</g>
<g>
	<g>
		<polygon class="st0" points="507.31,639.04 516.34,639.04 516.34,631.03 527.74,631.03 527.74,639.04 536,639.04 536,656.63 
			507.31,656.63 		"/>
		<polyline class="st0" points="536,639.04 536,656.63 507.31,656.63 507.31,639.04 		"/>
	</g>
	<polygon class="st0" points="507.31,665.42 516.34,665.42 527.74,665.42 536,665.42 536,687.91 507.31,687.91 	"/>
</g>
<g>
	<g>
		<polygon class="st0" points="507.31,726.24 516.34,726.24 516.34,718.22 527.74,718.22 527.74,726.24 536,726.24 536,743.83 
			507.31,743.83 		"/>
		<polyline class="st0" points="536,726.24 536,743.83 507.31,743.83 507.31,726.24 		"/>
	</g>
	<polygon class="st0" points="507.31,752.62 516.34,752.62 527.74,752.62 536,752.62 536,775.1 507.31,775.1 	"/>
</g>
<polygon class="st0" points="710.6,286.29 710.6,300.81 750.95,300.81 750.95,320.34 710.6,320.34 710.6,336.37 603.95,336.37 
	603.95,320.05 596.04,320.05 581.8,333.46 573.61,331.12 591.29,314.46 591.29,306.05 573.61,295.46 580.75,291.48 596.56,300.81 
	602.36,300.81 602.36,286.29 "/>
<polygon class="st0" points="710.6,557.44 710.6,571.96 750.95,571.96 750.95,591.49 710.6,591.49 710.6,607.52 603.95,607.52 
	603.95,591.2 596.04,591.2 581.8,604.61 573.61,602.27 591.29,585.61 591.29,577.2 573.61,566.61 580.75,562.63 596.56,571.96 
	602.36,571.96 602.36,557.44 "/>
<polygon class="st0" points="710.6,641.89 710.6,656.41 750.95,656.41 750.95,675.94 710.6,675.94 710.6,691.97 603.95,691.97 
	603.95,675.65 596.04,675.65 581.8,689.06 573.61,686.72 591.29,670.06 591.29,661.65 573.61,651.06 580.75,647.08 596.56,656.41 
	602.36,656.41 602.36,641.89 "/>
<polygon class="st0" points="710.6,374.56 710.6,389.07 750.95,389.07 750.95,408.6 710.6,408.6 710.6,424.64 603.95,424.64 
	603.95,408.31 599.04,416.31 584.8,429.72 573.61,419.39 591.29,402.73 591.29,394.32 573.61,383.73 580.75,370.74 596.56,380.07 
	602.36,389.07 602.36,374.56 "/>
<polygon class="st0" points="710.6,467.91 710.6,482.42 750.95,482.42 750.95,501.95 710.6,501.95 710.6,517.99 603.95,517.99 
	603.95,501.66 599.04,509.66 584.8,523.07 573.61,512.74 591.29,496.08 591.29,487.67 573.61,477.08 580.75,464.09 596.56,473.42 
	602.36,482.42 602.36,467.91 "/>
<polygon class="st0" points="710.6,726.34 710.6,740.85 750.95,740.85 750.95,760.39 710.6,760.39 710.6,776.42 603.95,776.42 
	603.95,760.09 596.04,760.09 581.8,773.5 573.61,771.17 591.29,754.51 591.29,746.1 596.56,740.85 602.36,740.85 602.36,726.34 "/>
<rect x="1190.94" y="565.56" class="st1" width="440.9" height="244.4"/>
<rect x="108.34" y="282.24" transform="matrix(-1 -4.479475e-08 4.479475e-08 -1 244.1502 625.4529)" class="st2" width="27.47" height="60.97"/>
<rect x="108.34" y="369.44" transform="matrix(-1 -4.479468e-08 4.479468e-08 -1 244.1502 799.8466)" class="st2" width="27.47" height="60.97"/>
<rect x="108.34" y="456.63" transform="matrix(-1 -4.479508e-08 4.479508e-08 -1 244.1502 974.2404)" class="st2" width="27.47" height="60.97"/>
<rect x="108.34" y="631.03" transform="matrix(-1 -4.479475e-08 4.479475e-08 -1 244.1502 1323.0278)" class="st2" width="27.47" height="60.97"/>
<rect x="108.34" y="543.83" transform="matrix(-1 -4.479475e-08 4.479475e-08 -1 244.1502 1148.634)" class="st2" width="27.47" height="60.97"/>
<rect x="108.34" y="718.23" transform="matrix(-1 -4.479468e-08 4.479468e-08 -1 244.1502 1497.4215)" class="st2" width="27.47" height="60.97"/>
<rect x="379.66" y="718.23" transform="matrix(-1 -4.479468e-08 4.479468e-08 -1 786.7882 1497.4215)" class="st3" width="27.47" height="60.97"/>
<rect x="158.82" y="718.23" transform="matrix(-1 -4.479395e-08 4.479395e-08 -1 345.118 1497.4215)" class="st3" width="27.47" height="60.97"/>
<rect x="352.19" y="718.23" transform="matrix(-1 -4.479435e-08 4.479435e-08 -1 731.8505 1497.4215)" class="st2" width="27.47" height="60.97"/>
<rect x="324.18" y="718.23" transform="matrix(-1 -4.479442e-08 4.479442e-08 -1 675.8286 1497.4215)" class="st3" width="27.47" height="60.97"/>
<rect x="296.71" y="718.23" transform="matrix(-1 -4.479395e-08 4.479395e-08 -1 620.8908 1497.4215)" class="st2" width="27.47" height="60.97"/>
<rect x="269.24" y="718.23" transform="matrix(-1 -4.479508e-08 4.479508e-08 -1 565.9531 1497.4215)" class="st3" width="27.47" height="60.97"/>
<rect x="241.77" y="718.23" transform="matrix(-1 -4.479395e-08 4.479395e-08 -1 511.0154 1497.4215)" class="st2" width="27.47" height="60.97"/>
<rect x="213.76" y="718.23" transform="matrix(-1 -4.479438e-08 4.479438e-08 -1 454.9934 1497.4215)" class="st3" width="27.47" height="60.97"/>
<rect x="186.29" y="718.23" transform="matrix(-1 -4.479475e-08 4.479475e-08 -1 400.0557 1497.4215)" class="st2" width="27.47" height="60.97"/>
<rect x="108.34" y="718.22" transform="matrix(-1 -1.991346e-07 1.991346e-07 -1 589.2117 1497.4205)" class="st0" width="372.53" height="60.97"/>
<rect x="379.66" y="631.03" transform="matrix(-1 -4.479468e-08 4.479468e-08 -1 786.7882 1323.0278)" class="st3" width="27.47" height="60.97"/>
<rect x="158.82" y="631.03" transform="matrix(-1 -4.479438e-08 4.479438e-08 -1 345.118 1323.0278)" class="st3" width="27.47" height="60.97"/>
<rect x="352.19" y="631.03" transform="matrix(-1 -4.479442e-08 4.479442e-08 -1 731.8505 1323.0278)" class="st2" width="27.47" height="60.97"/>
<rect x="324.18" y="631.03" transform="matrix(-1 -4.479395e-08 4.479395e-08 -1 675.8286 1323.0278)" class="st3" width="27.47" height="60.97"/>
<rect x="296.71" y="631.03" transform="matrix(-1 -4.479402e-08 4.479402e-08 -1 620.8908 1323.0278)" class="st2" width="27.47" height="60.97"/>
<rect x="269.24" y="631.03" transform="matrix(-1 -4.479508e-08 4.479508e-08 -1 565.9531 1323.0278)" class="st3" width="27.47" height="60.97"/>
<rect x="241.77" y="631.03" transform="matrix(-1 -4.479435e-08 4.479435e-08 -1 511.0154 1323.0278)" class="st2" width="27.47" height="60.97"/>
<rect x="213.76" y="631.03" transform="matrix(-1 -4.479442e-08 4.479442e-08 -1 454.9934 1323.0278)" class="st3" width="27.47" height="60.97"/>
<rect x="186.29" y="631.03" transform="matrix(-1 -4.479468e-08 4.479468e-08 -1 400.0557 1323.0278)" class="st2" width="27.47" height="60.97"/>
<rect x="108.34" y="631.03" transform="matrix(-1 -1.991345e-07 1.991345e-07 -1 589.2118 1323.0269)" class="st0" width="372.53" height="60.97"/>
<rect x="379.66" y="543.83" transform="matrix(-1 -4.479475e-08 4.479475e-08 -1 786.7882 1148.634)" class="st3" width="27.47" height="60.97"/>
<rect x="158.82" y="543.83" transform="matrix(-1 -4.479435e-08 4.479435e-08 -1 345.118 1148.634)" class="st3" width="27.47" height="60.97"/>
<rect x="352.19" y="543.83" transform="matrix(-1 -4.479435e-08 4.479435e-08 -1 731.8505 1148.634)" class="st2" width="27.47" height="60.97"/>
<rect x="324.18" y="543.83" transform="matrix(-1 -4.479402e-08 4.479402e-08 -1 675.8286 1148.634)" class="st3" width="27.47" height="60.97"/>
<rect x="296.71" y="543.83" transform="matrix(-1 -4.479435e-08 4.479435e-08 -1 620.8908 1148.634)" class="st2" width="27.47" height="60.97"/>
<rect x="269.24" y="543.83" transform="matrix(-1 -4.479475e-08 4.479475e-08 -1 565.9531 1148.634)" class="st3" width="27.47" height="60.97"/>
<rect x="241.77" y="543.83" transform="matrix(-1 -4.479425e-08 4.479425e-08 -1 511.0154 1148.634)" class="st2" width="27.47" height="60.97"/>
<rect x="213.76" y="543.83" transform="matrix(-1 -4.479405e-08 4.479405e-08 -1 454.9935 1148.634)" class="st3" width="27.47" height="60.97"/>
<rect x="186.29" y="543.83" transform="matrix(-1 -4.479468e-08 4.479468e-08 -1 400.0557 1148.634)" class="st2" width="27.47" height="60.97"/>
<rect x="108.34" y="543.83" transform="matrix(-1 -1.991346e-07 1.991346e-07 -1 589.2118 1148.6332)" class="st0" width="372.53" height="60.97"/>
<rect x="379.66" y="456.63" transform="matrix(-1 -4.479508e-08 4.479508e-08 -1 786.7882 974.2404)" class="st3" width="27.47" height="60.97"/>
<rect x="158.82" y="456.63" transform="matrix(-1 -4.479395e-08 4.479395e-08 -1 345.118 974.2404)" class="st3" width="27.47" height="60.97"/>
<rect x="352.19" y="456.63" transform="matrix(-1 -4.479399e-08 4.479399e-08 -1 731.8505 974.2404)" class="st2" width="27.47" height="60.97"/>
<rect x="324.18" y="456.63" transform="matrix(-1 -4.479428e-08 4.479428e-08 -1 675.8286 974.2404)" class="st3" width="27.47" height="60.97"/>
<rect x="296.71" y="456.63" transform="matrix(-1 -4.479402e-08 4.479402e-08 -1 620.8908 974.2404)" class="st2" width="27.47" height="60.97"/>
<rect x="269.24" y="456.63" transform="matrix(-1 -4.479468e-08 4.479468e-08 -1 565.9531 974.2404)" class="st3" width="27.47" height="60.97"/>
<rect x="241.77" y="456.63" transform="matrix(-1 -4.479442e-08 4.479442e-08 -1 511.0154 974.2404)" class="st2" width="27.47" height="60.97"/>
<rect x="213.76" y="456.63" transform="matrix(-1 -4.479402e-08 4.479402e-08 -1 454.9935 974.2404)" class="st3" width="27.47" height="60.97"/>
<rect x="186.29" y="456.63" transform="matrix(-1 -4.479508e-08 4.479508e-08 -1 400.0557 974.2404)" class="st2" width="27.47" height="60.97"/>
<rect x="108.34" y="456.63" transform="matrix(-1 -1.991346e-07 1.991346e-07 -1 589.2118 974.2394)" class="st0" width="372.53" height="60.97"/>
<rect x="379.66" y="369.44" transform="matrix(-1 -4.479475e-08 4.479475e-08 -1 786.7882 799.8466)" class="st3" width="27.47" height="60.97"/>
<rect x="158.82" y="369.44" transform="matrix(-1 -4.479402e-08 4.479402e-08 -1 345.118 799.8466)" class="st3" width="27.47" height="60.97"/>
<rect x="352.19" y="369.44" transform="matrix(-1 -4.479399e-08 4.479399e-08 -1 731.8505 799.8466)" class="st2" width="27.47" height="60.97"/>
<rect x="324.18" y="369.44" transform="matrix(-1 -4.479435e-08 4.479435e-08 -1 675.8286 799.8466)" class="st3" width="27.47" height="60.97"/>
<rect x="296.71" y="369.44" transform="matrix(-1 -4.479395e-08 4.479395e-08 -1 620.8908 799.8466)" class="st2" width="27.47" height="60.97"/>
<rect x="269.24" y="369.44" transform="matrix(-1 -4.479508e-08 4.479508e-08 -1 565.9531 799.8466)" class="st3" width="27.47" height="60.97"/>
<rect x="241.77" y="369.44" transform="matrix(-1 -4.479405e-08 4.479405e-08 -1 511.0154 799.8466)" class="st2" width="27.47" height="60.97"/>
<rect x="213.76" y="369.44" transform="matrix(-1 -4.479445e-08 4.479445e-08 -1 454.9935 799.8466)" class="st3" width="27.47" height="60.97"/>
<rect x="186.29" y="369.44" transform="matrix(-1 -4.479468e-08 4.479468e-08 -1 400.0557 799.8466)" class="st2" width="27.47" height="60.97"/>
<rect x="108.34" y="369.44" transform="matrix(-1 -1.991346e-07 1.991346e-07 -1 589.2119 799.8457)" class="st0" width="372.53" height="60.97"/>
<rect x="379.66" y="282.24" transform="matrix(-1 -4.479475e-08 4.479475e-08 -1 786.7882 625.4529)" class="st3" width="27.47" height="60.97"/>
<rect x="158.82" y="282.24" transform="matrix(-1 -4.479435e-08 4.479435e-08 -1 345.118 625.4529)" class="st3" width="27.47" height="60.97"/>
<rect x="352.19" y="282.24" transform="matrix(-1 -4.479438e-08 4.479438e-08 -1 731.8505 625.4529)" class="st2" width="27.47" height="60.97"/>
<rect x="324.18" y="282.24" transform="matrix(-1 -4.479402e-08 4.479402e-08 -1 675.8286 625.4529)" class="st3" width="27.47" height="60.97"/>
<rect x="296.71" y="282.24" transform="matrix(-1 -4.479392e-08 4.479392e-08 -1 620.8908 625.4529)" class="st2" width="27.47" height="60.97"/>
<rect x="269.24" y="282.24" transform="matrix(-1 -4.479511e-08 4.479511e-08 -1 565.9531 625.4529)" class="st3" width="27.47" height="60.97"/>
<rect x="241.77" y="282.24" transform="matrix(-1 -4.479442e-08 4.479442e-08 -1 511.0154 625.4529)" class="st2" width="27.47" height="60.97"/>
<rect x="213.76" y="282.24" transform="matrix(-1 -4.479402e-08 4.479402e-08 -1 454.9935 625.4529)" class="st3" width="27.47" height="60.97"/>
<rect x="186.29" y="282.24" transform="matrix(-1 -4.479468e-08 4.479468e-08 -1 400.0557 625.4529)" class="st2" width="27.47" height="60.97"/>
<rect x="108.34" y="282.24" transform="matrix(-1 -1.991346e-07 1.991346e-07 -1 589.2119 625.452)" class="st0" width="372.53" height="60.97"/>
<rect x="650.18" y="241.67" transform="matrix(-1.836970e-16 1 -1 -1.836970e-16 925.59 -387.3755)" class="st4" width="12.6" height="54.87"/>
<rect x="650.18" y="326.12" transform="matrix(-1.836970e-16 1 -1 -1.836970e-16 1010.0392 -302.9264)" class="st4" width="12.6" height="54.87"/>
<rect x="650.18" y="419.47" transform="matrix(-1.836970e-16 1 -1 -1.836970e-16 1103.39 -209.5755)" class="st4" width="12.6" height="54.87"/>
<rect x="650.18" y="512.82" transform="matrix(-1.836970e-16 1 -1 -1.836970e-16 1196.7408 -116.2247)" class="st4" width="12.6" height="54.87"/>
<rect x="650.18" y="597.27" transform="matrix(-1.836970e-16 1 -1 -1.836970e-16 1281.1901 -31.7755)" class="st4" width="12.6" height="54.87"/>
<rect x="650.18" y="686.72" transform="matrix(-1.836970e-16 1 -1 -1.836970e-16 1370.6392 57.6737)" class="st4" width="12.6" height="54.87"/>
<path class="st5" d="M228.8,532.93h220.36c14.87,0,37.68,63.93,47.23,63.93s28.82,0,34.36,0s27.76-17.96,31.4-27.27
	c3.63-9.31,21.81-3.1,26.91,0.89c5.1,3.99,7.98,7.22,7.98,10.59c0,11.71-22.16,24.15-34.89,33.52c-11.36,8.37-8.07,25.99,0,27.29"/>
<text transform="matrix(0 1 -1 0 808.5283 715.4557)" class="st6 st7 st8">3</text>
<g>
	<g>
		<path class="st9" d="M125.68,365.83c-6.18,0-8.2,13.37-8.42,17.92"/>
		<g>
			
				<rect x="116.53" y="378.88" transform="matrix(0.0511 -0.9987 0.9987 0.0511 -271.9619 481.2673)" class="st10" width="1.5" height="9.75"/>
		</g>
	</g>
</g>
<g>
	<g>
		<path class="st9" d="M227.51,365.83c-6.18,0-8.2,13.37-8.42,17.92"/>
		<g>
			
				<rect x="218.36" y="378.88" transform="matrix(0.0511 -0.9987 0.9987 0.0511 -175.3358 582.9645)" class="st10" width="1.5" height="9.75"/>
		</g>
	</g>
</g>
<g>
	<g>
		<path class="st9" d="M287.2,365.83c-6.18,0-8.2,13.37-8.42,17.92"/>
		<g>
			
				<rect x="278.05" y="378.88" transform="matrix(0.0511 -0.9987 0.9987 0.0511 -118.7024 642.5702)" class="st10" width="1.5" height="9.75"/>
		</g>
	</g>
</g>
<g>
	<g>
		<path class="st9" d="M372.1,365.83c-6.18,0-8.2,13.37-8.42,17.92"/>
		<g>
			
				<rect x="362.95" y="378.88" transform="matrix(0.0511 -0.9987 0.9987 0.0511 -38.1413 727.3593)" class="st10" width="1.5" height="9.75"/>
		</g>
	</g>
</g>
<g>
	<g>
		<path class="st9" d="M399.45,365.83c-6.18,0-8.2,13.37-8.42,17.92"/>
		<g>
			
				<rect x="390.3" y="378.88" transform="matrix(0.0511 -0.9987 0.9987 0.0511 -12.1871 754.6756)" class="st10" width="1.5" height="9.75"/>
		</g>
	</g>
</g>
<g>
	<g>
		<g>
			<path class="st9" d="M125.68,278.24c-6.18,0-8.2,13.37-8.42,17.92"/>
			<g>
				
					<rect x="116.53" y="291.28" transform="matrix(0.0511 -0.9987 0.9987 0.0511 -184.4851 398.1525)" class="st10" width="1.5" height="9.75"/>
			</g>
		</g>
	</g>
	<g>
		<g>
			<path class="st9" d="M227.51,278.24c-6.18,0-8.2,13.37-8.42,17.92"/>
			<g>
				
					<rect x="218.36" y="291.28" transform="matrix(0.0511 -0.9987 0.9987 0.0511 -87.859 499.8497)" class="st10" width="1.5" height="9.75"/>
			</g>
		</g>
	</g>
	<g>
		<g>
			<path class="st9" d="M287.2,278.24c-6.18,0-8.2,13.37-8.42,17.92"/>
			<g>
				
					<rect x="278.05" y="291.28" transform="matrix(0.0511 -0.9987 0.9987 0.0511 -31.2256 559.4554)" class="st10" width="1.5" height="9.75"/>
			</g>
		</g>
	</g>
	<g>
		<g>
			<path class="st9" d="M372.1,278.24c-6.18,0-8.2,13.37-8.42,17.92"/>
			<g>
				
					<rect x="362.95" y="291.28" transform="matrix(0.0511 -0.9987 0.9987 0.0511 49.3356 644.2445)" class="st10" width="1.5" height="9.75"/>
			</g>
		</g>
	</g>
	<g>
		<g>
			<path class="st9" d="M399.45,278.24c-6.18,0-8.2,13.37-8.42,17.92"/>
			<g>
				
					<rect x="390.3" y="291.28" transform="matrix(0.0511 -0.9987 0.9987 0.0511 75.2897 671.5608)" class="st10" width="1.5" height="9.75"/>
			</g>
		</g>
	</g>
</g>
<g>
	<path class="st9" d="M125.06,365.03h289.46c12.43,0,41.46,17.14,62.7,17.14c21.23,0,56.46,0,61.35,0c4.89,0,13.5-0.09,13.5,6.49"/>
	<g>
		<g>
			<g>
				<path class="st9" d="M125.68,364.85c-6.18,0-8.2,13.38-8.42,17.92"/>
				<g>
					
						<rect x="116.53" y="377.9" transform="matrix(0.0511 -0.9987 0.9987 0.0511 -270.9881 480.342)" class="st10" width="1.5" height="9.75"/>
				</g>
			</g>
		</g>
		<g>
			<g>
				<path class="st9" d="M227.51,364.85c-6.18,0-8.2,13.38-8.42,17.92"/>
				<g>
					
						<rect x="218.36" y="377.9" transform="matrix(0.0511 -0.9987 0.9987 0.0511 -174.3619 582.0392)" class="st10" width="1.5" height="9.75"/>
				</g>
			</g>
		</g>
		<g>
			<g>
				<path class="st9" d="M287.2,364.85c-6.18,0-8.2,13.38-8.42,17.92"/>
				<g>
					
						<rect x="278.05" y="377.9" transform="matrix(0.0511 -0.9987 0.9987 0.0511 -117.7285 641.6448)" class="st10" width="1.5" height="9.75"/>
				</g>
			</g>
		</g>
		<g>
			<g>
				<path class="st9" d="M372.1,364.85c-6.18,0-8.2,13.38-8.42,17.92"/>
				<g>
					
						<rect x="362.95" y="377.9" transform="matrix(0.0511 -0.9987 0.9987 0.0511 -37.1674 726.434)" class="st10" width="1.5" height="9.75"/>
				</g>
			</g>
		</g>
		<g>
			<g>
				<path class="st9" d="M399.45,364.85c-6.18,0-8.2,13.38-8.42,17.92"/>
				<g>
					
						<rect x="390.3" y="377.9" transform="matrix(0.0511 -0.9987 0.9987 0.0511 -11.2133 753.7503)" class="st10" width="1.5" height="9.75"/>
				</g>
			</g>
		</g>
	</g>
</g>
<text transform="matrix(1 0 0 1 1190.6359 562.0731)" class="st11 st12">IMG</text>
<circle class="st10" cx="521.88" cy="290.19" r="4.13"/>
<g>
	<g>
		<path class="st9" d="M125.06,365.03h289.46c12.43,0,41.46,17.14,62.7,17.14c21.23,0,56.46,0,61.35,0c4.89,0,13.5-0.09,13.5,6.49"
			/>
		<g>
			<g>
				<g>
					<path class="st9" d="M125.68,364.85c-6.18,0-8.2,13.38-8.42,17.92"/>
					<g>
						
							<rect x="116.53" y="377.9" transform="matrix(0.0511 -0.9987 0.9987 0.0511 -270.9881 480.342)" class="st10" width="1.5" height="9.75"/>
					</g>
				</g>
			</g>
			<g>
				<g>
					<path class="st9" d="M227.51,364.85c-6.18,0-8.2,13.38-8.42,17.92"/>
					<g>
						
							<rect x="218.36" y="377.9" transform="matrix(0.0511 -0.9987 0.9987 0.0511 -174.3619 582.0392)" class="st10" width="1.5" height="9.75"/>
					</g>
				</g>
			</g>
			<g>
				<g>
					<path class="st9" d="M287.2,364.85c-6.18,0-8.2,13.38-8.42,17.92"/>
					<g>
						
							<rect x="278.05" y="377.9" transform="matrix(0.0511 -0.9987 0.9987 0.0511 -117.7285 641.6448)" class="st10" width="1.5" height="9.75"/>
					</g>
				</g>
			</g>
			<g>
				<g>
					<path class="st9" d="M372.1,364.85c-6.18,0-8.2,13.38-8.42,17.92"/>
					<g>
						
							<rect x="362.95" y="377.9" transform="matrix(0.0511 -0.9987 0.9987 0.0511 -37.1674 726.434)" class="st10" width="1.5" height="9.75"/>
					</g>
				</g>
			</g>
			<g>
				<g>
					<path class="st9" d="M399.45,364.85c-6.18,0-8.2,13.38-8.42,17.92"/>
					<g>
						
							<rect x="390.3" y="377.9" transform="matrix(0.0511 -0.9987 0.9987 0.0511 -11.2133 753.7503)" class="st10" width="1.5" height="9.75"/>
					</g>
				</g>
			</g>
		</g>
	</g>
	<circle class="st10" cx="521.88" cy="378.32" r="4.13"/>
</g>
<g>
	<g>
		<path class="st9" d="M125.06,452.37h289.46c12.43,0,41.46,17.14,62.7,17.14c21.23,0,56.46,0,61.35,0c4.89,0,13.5-0.09,13.5,6.49"
			/>
		<g>
			<g>
				<g>
					<path class="st9" d="M125.68,452.19c-6.18,0-8.2,13.38-8.42,17.92"/>
					<g>
						
							<rect x="116.53" y="465.24" transform="matrix(0.0511 -0.9987 0.9987 0.0511 -358.2114 563.2159)" class="st10" width="1.5" height="9.75"/>
					</g>
				</g>
			</g>
			<g>
				<g>
					<path class="st9" d="M227.51,452.19c-6.18,0-8.2,13.38-8.42,17.92"/>
					<g>
						
							<rect x="218.36" y="465.24" transform="matrix(0.0511 -0.9987 0.9987 0.0511 -261.5853 664.9132)" class="st10" width="1.5" height="9.75"/>
					</g>
				</g>
			</g>
			<g>
				<g>
					<path class="st9" d="M287.2,452.19c-6.18,0-8.2,13.38-8.42,17.92"/>
					<g>
						
							<rect x="278.05" y="465.24" transform="matrix(0.0511 -0.9987 0.9987 0.0511 -204.9519 724.5188)" class="st10" width="1.5" height="9.75"/>
					</g>
				</g>
			</g>
			<g>
				<g>
					<path class="st9" d="M372.1,452.19c-6.18,0-8.2,13.38-8.42,17.92"/>
					<g>
						
							<rect x="362.95" y="465.24" transform="matrix(0.0511 -0.9987 0.9987 0.0511 -124.3907 809.308)" class="st10" width="1.5" height="9.75"/>
					</g>
				</g>
			</g>
			<g>
				<g>
					<path class="st9" d="M399.45,452.19c-6.18,0-8.2,13.38-8.42,17.92"/>
					<g>
						
							<rect x="390.3" y="465.24" transform="matrix(0.0511 -0.9987 0.9987 0.0511 -98.4366 836.6243)" class="st10" width="1.5" height="9.75"/>
					</g>
				</g>
			</g>
		</g>
	</g>
	<circle class="st10" cx="521.88" cy="465.66" r="4.13"/>
</g>
<g>
	<g>
		<path class="st9" d="M125.06,539.12h289.46c12.43,0,41.46,17.14,62.7,17.14c21.23,0,56.46,0,61.35,0c4.89,0,13.5-0.09,13.5,6.49"
			/>
		<g>
			<g>
				<g>
					<path class="st9" d="M125.68,538.94c-6.18,0-8.2,13.38-8.42,17.92"/>
					<g>
						
							<rect x="116.53" y="551.99" transform="matrix(0.0511 -0.9987 0.9987 0.0511 -444.8507 645.5349)" class="st10" width="1.5" height="9.75"/>
					</g>
				</g>
			</g>
			<g>
				<g>
					<path class="st9" d="M227.51,538.94c-6.18,0-8.2,13.38-8.42,17.92"/>
					<g>
						
							<rect x="218.36" y="551.99" transform="matrix(0.0511 -0.9987 0.9987 0.0511 -348.2245 747.2322)" class="st10" width="1.5" height="9.75"/>
					</g>
				</g>
			</g>
			<g>
				<g>
					<path class="st9" d="M287.2,538.94c-6.18,0-8.2,13.38-8.42,17.92"/>
					<g>
						
							<rect x="278.05" y="551.99" transform="matrix(0.0511 -0.9987 0.9987 0.0511 -291.5912 806.8378)" class="st10" width="1.5" height="9.75"/>
					</g>
				</g>
			</g>
			<g>
				<g>
					<path class="st9" d="M372.1,538.94c-6.18,0-8.2,13.38-8.42,17.92"/>
					<g>
						
							<rect x="362.95" y="551.99" transform="matrix(0.0511 -0.9987 0.9987 0.0511 -211.03 891.627)" class="st10" width="1.5" height="9.75"/>
					</g>
				</g>
			</g>
			<g>
				<g>
					<path class="st9" d="M399.45,538.94c-6.18,0-8.2,13.38-8.42,17.92"/>
					<g>
						
							<rect x="390.3" y="551.99" transform="matrix(0.0511 -0.9987 0.9987 0.0511 -185.0759 918.9432)" class="st10" width="1.5" height="9.75"/>
					</g>
				</g>
			</g>
		</g>
	</g>
	<circle class="st10" cx="521.88" cy="552.41" r="4.13"/>
</g>
<g>
	<g>
		<path class="st9" d="M125.06,626.32h289.46c12.43,0,41.46,17.14,62.7,17.14c21.23,0,56.46,0,61.35,0c4.89,0,13.5-0.09,13.5,6.49"
			/>
		<g>
			<g>
				<g>
					<path class="st9" d="M125.68,626.14c-6.18,0-8.2,13.38-8.42,17.92"/>
					<g>
						
							<rect x="116.53" y="639.19" transform="matrix(0.0511 -0.9987 0.9987 0.0511 -531.9336 728.2755)" class="st10" width="1.5" height="9.75"/>
					</g>
				</g>
			</g>
			<g>
				<g>
					<path class="st9" d="M227.51,626.14c-6.18,0-8.2,13.38-8.42,17.92"/>
					<g>
						
							<rect x="218.36" y="639.19" transform="matrix(0.0511 -0.9987 0.9987 0.0511 -435.3075 829.9727)" class="st10" width="1.5" height="9.75"/>
					</g>
				</g>
			</g>
			<g>
				<g>
					<path class="st9" d="M287.2,626.14c-6.18,0-8.2,13.38-8.42,17.92"/>
					<g>
						
							<rect x="278.05" y="639.19" transform="matrix(0.0511 -0.9987 0.9987 0.0511 -378.6741 889.5784)" class="st10" width="1.5" height="9.75"/>
					</g>
				</g>
			</g>
			<g>
				<g>
					<path class="st9" d="M372.1,626.14c-6.18,0-8.2,13.38-8.42,17.92"/>
					<g>
						
							<rect x="362.95" y="639.19" transform="matrix(0.0511 -0.9987 0.9987 0.0511 -298.1129 974.3675)" class="st10" width="1.5" height="9.75"/>
					</g>
				</g>
			</g>
			<g>
				<g>
					<path class="st9" d="M399.45,626.14c-6.18,0-8.2,13.38-8.42,17.92"/>
					<g>
						
							<rect x="390.3" y="639.19" transform="matrix(0.0511 -0.9987 0.9987 0.0511 -272.1588 1001.6838)" class="st10" width="1.5" height="9.75"/>
					</g>
				</g>
			</g>
		</g>
	</g>
	<circle class="st10" cx="521.88" cy="639.61" r="4.13"/>
</g>
<g>
	<g>
		<path class="st9" d="M125.06,711.41h289.46c12.43,0,41.46,17.14,62.7,17.14c21.23,0,56.46,0,61.35,0c4.89,0,13.5-0.09,13.5,6.49"
			/>
		<g>
			<g>
				<g>
					<path class="st9" d="M125.68,711.23c-6.18,0-8.2,13.37-8.42,17.92"/>
					<g>
						
							<rect x="116.53" y="724.28" transform="matrix(0.0511 -0.9987 0.9987 0.0511 -616.91 809.0146)" class="st10" width="1.5" height="9.75"/>
					</g>
				</g>
			</g>
			<g>
				<g>
					<path class="st9" d="M227.51,711.23c-6.18,0-8.2,13.37-8.42,17.92"/>
					<g>
						
							<rect x="218.36" y="724.28" transform="matrix(0.0511 -0.9987 0.9987 0.0511 -520.2839 910.7119)" class="st10" width="1.5" height="9.75"/>
					</g>
				</g>
			</g>
			<g>
				<g>
					<path class="st9" d="M287.2,711.23c-6.18,0-8.2,13.37-8.42,17.92"/>
					<g>
						
							<rect x="278.05" y="724.28" transform="matrix(0.0511 -0.9987 0.9987 0.0511 -463.6505 970.3174)" class="st10" width="1.5" height="9.75"/>
					</g>
				</g>
			</g>
			<g>
				<g>
					<path class="st9" d="M372.1,711.23c-6.18,0-8.2,13.37-8.42,17.92"/>
					<g>
						
							<rect x="362.95" y="724.28" transform="matrix(0.0511 -0.9987 0.9987 0.0511 -383.0894 1055.1066)" class="st10" width="1.5" height="9.75"/>
					</g>
				</g>
			</g>
			<g>
				<g>
					<path class="st9" d="M399.45,711.23c-6.18,0-8.2,13.37-8.42,17.92"/>
					<g>
						
							<rect x="390.3" y="724.28" transform="matrix(0.0511 -0.9987 0.9987 0.0511 -357.1352 1082.4229)" class="st10" width="1.5" height="9.75"/>
					</g>
				</g>
			</g>
		</g>
	</g>
	<circle class="st10" cx="521.88" cy="724.7" r="4.13"/>
</g>
<line class="st9" x1="548.8" y1="77.7" x2="588.17" y2="77.7"/>
<line class="st5" x1="548.8" y1="98.49" x2="588.17" y2="98.49"/>
<line class="st13" x1="548.8" y1="120.91" x2="588.17" y2="120.91"/>
<text transform="matrix(1 0 0 1 598.4098 80.4996)" class="st7 st14">1st order Sensory</text>
<text transform="matrix(1 0 0 1 598.4098 101.2942)" class="st15 st7 st14">Sympathetic Pre-Ganglionic</text>
<text transform="matrix(1 0 0 1 598.4098 123.7091)" class="st6 st7 st14">Sympathetic Post-Ganglionic</text>
<text transform="matrix(1 0 0 1 48.2393 322.2654)" class="st16 st17">T13</text>
<text transform="matrix(1 0 0 1 65.4795 409.4623)" class="st16 st17">L1</text>
<text transform="matrix(1 0 0 1 66.3613 496.6592)" class="st16 st17">L2</text>
<text transform="matrix(1 0 0 1 63.7393 583.8563)" class="st16 st17">L3</text>
<text transform="matrix(1 0 0 1 64.7373 758.2507)" class="st16 st17">L5</text>
<text transform="matrix(1 0 0 1 58.9365 671.0533)" class="st16 st17">L4</text>
<rect x="998.2" y="1113.02" class="st18" width="897.2" height="15.38"/>
<rect x="998.2" y="1128.41" class="st19" width="897.2" height="31.46"/>
<rect x="998.2" y="1159.86" class="st20" width="897.2" height="124.81"/>
<rect x="998.2" y="1284.67" class="st19" width="897.2" height="31.92"/>
<rect x="998.2" y="1316.59" class="st21" width="897.2" height="111.59"/>
<rect x="998.2" y="1428.18" class="st22" width="897.2" height="166.85"/>
<rect x="998.2" y="1595.03" class="st23" width="897.2" height="65"/>
<rect x="998.2" y="1551.65" class="st24" width="897.2" height="43.37"/>
<rect x="1070.22" y="1452.18" class="st1" width="76.92" height="49.65"/>
<rect x="1178.62" y="1562.8" class="st1" width="47.08" height="64.46"/>
<rect x="1319.73" y="1562.8" class="st1" width="47.08" height="64.46"/>
<rect x="1616.85" y="1143.09" class="st1" width="58.1" height="12.27"/>
<circle cx="1207.83" cy="1209.92" r="5.67"/>
<circle cx="1375.01" cy="1224.41" r="5.67"/>
<circle cx="1548.54" cy="1224.41" r="5.67"/>
<circle cx="1207.83" cy="1238.23" r="5.67"/>
<circle cx="1288.67" cy="1224.41" r="5.67"/>
<circle cx="1325.4" cy="1382.41" r="5.67"/>
<text transform="matrix(1 0 0 1 949.3875 1123.4348)" class="st11 st12">SEROSA</text>
<text transform="matrix(1 0 0 1 1069.8052 1515.3169)" class="st11 st12">PEYER’S PATCH</text>
<text transform="matrix(1 0 0 1 1179.5703 1640.8298)" class="st11 st12">GOBLET</text>
<text transform="matrix(1 0 0 1 1309.5366 1640.8298)" class="st11 st12">ENTEROCYTE</text>
<text transform="matrix(1 0 0 1 945.4399 1147.5959)" class="st11 st12">LONG M.</text>
<text transform="matrix(1 0 0 1 951.272 1305.9852)" class="st11 st12">CIRC M.</text>
<text transform="matrix(1 0 0 1 883.1364 1372.3845)" class="st11 st12">SUBMUCOSAL Plexus</text>
<text transform="matrix(1 0 0 1 901.7721 1511.6035)" class="st11 st12">LAMINA PROPRIA</text>
<text transform="matrix(1 0 0 1 928.4362 1578.7389)" class="st11 st12">EPITHELIUM</text>
<text transform="matrix(1 0 0 1 952.7838 1632.4089)" class="st11 st12">LUMEN</text>
<text transform="matrix(1 0 0 1 896.6239 1218.7371)" class="st11 st12">MYENTERIC Plexus</text>
<g>
	<g>
		<path class="st25" d="M1243.09,608.54c-47.87-21.37-205.25,268.19-164.95,848.59"/>
		<g>
			<polygon class="st26" points="1074.77,1454.85 1078.11,1456.03 1081.28,1454.45 1078.5,1462.36 			"/>
		</g>
	</g>
</g>
<g>
	<g>
		<path class="st27" d="M1202.16,1209.92c-27.01,0-32.38,0-44.46,0c-11.52,0-34.65-59.87-1.21-65.38"/>
		<g>
			<polygon points="1154.35,1148.13 1155.41,1144.75 1153.72,1141.64 1161.72,1144.13 			"/>
		</g>
	</g>
</g>
<g>
	<g>
		<path class="st27" d="M1202.16,1237.29c-27.01,0-32.38,0-44.46,0c-11.52,0-34.65,59.87-1.21,65.38"/>
		<g>
			<polygon points="1153.72,1305.57 1155.41,1302.46 1154.35,1299.09 1161.72,1303.08 			"/>
		</g>
	</g>
</g>
<g>
	<g>
		<path class="st27" d="M1721.31,1209.92c27.01,0,32.38,0,44.46,0c11.52,0,34.65-59.87,1.21-65.38"/>
		<g>
			<polygon points="1769.75,1141.64 1768.05,1144.75 1769.12,1148.13 1761.74,1144.13 			"/>
		</g>
	</g>
</g>
<g>
	<g>
		<path class="st27" d="M1721.31,1237.29c27.01,0,32.38,0,44.46,0c11.52,0,34.65,59.87,1.21,65.38"/>
		<g>
			<polygon points="1769.12,1299.09 1768.05,1302.46 1769.75,1305.57 1761.74,1303.08 			"/>
		</g>
	</g>
</g>
<circle cx="1721.31" cy="1209.92" r="5.67"/>
<circle cx="1721.31" cy="1237.9" r="5.67"/>
<text transform="matrix(1 0 0 1 1606.3807 1140.0945)" class="st11 st28">Smooth muscle</text>
<rect x="1410.83" y="1301.35" class="st1" width="58.1" height="12.27"/>
<text transform="matrix(1 0 0 1 1400.3629 1298.3518)" class="st11 st28">Smooth muscle</text>
<g>
	<g>
		<path class="st9" d="M125.06,278.24h289.46c8.54,0,34.84,15.69,61.72,15.69s59.81,0,63.12,0s12.7,1.24,12.7,9.68v581.03
			c0,72.39,49.11,122.6,154.86,122.6c105.39,0,206.42,2.88,222.43-116.7v-421.1c0-186.41,782.22,50.33,823.48,84.47
			c31.43,26.01,129.65,362.84,130.01,982.47"/>
		<g>
			<g>
				<path class="st29" d="M1882.8,1536.64c0.8,1.15,1.86,2.11,3.03,2.85l-0.05-5.52c-1.26-0.73-2.26-1.87-3.03-3.1L1882.8,1536.64z"
					/>
				<path class="st29" d="M1882.74,1530.87c-0.74,1.25-1.75,2.36-2.97,3.15l0.05,5.51c1.18-0.79,2.21-1.74,2.98-2.9L1882.74,1530.87
					z"/>
				<path class="st10" d="M1885.78,1533.65c-1.26-0.73-2.26-1.87-3.03-3.1c-0.74,1.25-1.75,2.36-2.97,3.15l0.01,0.74
					c1.18-0.79,2.21-1.74,2.98-2.9c0.8,1.15,1.86,2.11,3.03,2.85L1885.78,1533.65z"/>
				<path class="st30" d="M1885.79,1535.43c-1.26-0.73-2.26-1.87-3.03-3.09c-0.74,1.25-1.75,2.36-2.97,3.15l0.01,0.74
					c1.18-0.79,2.21-1.74,2.98-2.9c0.8,1.15,1.86,2.11,3.03,2.85L1885.79,1535.43z"/>
				<path class="st2" d="M1885.81,1537.22c-1.26-0.73-2.26-1.87-3.03-3.09c-0.74,1.25-1.75,2.36-2.97,3.15l0.01,0.74
					c1.18-0.79,2.21-1.74,2.98-2.9c0.8,1.15,1.86,2.11,3.03,2.85L1885.81,1537.22z"/>
				<path class="st31" d="M1885.83,1539.01c-1.26-0.73-2.26-1.87-3.03-3.09c-0.74,1.25-1.75,2.36-2.97,3.15l0.01,0.74
					c1.18-0.79,2.21-1.74,2.98-2.9c0.8,1.15,1.86,2.11,3.03,2.85L1885.83,1539.01z"/>
			</g>
		</g>
	</g>
</g>
<rect x="1814.97" y="1093.9" class="st32" width="46.77" height="442.28"/>
<rect x="1808.4" y="1093.9" class="st33" width="20.2" height="442.28"/>
<path class="st25" d="M1531.39,738.54c58.39,0,274.99,295.38,279,325.31c4.03,30.05,18.19,429.88,0.03,447.75"/>
<g>
	<g>
		<line class="st27" x1="1288.67" y1="1224.41" x2="1230.95" y2="1224.41"/>
		<g>
			<polygon points="1233.42,1221.15 1232.04,1224.41 1233.42,1227.67 1225.7,1224.41 			"/>
		</g>
	</g>
</g>
<circle cx="1693.58" cy="1366.25" r="5.67"/>
<g>
	<g>
		<line class="st27" x1="1697.6" y1="1366.25" x2="1808.32" y2="1366.25"/>
		<g>
			<polygon points="1805.85,1369.5 1807.23,1366.25 1805.85,1362.99 1813.57,1366.25 			"/>
		</g>
	</g>
</g>
<circle cx="1277.33" cy="1377.83" r="5.67"/>
<g>
	<g>
		<line class="st27" x1="1277.33" y1="1377.83" x2="1277.33" y2="1526.23"/>
		<g>
			<polygon points="1274.07,1523.76 1277.33,1525.15 1280.59,1523.76 1277.33,1531.49 			"/>
		</g>
	</g>
</g>
<circle cx="1616.05" cy="1224.41" r="5.67"/>
<g>
	<g>
		<line class="st27" x1="1616.05" y1="1224.41" x2="1673.77" y2="1224.41"/>
		<g>
			<polygon points="1671.29,1227.67 1672.68,1224.41 1671.29,1221.15 1679.02,1224.41 			"/>
		</g>
	</g>
</g>
<g>
	<g>
		<polyline class="st27" points="1319.73,1257.93 1319.73,1372.38 1319.73,1492.03 		"/>
		<g>
			<polygon points="1316.47,1260.41 1319.73,1259.02 1322.99,1260.41 1319.73,1252.68 			"/>
		</g>
		<g>
			<g>
				<path class="st34" d="M1319.73,1492.38c1.05,1.54,2.45,2.84,4,3.84v-7.36c-1.67-0.99-2.98-2.53-4-4.17V1492.38z"/>
				<path class="st34" d="M1319.73,1484.7c-1.01,1.65-2.37,3.13-4,4.17v7.35c1.59-1.04,2.97-2.29,4-3.83V1484.7z"/>
				<path d="M1323.73,1488.43c-1.67-0.99-2.98-2.53-4-4.17c-1.01,1.65-2.37,3.13-4,4.17v0.99c1.59-1.04,2.97-2.29,4-3.83
					c1.05,1.54,2.45,2.84,4,3.84V1488.43z"/>
				<path class="st35" d="M1323.73,1490.82c-1.67-0.99-2.98-2.53-4-4.17c-1.01,1.65-2.37,3.13-4,4.17v0.99
					c1.59-1.04,2.97-2.29,4-3.83c1.05,1.54,2.45,2.84,4,3.84V1490.82z"/>
				<path class="st36" d="M1323.73,1493.2c-1.67-0.99-2.98-2.53-4-4.17c-1.01,1.65-2.37,3.13-4,4.17v0.99
					c1.59-1.04,2.97-2.29,4-3.83c1.05,1.54,2.45,2.84,4,3.84V1493.2z"/>
				<path class="st37" d="M1323.73,1495.58c-1.67-0.99-2.98-2.53-4-4.17c-1.01,1.65-2.37,3.13-4,4.17v0.99
					c1.59-1.04,2.97-2.28,4-3.83c1.05,1.54,2.45,2.84,4,3.84V1495.58z"/>
			</g>
		</g>
	</g>
</g>
<g>
	<g>
		<path class="st27" d="M1319.89,1374.64c0-17.83-19.33-20.45-33.06-10.63"/>
		<g>
			<polygon points="1286.74,1359.99 1287.73,1363.39 1290.86,1365.05 1282.81,1367.4 			"/>
		</g>
	</g>
</g>
<circle class="st10" cx="1596.88" cy="1264.51" r="5.67"/>
<g>
	<g>
		<polyline class="st38" points="1591.2,1235.34 1591.2,1360.88 1591.2,1492.03 		"/>
		<g>
			<polygon class="st10" points="1587.95,1237.81 1591.2,1236.42 1594.46,1237.81 1591.2,1230.08 			"/>
		</g>
		<g>
			<g>
				<path class="st29" d="M1591.2,1492.38c1.05,1.54,2.45,2.84,4,3.84v-7.36c-1.67-0.99-2.98-2.53-4-4.17V1492.38z"/>
				<path class="st29" d="M1591.2,1484.7c-1.01,1.65-2.37,3.13-4,4.17v7.35c1.59-1.04,2.97-2.29,4-3.83V1484.7z"/>
				<path class="st10" d="M1595.21,1488.43c-1.67-0.99-2.98-2.53-4-4.17c-1.01,1.65-2.37,3.13-4,4.17v0.99
					c1.59-1.04,2.97-2.29,4-3.83c1.05,1.54,2.45,2.84,4,3.84V1488.43z"/>
				<path class="st30" d="M1595.21,1490.82c-1.67-0.99-2.98-2.53-4-4.17c-1.01,1.65-2.37,3.13-4,4.17v0.99
					c1.59-1.04,2.97-2.29,4-3.83c1.05,1.54,2.45,2.84,4,3.84V1490.82z"/>
				<path class="st2" d="M1595.21,1493.2c-1.67-0.99-2.98-2.53-4-4.17c-1.01,1.65-2.37,3.13-4,4.17v0.99c1.59-1.04,2.97-2.29,4-3.83
					c1.05,1.54,2.45,2.84,4,3.84V1493.2z"/>
				<path class="st31" d="M1595.21,1495.58c-1.67-0.99-2.98-2.53-4-4.17c-1.01,1.65-2.37,3.13-4,4.17v0.99
					c1.59-1.04,2.97-2.29,4-3.83c1.05,1.54,2.45,2.84,4,3.84V1495.58z"/>
			</g>
		</g>
	</g>
</g>
<g>
	<g>
		<path class="st27" d="M1318.81,1368.64c0-33.29,317.79-31.4,364.65-10.04"/>
		<g>
			<polygon points="1679.61,1360.21 1682.47,1358.13 1682.97,1354.62 1687.91,1361.4 			"/>
		</g>
	</g>
</g>
<g>
	<g>
		<path class="st25" d="M1288.67,744.53c-43.68-24.06,38.92,494.51,38.56,624.86"/>
		<g>
			<polygon class="st26" points="1323.91,1366.91 1327.17,1368.29 1330.43,1366.91 1327.17,1374.64 			"/>
		</g>
	</g>
</g>
<g>
	<g>
		<path class="st25" d="M1480.26,761.93c30.46,49.82,139.32,432.38,119.5,490.33"/>
		<g>
			<polygon class="st26" points="1597.75,1248.56 1600.09,1251.21 1603.63,1251.38 1597.35,1256.93 			"/>
		</g>
	</g>
</g>
<g>
	<g>
		<path class="st27" d="M1375.01,1224.41c98.98,59.6,86.75-491.41-68.22-478.35"/>
		<g>
			<polygon points="1308.89,742.59 1307.88,745.99 1309.62,749.07 1301.58,746.7 			"/>
		</g>
	</g>
</g>
<g>
	<g>
		<path class="st27" d="M1548.54,1224.41c-17.46-24.64-101.98-371.51-86.43-449.23"/>
		<g>
			<polygon points="1464.76,778.36 1461.91,776.26 1458.42,776.84 1463.39,770.09 			"/>
		</g>
	</g>
</g>
<g>
	<g>
		<path class="st9" d="M1865.08,1104.81c7.17,12.06,11.98,15.99,15.11,17.28"/>
		<g>
			<g>
				<path class="st29" d="M1880.68,1121.39c1.38-0.23,2.7-0.78,3.87-1.52l-5.02-2.31c-1.2,0.83-2.66,1.24-4.1,1.42L1880.68,1121.39z
					"/>
				<path class="st29" d="M1875.44,1118.98c0.81,1.2,1.39,2.59,1.58,4.04l5,2.31c-0.21-1.41-0.62-2.74-1.35-3.93L1875.44,1118.98z"
					/>
				<path class="st10" d="M1879.25,1117.43c-1.2,0.83-2.66,1.24-4.1,1.42c0.81,1.2,1.39,2.59,1.58,4.04l0.67,0.31
					c-0.21-1.41-0.63-2.74-1.35-3.93c1.38-0.23,2.7-0.78,3.87-1.52L1879.25,1117.43z"/>
				<path class="st30" d="M1880.87,1118.17c-1.2,0.83-2.66,1.24-4.09,1.42c0.81,1.2,1.39,2.59,1.58,4.04l0.67,0.31
					c-0.21-1.41-0.62-2.74-1.35-3.93c1.38-0.23,2.7-0.78,3.87-1.52L1880.87,1118.17z"/>
				<path class="st2" d="M1882.49,1118.92c-1.2,0.83-2.66,1.24-4.09,1.42c0.81,1.2,1.39,2.59,1.58,4.04l0.67,0.31
					c-0.21-1.41-0.62-2.74-1.35-3.93c1.38-0.23,2.7-0.78,3.87-1.52L1882.49,1118.92z"/>
				<path class="st31" d="M1884.11,1119.67c-1.2,0.83-2.66,1.24-4.09,1.42c0.81,1.2,1.39,2.59,1.58,4.04l0.67,0.31
					c-0.21-1.41-0.62-2.74-1.35-3.93c1.38-0.23,2.7-0.78,3.87-1.52L1884.11,1119.67z"/>
			</g>
		</g>
	</g>
</g>
<g>
	<g>
		<path class="st9" d="M1871.15,1183.21c7.43,12.49,13.14,16.37,16.75,17.57"/>
		<g>
			<g>
				<path class="st29" d="M1888.33,1200.19c1.36-0.32,2.65-0.95,3.77-1.77l-5.15-1.99c-1.14,0.9-2.57,1.41-4,1.68L1888.33,1200.19z"
					/>
				<path class="st29" d="M1882.95,1198.11c0.89,1.15,1.55,2.5,1.84,3.93l5.14,1.98c-0.3-1.39-0.8-2.69-1.6-3.83L1882.95,1198.11z"
					/>
				<path class="st10" d="M1886.64,1196.32c-1.14,0.9-2.57,1.41-4,1.68c0.89,1.15,1.55,2.5,1.84,3.93l0.69,0.27
					c-0.3-1.39-0.8-2.69-1.6-3.83c1.36-0.32,2.65-0.95,3.77-1.77L1886.64,1196.32z"/>
				<path class="st30" d="M1888.31,1196.96c-1.14,0.9-2.57,1.41-3.99,1.68c0.89,1.15,1.55,2.5,1.84,3.93l0.69,0.27
					c-0.3-1.39-0.8-2.69-1.6-3.83c1.36-0.32,2.65-0.95,3.77-1.77L1888.31,1196.96z"/>
				<path class="st2" d="M1889.98,1197.6c-1.14,0.9-2.57,1.41-3.99,1.68c0.89,1.15,1.55,2.5,1.84,3.93l0.69,0.27
					c-0.3-1.39-0.8-2.69-1.6-3.83c1.36-0.32,2.65-0.95,3.77-1.77L1889.98,1197.6z"/>
				<path class="st31" d="M1891.65,1198.25c-1.14,0.9-2.57,1.41-3.99,1.68c0.89,1.15,1.55,2.5,1.84,3.93l0.69,0.27
					c-0.3-1.39-0.8-2.69-1.6-3.83c1.36-0.32,2.65-0.95,3.77-1.77L1891.65,1198.25z"/>
			</g>
		</g>
	</g>
</g>
<g>
	<g>
		<path class="st9" d="M1879.7,1351.25c-0.93,15.63-8.09,23.39-12.58,26.21"/>
		<g>
			<g>
				<path class="st29" d="M1866.6,1377.04c-0.54,1.29-0.78,2.7-0.78,4.09l4.63-3.01c-0.06-1.45,0.37-2.91,0.99-4.22L1866.6,1377.04z
					"/>
				<path class="st29" d="M1871.44,1373.9c-1.45,0.04-2.94-0.21-4.26-0.82l-4.62,3c1.3,0.58,2.65,0.93,4.04,0.96L1871.44,1373.9z"/>
				<path class="st10" d="M1870.72,1377.95c-0.06-1.46,0.37-2.91,0.99-4.22c-1.45,0.04-2.93-0.21-4.26-0.82l-0.62,0.4
					c1.3,0.57,2.65,0.93,4.04,0.96c-0.54,1.29-0.79,2.7-0.78,4.09L1870.72,1377.95z"/>
				<path class="st30" d="M1869.22,1378.92c-0.06-1.45,0.37-2.91,0.99-4.22c-1.45,0.04-2.93-0.21-4.26-0.82l-0.62,0.4
					c1.3,0.58,2.65,0.93,4.04,0.96c-0.54,1.29-0.78,2.7-0.78,4.09L1869.22,1378.92z"/>
				<path class="st2" d="M1867.72,1379.89c-0.06-1.45,0.37-2.91,0.99-4.22c-1.45,0.04-2.93-0.21-4.26-0.82l-0.62,0.4
					c1.3,0.58,2.65,0.93,4.04,0.96c-0.54,1.29-0.78,2.7-0.78,4.09L1867.72,1379.89z"/>
				<path class="st31" d="M1866.22,1380.87c-0.06-1.45,0.37-2.91,0.99-4.22c-1.45,0.04-2.93-0.21-4.26-0.82l-0.62,0.4
					c1.3,0.58,2.65,0.93,4.04,0.96c-0.54,1.29-0.78,2.7-0.78,4.09L1866.22,1380.87z"/>
			</g>
		</g>
	</g>
</g>
<g>
	<g>
		<path class="st27" d="M1591.2,1367.44c12.06,17.95,23.02,19.24,29.86,18.41"/>
		<g>
			<g>
				<path class="st34" d="M1621.34,1385.28c1.47-1.14,2.69-2.61,3.6-4.23l-7.35,0.44c-0.89,1.73-2.35,3.13-3.92,4.25
					L1621.34,1385.28z"/>
				<path class="st34" d="M1613.67,1385.74c1.71,0.9,3.27,2.18,4.4,3.75l7.33-0.44c-1.13-1.52-2.46-2.82-4.06-3.77L1613.67,1385.74z
					"/>
				<path d="M1617.16,1381.52c-0.89,1.73-2.35,3.13-3.92,4.25c1.71,0.9,3.26,2.18,4.4,3.75l0.99-0.06
					c-1.13-1.52-2.46-2.82-4.06-3.77c1.48-1.14,2.69-2.61,3.6-4.23L1617.16,1381.52z"/>
				<path class="st35" d="M1619.54,1381.38c-0.89,1.73-2.35,3.13-3.92,4.25c1.71,0.9,3.26,2.18,4.4,3.75l0.99-0.06
					c-1.13-1.52-2.46-2.82-4.06-3.77c1.47-1.14,2.69-2.61,3.6-4.23L1619.54,1381.38z"/>
				<path class="st36" d="M1621.92,1381.23c-0.89,1.73-2.35,3.13-3.92,4.25c1.71,0.9,3.26,2.18,4.4,3.75l0.99-0.06
					c-1.13-1.52-2.46-2.82-4.06-3.77c1.47-1.14,2.69-2.61,3.6-4.23L1621.92,1381.23z"/>
				<path class="st37" d="M1624.3,1381.09c-0.89,1.73-2.35,3.13-3.92,4.25c1.71,0.9,3.26,2.18,4.4,3.75l0.99-0.06
					c-1.13-1.52-2.46-2.82-4.06-3.77c1.48-1.14,2.69-2.61,3.6-4.23L1624.3,1381.09z"/>
			</g>
		</g>
	</g>
</g>
<text transform="matrix(1 0 0 1 1605.1919 1279.0469)" class="st39 st40 st17">M</text>
<text transform="matrix(1 0 0 1 1760.8652 1195.8253)" class="st39 st40 st17">L</text>
<text transform="matrix(1 0 0 1 1756.8652 1270.1873)" class="st39 st40 st17">L’</text>
<text transform="matrix(1 0 0 1 1282.9998 1395.7587)" class="st39 st40 st17">P</text>
<text transform="matrix(1 0 0 1 1375.0146 1245.1028)" class="st39 st40 st17">Q</text>
<text transform="matrix(1 0 0 1 1534.2791 1245.1028)" class="st39 st40 st17">Q</text>
<text transform="matrix(1 0 0 1 1331.0742 1395.7585)" class="st39 st40 st17">N</text>
<text transform="matrix(1 0 0 1 1699.2524 1360.5724)" class="st39 st40 st17">O</text>
<text transform="matrix(1 0 0 1 1619.0979 1245.103)" class="st39 st40 st17">K</text>
<text transform="matrix(1 0 0 1 1170.6418 1204.7372)" class="st39 st40 st17">J</text>
<text transform="matrix(1 0 0 1 1170.6418 1258.8411)" class="st39 st40 st17">J’</text>
<text transform="matrix(1 0 0 1 1282.9993 1215.4589)" class="st39 st40 st17">I</text>
<circle class="st26" cx="1243.09" cy="607.52" r="5.67"/>
<circle class="st26" cx="1288.67" cy="745.83" r="5.67"/>
<circle class="st26" cx="1480.26" cy="763.86" r="5.67"/>
<circle class="st26" cx="1534.68" cy="740.15" r="5.67"/>
<g>
	<circle class="st15" cx="223.97" cy="576.55" r="5.67"/>
	<path class="st5" d="M224.73,578.04c0-9.2,1.2-44.98,5.53-44.98"/>
</g>
<g>
	<circle class="st15" cx="223.97" cy="665.64" r="5.67"/>
	<path class="st5" d="M224.73,667.12c0-9.2,1.2-44.98,5.53-44.98"/>
</g>
<g>
	<g>
		<path class="st5" d="M227.5,622.37h196.36c20,0,27.76,46,41.95,46s54.8,0,62.09,0s15.28-11.01,16.61-13.89
			c1.33-2.88,12.41-24.39,39.46-2.77c27.05,21.62-15.67,43.31-21.03,45.99c-5.36,2.67-11.19,5.68,13.45,5.68h156.91
			c22.44,0,65.82-55.21,85.54-74.93l10.25-10.03c150.28-150.28,540.26-274.8,601.44-11.71"/>
		<g>
			
				<rect x="1425.65" y="605.96" transform="matrix(0.969 -0.2469 0.2469 0.969 -105.5077 371.9775)" class="st15" width="9.75" height="1.5"/>
		</g>
	</g>
</g>
<text transform="matrix(1 0 0 1 90.6338 1198.6268)"><tspan x="0" y="0" class="st40 st41">B) Sym preganglionic</tspan><tspan x="0" y="21.6" class="st40 st41">C) Spinal afferent</tspan><tspan x="0" y="43.2" class="st40 st41">D) Sym postganglionic prevertebral to immune targets</tspan><tspan x="0" y="64.8" class="st40 st41">F) Sym postganglionic prevertebral to vascular smooth muscle</tspan><tspan x="0" y="86.4" class="st40 st41">G) Sym postganglionic prevertebral to myenteric plexus</tspan><tspan x="0" y="108" class="st40 st41">H) Sym postganglionic prevertebral to submucosal plexus</tspan><tspan x="0" y="129.6" class="st40 st41">I) Ascending myenteric interneuron</tspan><tspan x="0" y="151.2" class="st40 st41">J,J’) Excitatory motor neuron to (i) long muscle, (ii) circular muscle</tspan><tspan x="0" y="172.8" class="st40 st41">K) Descending myenteric interneuron</tspan><tspan x="0" y="194.4" class="st40 st41">L,L’) Inhibitory motor neuron to (i) long muscle, (ii) circular muscle</tspan><tspan x="0" y="216" class="st40 st41">M) Myenteric intrinsic primary afferent neuron</tspan><tspan x="0" y="237.6" class="st40 st41">N) Submucosal intrinsic primary afferent neuron</tspan><tspan x="0" y="259.2" class="st40 st41">O) Vasodilatory motor neuron</tspan><tspan x="0" y="280.8" class="st40 st41">P) Secretomotor neuron</tspan><tspan x="0" y="302.4" class="st40 st41">Q) Intestinofugal neuron</tspan></text>
<text transform="matrix(1 0 0 1 1252.5371 627.7062)" class="st39 st40 st17">D</text>
<text transform="matrix(1 0 0 1 1490.7039 770.0915)" class="st39 st40 st17">G</text>
<text transform="matrix(1 0 0 1 1264.1285 742.4256)" class="st39 st40 st17">H</text>
<text transform="matrix(1 0 0 1 1542.8634 729.8996)" class="st39 st40 st17">F</text>
<text transform="matrix(1 0 0 1 808.5286 1025.4589)" class="st39 st40 st17">C</text>
<text transform="matrix(1 0 0 1 820.4142 644.812)" class="st39 st40 st17">B</text>
<g class="st42">
	<g>
		<path class="st43" d="M1178.29,1000.3c-0.28-0.06-0.56-0.11-0.83-0.17"/>
		<path class="st44" d="M1176.47,999.93c-662.39-135.51,1230.7-121.23,631.12-0.2"/>
		<path class="st43" d="M1805.49,1000.15c-0.25,0.05-0.51,0.1-0.76,0.15"/>
	</g>
</g>
<text transform="matrix(1 0 0 1 820.6661 542.5555)" class="st42"><tspan x="0" y="0" class="st45 st12">Lumbar </tspan><tspan x="0" y="12" class="st45 st12">Splanchnic</tspan><tspan x="0" y="24" class="st45 st12">N.</tspan></text>
<text transform="matrix(1 0 0 1 1014.1985 914.5301)" class="st42"><tspan x="0" y="0" class="st45 st12">Lumbar </tspan><tspan x="0" y="12" class="st45 st12">Colonic</tspan><tspan x="0" y="24" class="st45 st12">N.</tspan></text>
<g class="st42">
	<g>
		<path class="st43" d="M872.43,605.58c-0.24,0.23-0.49,0.46-0.73,0.68"/>
		<path class="st46" d="M870.23,607.57c-34.44,29.2-30.62-64.36,0.75-36.76"/>
		<path class="st43" d="M871.71,571.47c0.24,0.22,0.48,0.45,0.73,0.69"/>
	</g>
</g>
</svg>
