<?xml version="1.0" encoding="UTF-8" standalone="no"?>
<!-- Generator: Adobe Illustrator 26.3.1, SVG Export Plug-In . SVG Version: 6.00 Build 0)  -->

<svg
   version="1.1"
   id="Layer_1"
   x="0px"
   y="0px"
   viewBox="0 0 1984.25 1984.25"
   style="enable-background:new 0 0 1984.25 1984.25;"
   xml:space="preserve"
   sodipodi:docname="sawg-stomach.svg"
   inkscape:version="1.2.1 (9c6d41e410, 2022-07-14)"
   xmlns:inkscape="http://www.inkscape.org/namespaces/inkscape"
   xmlns:sodipodi="http://sodipodi.sourceforge.net/DTD/sodipodi-0.dtd"
   xmlns="http://www.w3.org/2000/svg"
   xmlns:svg="http://www.w3.org/2000/svg"><defs
   id="defs402929" /><sodipodi:namedview
   id="namedview402927"
   pagecolor="#ffffff"
   bordercolor="#666666"
   borderopacity="1.0"
   inkscape:showpageshadow="2"
   inkscape:pageopacity="0.0"
   inkscape:pagecheckerboard="0"
   inkscape:deskcolor="#d1d1d1"
   showgrid="false"
   inkscape:zoom="0.49301579"
   inkscape:cx="1093.2713"
   inkscape:cy="1228.1554"
   inkscape:window-width="1920"
   inkscape:window-height="1038"
   inkscape:window-x="1200"
   inkscape:window-y="405"
   inkscape:window-maximized="1"
   inkscape:current-layer="Layer_1" />
<style
   type="text/css"
   id="style402094">
	.st0{fill:#1C75BC;stroke:#000000;stroke-miterlimit:10;}
	.st1{fill:#C2B59B;stroke:#000000;stroke-miterlimit:10;}
	.st2{fill:#F9ED32;stroke:#000000;stroke-miterlimit:10;}
	.st3{fill:#C49A6C;stroke:#000000;stroke-miterlimit:10;}
	.st4{fill:#8DC63F;stroke:#000000;stroke-miterlimit:10;}
	.st5{fill:#808285;stroke:#000000;stroke-miterlimit:10;}
	.st6{fill:#D1D3D4;stroke:#000000;stroke-miterlimit:10;}
	.st7{fill:#6D6E71;stroke:#000000;stroke-miterlimit:10;}
	.st8{fill:#FFFFFF;stroke:#000000;stroke-miterlimit:10;}
	.st9{font-family:'CourierNewPS-BoldMT';}
	.st10{font-size:28px;}
	.st11{font-size:36px;}
	.st12{font-size:24px;}
	.st13{fill:none;stroke:#00AEEF;stroke-width:5;stroke-miterlimit:10;}
	.st14{fill:#00AEEF;}
	.st15{fill:none;stroke:#EC008C;stroke-width:5;stroke-miterlimit:10;}
	.st16{fill:#FFFFFF;}
	.st17{fill:#EC008C;}
	.st18{fill:#EC008C;stroke:#000000;stroke-miterlimit:10;}
	.st19{fill:#00AEEF;stroke:#000000;stroke-miterlimit:10;}
	.st20{font-family:'MyriadPro-Regular';}
	.st21{font-size:16px;}
	.st22{fill:none;stroke:#6D6E71;stroke-width:4;stroke-miterlimit:10;}
	.st23{fill:#6D6E71;}
	.st24{fill:#662D91;stroke:#000000;stroke-miterlimit:10;}
	.st25{fill:none;stroke:#662D91;stroke-width:4;stroke-miterlimit:10;}
	.st26{fill:#662D91;}
	.st27{fill:none;stroke:#000000;stroke-width:4;stroke-miterlimit:10;}
	.st28{stroke:#000000;stroke-miterlimit:10;}
</style>
<rect
   x="895.23999"
   y="543.53998"
   class="st0"
   width="636.95001"
   height="15.38"
   id="rect402096" />
<rect
   x="895.23999"
   y="558.91998"
   class="st1"
   width="636.95001"
   height="326.35001"
   id="rect402098" />
<rect
   x="895.23999"
   y="1385.63"
   class="st1"
   width="636.95001"
   height="326.35001"
   id="rect402100" />
<rect
   x="894.96997"
   y="885.28003"
   class="st2"
   width="636.95001"
   height="500.35001"
   id="rect402102" />
<rect
   x="895.23999"
   y="1711.62"
   class="st3"
   width="636.95001"
   height="31.92"
   id="rect402104" />
<rect
   x="895.23999"
   y="1743.54"
   class="st4"
   width="636.95001"
   height="46.889999"
   id="rect402106" />
<rect
   x="895.23999"
   y="1790.4301"
   class="st5"
   width="636.95001"
   height="90.459999"
   id="rect402108" />
<rect
   x="895.23999"
   y="1859.2"
   class="st6"
   width="636.95001"
   height="65"
   id="rect402110" />
<rect
   x="895.23999"
   y="1837.52"
   class="st7"
   width="636.95001"
   height="43.369999"
   id="rect402112" />
<rect
   x="895.23999"
   y="543.53998"
   class="st0"
   width="636.95001"
   height="15.38"
   id="rect402114" />
<rect
   x="1584.21"
   y="543.53998"
   class="st0"
   width="289.85001"
   height="15.38"
   id="rect402116" />
<rect
   x="1584.21"
   y="558.91998"
   class="st1"
   width="289.85001"
   height="326.35001"
   id="rect402118" />
<rect
   x="1584.21"
   y="1385.63"
   class="st1"
   width="289.85001"
   height="326.35001"
   id="rect402120" />
<rect
   x="1584.21"
   y="885.28003"
   class="st2"
   width="289.85001"
   height="500.35001"
   id="rect402122" />
<rect
   x="1584.21"
   y="1711.62"
   class="st4"
   width="289.85001"
   height="78.809998"
   id="rect402124" />
<rect
   x="1584.21"
   y="1790.4301"
   class="st5"
   width="289.85001"
   height="90.459999"
   id="rect402126" />
<rect
   x="1584.21"
   y="1859.2"
   class="st6"
   width="289.85001"
   height="65"
   id="rect402128" />
<rect
   x="1584.21"
   y="1837.52"
   class="st7"
   width="289.85001"
   height="43.369999"
   id="rect402130" />
<rect
   x="1584.21"
   y="1385.63"
   class="st1"
   width="289.85001"
   height="326.35001"
   id="rect402132" />
<rect
   x="222.5"
   y="329.14001"
   class="st8"
   width="124.83"
   height="109.5"
   id="rect402134" />
<rect
   x="373.5"
   y="416.67999"
   class="st8"
   width="1090.9399"
   height="116.08"
   id="rect402136" />
<text
   transform="rotate(-90)"
   class="st9 st10"
   id="text402138"
   x="-438.63959"
   y="209.05791">NODOSE</text>
<text
   class="st9 st10"
   id="text402140"
   x="430.17059"
   y="52.868">INSULA</text>
<rect
   x="222.5"
   y="195.14"
   class="st8"
   width="124.83"
   height="109.5"
   id="rect402142" />
<text
   transform="rotate(-90)"
   class="st9 st10"
   id="text402144"
   x="-304.36819"
   y="209.05791">NTS</text>
<rect
   x="222.5"
   y="61.150002"
   class="st8"
   width="124.83"
   height="109.5"
   id="rect402146" />
<text
   class="st9 st10"
   id="text402148"
   x="145.1228"
   y="52.868301">PARABRACHIAL</text>
<rect
   x="430.17001"
   y="61.150002"
   class="st8"
   width="291.66"
   height="109.5"
   id="rect402150" />
<text
   class="st9 st11"
   id="text402152"
   x="353.8945"
   y="1965.7083">DISTAL STOMACH</text>
<text
   class="st9 st11"
   id="text402154"
   x="1024.7319"
   y="1965.7083">PROXIMAL STOMACH</text>
<text
   class="st9 st11"
   id="text402156"
   x="1584.2068"
   y="1965.7083">LOWER ESOPHAGUS</text>
<text
   class="st9 st12"
   id="text402158"
   x="81.5103"
   y="558.92322">SEROSA</text>
<text
   id="text402164"
   x="82.035713"
   y="662.06317"><tspan
     x="82.035713"
     y="662.06317"
     class="st9 st12"
     id="tspan402160">LONG.</tspan><tspan
     x="82.035713"
     y="690.86322"
     class="st9 st12"
     id="tspan402162">MUSCLE</tspan></text>
<text
   id="text402170"
   x="82.035713"
   y="1483.0049"><tspan
     x="82.035713"
     y="1483.0049"
     class="st9 st12"
     id="tspan402166">CIRC.</tspan><tspan
     x="82.035713"
     y="1511.8049"
     class="st9 st12"
     id="tspan402168">MUSCLE</tspan></text>
<text
   class="st9 st12"
   id="text402172"
   x="38.828705"
   y="1736.5791">OB.MUSCLE</text>
<text
   class="st9 st12"
   id="text402174"
   x="96.43811"
   y="1914.7363">LUMEN</text>
<text
   class="st9 st12"
   id="text402176"
   x="81.510399"
   y="1867.2043">MUCOSA</text>
<text
   class="st9 st12"
   id="text402178"
   x="52.705704"
   y="1821.9231">M.MUCOSA</text>
<text
   class="st9 st12"
   id="text402180"
   x="38.303299"
   y="1778.8029">SUBMUCOSA</text>
<text
   id="text402186"
   x="38.828705"
   y="1106.2976"><tspan
     x="38.828705"
     y="1106.2976"
     class="st9 st12"
     id="tspan402182">MYENTERIC</tspan><tspan
     x="38.828705"
     y="1135.0977"
     class="st9 st12"
     id="tspan402184">PLEXUS</tspan></text>
<rect
   x="807.07001"
   y="200.84"
   class="st8"
   width="252.63"
   height="148.28"
   id="rect402188" />
<text
   transform="rotate(-90)"
   class="st9 st10"
   id="text402190"
   x="-249.8945"
   y="1088.2229">DMV</text>
<text
   transform="rotate(-90)"
   class="st9 st10"
   id="text402192"
   x="-499.00781"
   y="1490.0637">VAGUS</text>
<g
   id="g402200"
   transform="translate(56,-4)">
	<path
   class="st8"
   d="M 975.12,857.19 H 927.1 c -6.6,0 -12,-5.4 -12,-12 V 699.35 c 0,-6.6 5.4,-12 12,-12 h 48.02 c 6.6,0 12,5.4 12,12 v 145.84 c 0,6.6 -5.4,12 -12,12 z"
   id="path402194" />
	<path
   class="st8"
   d="M 1123.13,738.14 H 1015.7 c -6.6,0 -12,-5.4 -12,-12 v -26.79 c 0,-6.6 5.4,-12 12,-12 h 107.43 c 6.6,0 12,5.4 12,12 v 26.79 c 0,6.6 -5.4,12 -12,12 z"
   id="path402196" />
	<path
   class="st8"
   d="m 1005.07,765.13 c 128.57,-44.44 152.38,9.52 152.38,9.52 v 100.19 h -41.92 v -65.99 c 0,0 2.13,-29.51 -96.18,0 -22.22,6.67 -14.28,-43.72 -14.28,-43.72 z"
   id="path402198" />
</g>
<g
   id="g402208"
   transform="translate(56,-4)">
	<path
   class="st8"
   d="m 975.39,1439.07 h -48.02 c -6.6,0 -12,5.4 -12,12 v 145.84 c 0,6.6 5.4,12 12,12 h 48.02 c 6.6,0 12,-5.4 12,-12 v -145.84 c 0,-6.6 -5.4,-12 -12,-12 z"
   id="path402202" />
	<path
   class="st8"
   d="m 1123.4,1558.12 h -107.43 c -6.6,0 -12,5.4 -12,12 v 26.79 c 0,6.6 5.4,12 12,12 h 107.43 c 6.6,0 12,-5.4 12,-12 v -26.79 c 0,-6.6 -5.4,-12 -12,-12 z"
   id="path402204" />
	<path
   class="st8"
   d="m 1005.34,1531.13 c 128.57,44.44 152.38,-9.52 152.38,-9.52 v -117.19 l -41.92,-0.28 v 83.28 c 0,0 2.13,29.51 -96.18,0 -22.21,-6.68 -14.28,43.71 -14.28,43.71 z"
   id="path402206" />
</g>
<g
   id="g402218"
   transform="translate(56,-4)">
	<g
   id="g402216">
		<path
   class="st13"
   d="m 1215.53,1217.9 c 0,-109.15 0,-355.73 0,-355.73 0,0 0.1,-14.16 -22.23,-21.85"
   id="path402210" />
		<g
   id="g402214">
			<polygon
   class="st14"
   points="1157.73,835.48 1196.11,867.29 1204.46,818.13 "
   id="polygon402212" />
		</g>
	</g>
</g>
<g
   id="g402228"
   transform="translate(56,-4)">
	<g
   id="g402226">
		<path
   class="st13"
   d="m 1215.53,1217.9 c 0,56.32 0,183.53 0,183.53 0,0 0.1,7.25 -22.01,11.23"
   id="path402220" />
		<g
   id="g402224">
			<polygon
   class="st14"
   points="1157.73,1415.21 1202.96,1436.18 1198.49,1386.52 "
   id="polygon402222" />
		</g>
	</g>
</g>
<g
   id="g402242"
   transform="translate(56,-4)">
	<g
   id="g402240">
		<polyline
   class="st15"
   points="1302.27,1161.24 1291.96,1161.24 1244.09,1161.24   "
   id="polyline402230" />
		<g
   id="g402238">
			<g
   id="g402236">
				<polygon
   class="st16"
   points="1297.77,1161.38 1339.63,1186.31 1339.63,1136.45 "
   id="polygon402232" />
				<path
   class="st17"
   d="m 1342.13,1132.05 -49.24,29.33 49.24,29.33 z m -39.47,29.33 34.47,-20.53 v 41.06 z"
   id="path402234" />
			</g>
		</g>
	</g>
</g>
<circle
   class="st18"
   cx="1331.89"
   cy="1157.24"
   r="21.030001"
   id="circle402244" />
<g
   id="g402254"
   transform="translate(56,-4)">
	<g
   id="g402252">
		<path
   class="st15"
   d="m 1244.09,1161.24 c 0,-104.88 0,-341.79 0,-341.79 0,0 -17.66,-21.12 -52.24,-30.85"
   id="path402246" />
		<g
   id="g402250">
			<polygon
   class="st17"
   points="1156.29,783.79 1195.03,815.17 1202.83,765.93 "
   id="polygon402248" />
		</g>
	</g>
</g>
<g
   id="g402264"
   transform="translate(56,-4)">
	<g
   id="g402262">
		<path
   class="st15"
   d="m 1244.09,1081.73 c 0,-104.88 0,-341.79 0,-341.79 0,0 -32.16,-22.13 -74.16,-31.52"
   id="path402256" />
		<g
   id="g402260">
			<polygon
   class="st17"
   points="1134.29,704.28 1173.82,734.66 1180.36,685.23 "
   id="polygon402258" />
		</g>
	</g>
</g>
<g
   id="g402274"
   transform="translate(56,-4)">
	<g
   id="g402272">
		<path
   class="st15"
   d="m 1244.09,1210.68 c 0,104.88 0,341.79 0,341.79 0,0 -30.8,22.05 -72.16,31.47"
   id="path402266" />
		<g
   id="g402270">
			<polygon
   class="st17"
   points="1136.29,1588.13 1182.39,1607.11 1175.77,1557.69 "
   id="polygon402268" />
		</g>
	</g>
</g>
<g
   id="g402284"
   transform="translate(56,-4)">
	<g
   id="g402282">
		<path
   class="st15"
   d="m 1244.09,1161.24 c 0,92.98 0,303.02 0,303.02 0,0 -15.7,13.32 -49.06,19.57"
   id="path402276" />
		<g
   id="g402280">
			<polygon
   class="st17"
   points="1159.29,1487 1204.83,1507.29 1199.63,1457.71 "
   id="polygon402278" />
		</g>
	</g>
</g>
<circle
   class="st19"
   cx="1315.33"
   cy="1213.9"
   r="21.030001"
   id="circle402286" />
<g
   id="g402296"
   transform="translate(56,-4)">
	<g
   id="g402294">
		<path
   class="st15"
   d="m 1244.09,739.12 c 0,-120.52 -268.81,-249.77 -303.04,-94.59"
   id="path402288" />
		<g
   id="g402292">
			<polygon
   class="st17"
   points="937.47,680.23 967.35,640.32 917.85,634.4 "
   id="polygon402290" />
		</g>
	</g>
</g>
<g
   id="g402306"
   transform="translate(56,-4)">
	<g
   id="g402304">
		<path
   class="st15"
   d="m 1244.09,1551.39 c 0,108.45 -264.59,227.28 -302.19,92.03"
   id="path402298" />
		<g
   id="g402302">
			<polygon
   class="st17"
   points="937.48,1607.8 919.18,1654.17 968.5,1646.82 "
   id="polygon402300" />
		</g>
	</g>
</g>
<text
   transform="rotate(-90)"
   id="text402312"
   x="-831.47998"
   y="1000.4225"><tspan
     x="-831.47998"
     y="1000.4225"
     class="st20 st21"
     id="tspan402308">Smooth</tspan><tspan
     x="-831.47998"
     y="1015.4225"
     class="st20 st21"
     id="tspan402310">Muscle</tspan></text>
<text
   transform="rotate(-90)"
   id="text402318"
   x="-1584.1304"
   y="1000.4225"><tspan
     x="-1584.1304"
     y="1000.4225"
     class="st20 st21"
     id="tspan402314">Smooth</tspan><tspan
     x="-1584.1304"
     y="1015.4225"
     class="st20 st21"
     id="tspan402316">Muscle</tspan></text>
<text
   class="st20 st21"
   id="text402320"
   x="1071.6895"
   y="713.37048">PDGFR-alpha</text>
<text
   class="st20 st21"
   id="text402322"
   x="1071.6895"
   y="1584.1299">PDGFR-alpha</text>
<text
   class="st20 st21"
   id="text402324"
   x="1096.5669"
   y="775.10529">ICC-IM</text>
<text
   class="st20 st21"
   id="text402326"
   x="1096.5669"
   y="1519.9888">ICC-IM</text>
<rect
   x="205.74001"
   y="543.53998"
   class="st0"
   width="636.95001"
   height="15.38"
   id="rect402328" />
<rect
   x="205.74001"
   y="558.91998"
   class="st1"
   width="636.95001"
   height="326.35001"
   id="rect402330" />
<rect
   x="205.74001"
   y="1385.63"
   class="st1"
   width="636.95001"
   height="326.35001"
   id="rect402332" />
<rect
   x="205.48"
   y="885.28003"
   class="st2"
   width="636.95001"
   height="500.35001"
   id="rect402334" />
<rect
   x="205.74001"
   y="1711.62"
   class="st3"
   width="636.95001"
   height="31.92"
   id="rect402336" />
<rect
   x="205.74001"
   y="1743.54"
   class="st4"
   width="636.95001"
   height="46.889999"
   id="rect402338" />
<rect
   x="205.74001"
   y="1790.4301"
   class="st5"
   width="636.95001"
   height="90.459999"
   id="rect402340" />
<rect
   x="205.74001"
   y="1859.2"
   class="st6"
   width="636.95001"
   height="65"
   id="rect402342" />
<rect
   x="205.74001"
   y="1837.52"
   class="st7"
   width="636.95001"
   height="43.369999"
   id="rect402344" />
<rect
   x="205.74001"
   y="543.53998"
   class="st0"
   width="636.95001"
   height="15.38"
   id="rect402346" />
<g
   id="g402354"
   transform="translate(56,-4)">
	<path
   class="st8"
   d="M 285.62,857.19 H 237.6 c -6.6,0 -12,-5.4 -12,-12 V 699.35 c 0,-6.6 5.4,-12 12,-12 h 48.02 c 6.6,0 12,5.4 12,12 v 145.84 c 0,6.6 -5.4,12 -12,12 z"
   id="path402348" />
	<path
   class="st8"
   d="M 433.63,738.14 H 326.19 c -6.6,0 -12,-5.4 -12,-12 v -26.79 c 0,-6.6 5.4,-12 12,-12 h 107.43 c 6.6,0 12,5.4 12,12 v 26.79 c 0.01,6.6 -5.39,12 -11.99,12 z"
   id="path402350" />
	<path
   class="st8"
   d="m 315.57,765.13 c 128.57,-44.44 152.38,9.52 152.38,9.52 v 100.19 h -41.92 v -65.99 c 0,0 2.13,-29.51 -96.18,0 -22.21,6.67 -14.28,-43.72 -14.28,-43.72 z"
   id="path402352" />
</g>
<g
   id="g402362"
   transform="translate(56,-4)">
	<path
   class="st8"
   d="m 285.89,1439.07 h -48.02 c -6.6,0 -12,5.4 -12,12 v 145.84 c 0,6.6 5.4,12 12,12 h 48.02 c 6.6,0 12,-5.4 12,-12 v -145.84 c 0,-6.6 -5.4,-12 -12,-12 z"
   id="path402356" />
	<path
   class="st8"
   d="M 433.9,1558.12 H 326.47 c -6.6,0 -12,5.4 -12,12 v 26.79 c 0,6.6 5.4,12 12,12 H 433.9 c 6.6,0 12,-5.4 12,-12 v -26.79 c 0,-6.6 -5.4,-12 -12,-12 z"
   id="path402358" />
	<path
   class="st8"
   d="m 315.85,1531.13 c 128.57,44.44 152.38,-9.52 152.38,-9.52 v -117.19 l -41.92,-0.28 v 83.28 c 0,0 2.13,29.51 -96.18,0 -22.22,-6.68 -14.28,43.71 -14.28,43.71 z"
   id="path402360" />
</g>
<path
   class="st8"
   d="m 284.19,1854.92 h -48.02 c -6.6,0 -12,5.4 -12,12 v 21.61 c 0,6.6 5.4,12 12,12 h 48.02 c 6.6,0 12,-5.4 12,-12 v -21.61 c 0,-6.6 -5.4,-12 -12,-12 z"
   id="path402364" />
<path
   class="st8"
   d="m 404.29,1854.92 h -48.02 c -6.6,0 -12,5.4 -12,12 v 21.61 c 0,6.6 5.4,12 12,12 h 48.02 c 6.6,0 12,-5.4 12,-12 v -21.61 c 0,-6.6 -5.4,-12 -12,-12 z"
   id="path402366" />
<path
   class="st8"
   d="M 590.83,1854.92 H 476.37 c -6.6,0 -12,5.4 -12,12 v 21.61 c 0,6.6 5.4,12 12,12 h 114.46 c 6.6,0 12,-5.4 12,-12 v -21.61 c 0,-6.6 -5.4,-12 -12,-12 z"
   id="path402368" />
<g
   id="g402386"
   transform="translate(56,-4)">
	<g
   id="g402384">
		<path
   class="st13"
   d="M 601.96,1217.9 H 526.8 443.14 c -236.52,0 -429.61,347.49 -59.62,610.59"
   id="path402370" />
		<g
   id="g402378">
			<g
   id="g402376">
				<polygon
   class="st16"
   points="597.47,1218.04 639.32,1242.97 639.32,1193.11 "
   id="polygon402372" />
				<path
   class="st14"
   d="m 641.82,1188.72 -49.24,29.33 49.24,29.33 z m -39.46,29.32 34.47,-20.53 v 41.06 z"
   id="path402374" />
			</g>
		</g>
		<g
   id="g402382">
			<polygon
   class="st14"
   points="413.21,1848.64 391.67,1803.68 363.51,1844.82 "
   id="polygon402380" />
		</g>
	</g>
</g>
<g
   id="g402396"
   transform="translate(56,-4)">
	<g
   id="g402394">
		<path
   class="st13"
   d="m 526.03,1217.9 c 0,-109.15 0,-355.73 0,-355.73 0,0 0.1,-14.16 -22.23,-21.85"
   id="path402388" />
		<g
   id="g402392">
			<polygon
   class="st14"
   points="468.23,835.48 506.62,867.29 514.97,818.13 "
   id="polygon402390" />
		</g>
	</g>
</g>
<g
   id="g402406"
   transform="translate(56,-4)">
	<g
   id="g402404">
		<path
   class="st13"
   d="m 526.03,1217.9 c 0,56.32 0,183.53 0,183.53 0,0 0.1,7.25 -22.01,11.23"
   id="path402398" />
		<g
   id="g402402">
			<polygon
   class="st14"
   points="468.23,1415.21 513.46,1436.18 509,1386.52 "
   id="polygon402400" />
		</g>
	</g>
</g>
<g
   id="g402420"
   transform="translate(56,-4)">
	<g
   id="g402418">
		<line
   class="st15"
   x1="612.77002"
   y1="1161.24"
   x2="554.59003"
   y2="1161.24"
   id="line402408" />
		<g
   id="g402416">
			<g
   id="g402414">
				<polygon
   class="st16"
   points="608.28,1161.38 650.13,1186.31 650.13,1136.45 "
   id="polygon402410" />
				<path
   class="st17"
   d="m 652.63,1132.05 -49.24,29.33 49.24,29.33 z m -39.47,29.33 34.47,-20.53 v 41.06 z"
   id="path402412" />
			</g>
		</g>
	</g>
</g>
<circle
   class="st18"
   cx="642.40002"
   cy="1157.24"
   r="21.030001"
   id="circle402422" />
<g
   id="g402432"
   transform="translate(56,-4)">
	<g
   id="g402430">
		<path
   class="st15"
   d="m 554.59,1161.24 c 0,-104.88 0,-341.79 0,-341.79 0,0 -17.66,-21.12 -52.24,-30.85"
   id="path402424" />
		<g
   id="g402428">
			<polygon
   class="st17"
   points="466.79,783.79 505.53,815.17 513.33,765.93 "
   id="polygon402426" />
		</g>
	</g>
</g>
<g
   id="g402442"
   transform="translate(56,-4)">
	<g
   id="g402440">
		<path
   class="st15"
   d="m 554.59,1081.73 c 0,-104.88 0,-341.79 0,-341.79 0,0 -32.16,-22.13 -74.16,-31.52"
   id="path402434" />
		<g
   id="g402438">
			<polygon
   class="st17"
   points="444.79,704.28 484.32,734.66 490.86,685.23 "
   id="polygon402436" />
		</g>
	</g>
</g>
<g
   id="g402452"
   transform="translate(56,-4)">
	<g
   id="g402450">
		<path
   class="st15"
   d="m 554.59,1210.68 c 0,104.88 0,341.79 0,341.79 0,0 -30.8,22.05 -72.16,31.47"
   id="path402444" />
		<g
   id="g402448">
			<polygon
   class="st17"
   points="446.79,1588.13 492.89,1607.11 486.27,1557.69 "
   id="polygon402446" />
		</g>
	</g>
</g>
<g
   id="g402462"
   transform="translate(56,-4)">
	<g
   id="g402460">
		<path
   class="st15"
   d="m 554.59,1161.24 c 0,92.98 0,303.02 0,303.02 0,0 -15.7,13.32 -49.06,19.57"
   id="path402454" />
		<g
   id="g402458">
			<polygon
   class="st17"
   points="469.79,1487 515.33,1507.29 510.13,1457.71 "
   id="polygon402456" />
		</g>
	</g>
</g>
<circle
   class="st19"
   cx="625.84003"
   cy="1213.9"
   r="21.030001"
   id="circle402464" />
<g
   id="g402474"
   transform="translate(56,-4)">
	<g
   id="g402472">
		<path
   class="st15"
   d="M 554.59,739.12 C 554.59,618.6 285.78,489.35 251.55,644.53"
   id="path402466" />
		<g
   id="g402470">
			<polygon
   class="st17"
   points="247.97,680.23 277.86,640.32 228.35,634.4 "
   id="polygon402468" />
		</g>
	</g>
</g>
<g
   id="g402484"
   transform="translate(56,-4)">
	<g
   id="g402482">
		<path
   class="st15"
   d="m 554.59,1551.39 c 0,108.45 -264.59,227.28 -302.19,92.03"
   id="path402476" />
		<g
   id="g402480">
			<polygon
   class="st17"
   points="247.98,1607.8 229.69,1654.17 279,1646.82 "
   id="polygon402478" />
		</g>
	</g>
</g>
<g
   id="g402494"
   transform="translate(56,-4)">
	<g
   id="g402492">
		<path
   class="st15"
   d="m 554.59,1551.39 c 0,108.89 0.17,130.12 -68.78,269.56"
   id="path402486" />
		<g
   id="g402490">
			<polygon
   class="st17"
   points="469.79,1853.04 511.28,1825.41 466.6,1803.29 "
   id="polygon402488" />
		</g>
	</g>
</g>
<text
   transform="rotate(-90)"
   id="text402500"
   x="-831.47998"
   y="310.9259"><tspan
     x="-831.47998"
     y="310.9259"
     class="st20 st21"
     id="tspan402496">Smooth</tspan><tspan
     x="-831.47998"
     y="325.9259"
     class="st20 st21"
     id="tspan402498">Muscle</tspan></text>
<text
   transform="rotate(-90)"
   id="text402506"
   x="-1584.1304"
   y="310.9259"><tspan
     x="-1584.1304"
     y="310.9259"
     class="st20 st21"
     id="tspan402502">Smooth</tspan><tspan
     x="-1584.1304"
     y="325.9259"
     class="st20 st21"
     id="tspan402504">Muscle</tspan></text>
<text
   class="st20 st21"
   id="text402508"
   x="382.1929"
   y="713.37048">PDGFR-alpha</text>
<text
   class="st20 st21"
   id="text402510"
   x="382.1929"
   y="1584.1299">PDGFR-alpha</text>
<text
   id="text402520"
   x="492.5264"
   y="1102.762"><tspan
     x="492.5264"
     y="1102.762"
     class="st20 st21"
     id="tspan402512">Inhibitory</tspan><tspan
     x="492.5264"
     y="1117.762"
     class="st20 st21"
     id="tspan402514">Gastric</tspan><tspan
     x="492.5264"
     y="1132.762"
     class="st20 st21"
     id="tspan402516">Ganglionic</tspan><tspan
     x="492.5264"
     y="1147.762"
     class="st20 st21"
     id="tspan402518">Neuron</tspan></text>
<text
   id="text402530"
   x="492.52731"
   y="1233.936"><tspan
     x="492.52731"
     y="1233.936"
     class="st20 st21"
     id="tspan402522">Excitatory</tspan><tspan
     x="492.52731"
     y="1248.936"
     class="st20 st21"
     id="tspan402524">Gastric</tspan><tspan
     x="492.52731"
     y="1263.936"
     class="st20 st21"
     id="tspan402526">Ganglionic</tspan><tspan
     x="492.52731"
     y="1278.936"
     class="st20 st21"
     id="tspan402528">Neuron</tspan></text>
<text
   class="st20 st21"
   id="text402532"
   x="407.07031"
   y="775.10529">ICC-IM</text>
<text
   class="st20 st21"
   id="text402534"
   x="235.14639"
   y="1884.0676">Parietal</text>
<text
   class="st20 st21"
   id="text402536"
   x="357.39771"
   y="1884.0676">Chief</text>
<path
   class="st8"
   d="m 974.35,1854.92 h -48.02 c -6.6,0 -12,5.4 -12,12 v 21.61 c 0,6.6 5.4,12 12,12 h 48.02 c 6.6,0 12,-5.4 12,-12 v -21.61 c 0,-6.6 -5.4,-12 -12,-12 z"
   id="path402538" />
<path
   class="st8"
   d="m 1094.45,1854.92 h -48.02 c -6.6,0 -12,5.4 -12,12 v 21.61 c 0,6.6 5.4,12 12,12 h 48.02 c 6.6,0 12,-5.4 12,-12 v -21.61 c 0,-6.6 -5.4,-12 -12,-12 z"
   id="path402540" />
<text
   class="st20 st21"
   id="text402542"
   x="925.30627"
   y="1884.0676">Parietal</text>
<text
   class="st20 st21"
   id="text402544"
   x="1047.5576"
   y="1884.0676">Chief</text>
<text
   id="text402550"
   x="477.70432"
   y="1876.5676"><tspan
     x="477.70432"
     y="1876.5676"
     class="st20 st21"
     id="tspan402546">Enteroendocrine</tspan><tspan
     x="477.70432"
     y="1891.5676"
     class="st20 st21"
     id="tspan402548">cell</tspan></text>
<g
   id="g402568"
   transform="translate(56,-4)">
	<g
   id="g402566">
		<path
   class="st22"
   d="M 218.43,99.95 C 270.83,87.6 383.84,76.89 435.19,91.13"
   id="path402552" />
		<g
   id="g402560">
			<g
   id="g402558">
				<polygon
   class="st16"
   points="220.53,99.43 197.95,93.36 204.43,116.39 "
   id="polygon402554" />
				<path
   class="st23"
   d="M 203.85,118.75 222.79,98.8 196.22,91.65 Z m 14.42,-18.68 -13.26,13.97 -5.34,-18.97 z"
   id="path402556" />
			</g>
		</g>
		<g
   id="g402564">
			<polygon
   class="st23"
   points="454.77,100.09 436.85,76.14 425.06,103.64 "
   id="polygon402562" />
		</g>
	</g>
</g>
<g
   id="g402586"
   transform="translate(56,-4)">
	<g
   id="g402584">
		<path
   class="st22"
   d="m 248.5,263.93 c 93.14,2.08 457.7,-47.12 546.82,-29.07"
   id="path402570" />
		<g
   id="g402578">
			<g
   id="g402576">
				<polygon
   class="st16"
   points="250.68,263.83 231.89,249.9 229.48,273.71 "
   id="polygon402572" />
				<path
   class="st23"
   d="M 228.07,275.69 253,264.07 230.9,247.68 Z m 20.27,-12.1 -17.45,8.14 1.99,-19.61 z"
   id="path402574" />
			</g>
		</g>
		<g
   id="g402582">
			<polygon
   class="st23"
   points="814.58,244.51 797.18,220.17 784.81,247.4 "
   id="polygon402580" />
		</g>
	</g>
</g>
<g
   id="g402604"
   transform="translate(56,-4)">
	<g
   id="g402602">
		<path
   class="st22"
   d="m 193.42,250.48 c -9.63,-33.63 -13.28,-74.38 0.21,-105.49"
   id="path402588" />
		<g
   id="g402596">
			<g
   id="g402594">
				<polygon
   class="st16"
   points="192.83,248.4 187.61,271.2 210.39,263.85 "
   id="polygon402590" />
				<path
   class="st23"
   d="m 212.77,264.34 -20.65,-18.17 -6.14,26.82 z m -19.22,-13.7 14.46,12.72 -18.76,6.05 z"
   id="path402592" />
			</g>
		</g>
		<g
   id="g402600">
			<polygon
   class="st23"
   points="204.72,126.54 178.86,141.57 204.82,156.45 "
   id="polygon402598" />
		</g>
	</g>
</g>
<g
   id="g402622"
   transform="translate(56,-4)">
	<g
   id="g402620">
		<path
   class="st22"
   d="m 485.2,114.76 c -52.4,12.35 -165.41,23.06 -216.76,8.82"
   id="path402606" />
		<g
   id="g402614">
			<g
   id="g402612">
				<polygon
   class="st16"
   points="483.1,115.27 505.68,121.35 499.2,98.31 "
   id="polygon402608" />
				<path
   class="st23"
   d="m 499.78,95.95 -18.94,19.95 26.57,7.15 z m -14.42,18.69 13.26,-13.97 5.34,18.97 z"
   id="path402610" />
			</g>
		</g>
		<g
   id="g402618">
			<polygon
   class="st23"
   points="248.86,114.61 266.78,138.56 278.56,111.07 "
   id="polygon402616" />
		</g>
	</g>
</g>
<g
   id="g402640"
   transform="translate(56,-4)">
	<g
   id="g402638">
		<path
   class="st22"
   d="M 563.21,110.65 C 545,259.56 335.09,246.06 258.93,232.85"
   id="path402624" />
		<g
   id="g402632">
			<g
   id="g402630">
				<polygon
   class="st16"
   points="562.93,112.79 576.37,93.66 552.51,91.85 "
   id="polygon402626" />
				<path
   class="st23"
   d="m 550.49,90.5 12.26,24.63 15.82,-22.51 z m 12.61,19.95 -8.58,-17.24 19.65,1.48 z"
   id="path402628" />
			</g>
		</g>
		<g
   id="g402636">
			<polygon
   class="st23"
   points="237.88,228.39 260.27,248.23 266.25,218.91 "
   id="polygon402634" />
		</g>
	</g>
</g>
<circle
   class="st7"
   cx="296.77002"
   cy="83.339996"
   r="14.55"
   id="circle402642" />
<circle
   class="st7"
   cx="504.42004"
   cy="126.37"
   r="14.55"
   id="circle402644" />
<circle
   class="st7"
   cx="329.17999"
   cy="270.20001"
   r="14.55"
   id="circle402646" />
<circle
   class="st7"
   cx="616.58002"
   cy="137.87"
   r="14.55"
   id="circle402648" />
<circle
   class="st7"
   cx="252.88"
   cy="222"
   r="14.55"
   id="circle402650" />
<circle
   class="st24"
   cx="256.04999"
   cy="393.23999"
   r="14.55"
   id="circle402652" />
<g
   id="g402670"
   transform="translate(56,-4)">
	<g
   id="g402668">
		<path
   class="st25"
   d="m 1647.15,1642.99 c -14.86,-11.22 -26.17,-54.03 -26.17,-216.58 0,-155.72 2.36,-526.6 -35.72,-743.2 -17.31,-98.45 -42.97,-165.03 -81,-165.03 H 1475.92 297.89 287.73 c -102.68,0 -112.06,-158.94 -92.34,-221.69"
   id="path402654" />
		<g
   id="g402662">
			<g
   id="g402660">
				<polygon
   class="st16"
   points="1645.37,1641.22 1661.46,1658.18 1667.95,1635.15 "
   id="polygon402656" />
				<path
   class="st26"
   d="m 1669.68,1633.44 -26.57,7.14 18.94,19.96 z m -22.05,8.41 18.6,-5 -5.34,18.97 z"
   id="path402658" />
			</g>
		</g>
		<g
   id="g402666">
			<polygon
   class="st26"
   points="204.72,277.08 180.4,294.5 207.64,306.85 "
   id="polygon402664" />
		</g>
	</g>
</g>
<g
   id="g402684"
   transform="translate(56,-4)">
	<g
   id="g402682">
		<path
   class="st25"
   d="m 1583.78,675.75 c 8.17,42.78 25.72,110.97 49.16,134.96"
   id="path402672" />
		<g
   id="g402680">
			<g
   id="g402678">
				<polygon
   class="st16"
   points="1631.51,808.82 1654.89,808.34 1643.07,829.15 "
   id="polygon402674" />
				<path
   class="st26"
   d="m 1643.07,831.58 -13.6,-23.92 27.51,-0.57 z m -9.52,-21.6 9.52,16.74 9.74,-17.14 z"
   id="path402676" />
			</g>
		</g>
	</g>
</g>
<g
   id="g402698"
   transform="translate(56,-4)">
	<g
   id="g402696">
		<path
   class="st25"
   d="m 590.87,518.19 c 160.2,0 146.5,745.51 146.5,897.03 0,143.45 -138.29,156.06 -244.23,113.78"
   id="path402686" />
		<g
   id="g402694">
			<g
   id="g402692">
				<polygon
   class="st16"
   points="495.13,1529.83 471.95,1532.88 481.4,1510.9 "
   id="polygon402688" />
				<path
   class="st26"
   d="m 481.13,1508.48 16.15,22.27 -27.28,3.6 z m 11.85,20.42 -11.31,-15.59 -7.79,18.11 z"
   id="path402690" />
			</g>
		</g>
	</g>
</g>
<g
   id="g402712"
   transform="translate(56,-4)">
	<g
   id="g402710">
		<path
   class="st25"
   d="m 669.76,602.4 c 18.1,74.99 -72.27,145.27 -180.4,156.61"
   id="path402700" />
		<g
   id="g402708">
			<g
   id="g402706">
				<polygon
   class="st16"
   points="491.5,758.82 472.38,772.29 470.56,748.42 "
   id="polygon402702" />
				<path
   class="st26"
   d="m 469.2,746.41 24.64,12.24 -22.5,15.84 z m 19.96,12.59 -17.25,-8.57 1.5,19.65 z"
   id="path402704" />
			</g>
		</g>
	</g>
</g>
<g
   id="g402726"
   transform="translate(56,-4)">
	<g
   id="g402724">
		<path
   class="st25"
   d="m 711.68,795.85 c 18.16,75.25 1.87,150.77 -59.39,226.01"
   id="path402714" />
		<g
   id="g402722">
			<g
   id="g402720">
				<path
   class="st16"
   d="m 641.28,1011.49 c -5.34,6.36 -4.52,15.85 1.84,21.19 6.36,5.34 15.85,4.52 21.19,-1.84 5.34,-6.36 4.52,-15.85 -1.84,-21.19 -6.36,-5.34 -15.85,-4.52 -21.19,1.84 z"
   id="path402716" />
				<path
   class="st26"
   d="m 639.74,1010.2 c 6.04,-7.19 16.82,-8.12 24.01,-2.08 7.19,6.04 8.12,16.82 2.08,24.01 -6.04,7.19 -16.82,8.12 -24.01,2.08 -7.19,-6.04 -8.12,-16.81 -2.08,-24.01 6.05,-7.19 -6.04,7.2 0,0 z m 23.03,19.36 c 4.63,-5.5 3.91,-13.74 -1.59,-18.37 -5.51,-4.63 -13.74,-3.91 -18.37,1.59 -4.63,5.51 -3.91,13.74 1.59,18.37 5.5,4.63 13.74,3.91 18.37,-1.59 4.63,-5.51 -4.63,5.5 0,0 z"
   id="path402718" />
			</g>
		</g>
	</g>
</g>
<g
   id="g402740"
   transform="translate(56,-4)">
	<g
   id="g402738">
		<path
   class="st25"
   d="m 1402.3,795.85 c 18.16,75.25 1.87,150.77 -59.39,226.01"
   id="path402728" />
		<g
   id="g402736">
			<g
   id="g402734">
				<path
   class="st16"
   d="m 1331.89,1011.49 c -5.34,6.36 -4.52,15.85 1.84,21.19 6.36,5.34 15.85,4.52 21.19,-1.84 5.34,-6.36 4.52,-15.85 -1.84,-21.19 -6.36,-5.34 -15.85,-4.52 -21.19,1.84 z"
   id="path402730" />
				<path
   class="st26"
   d="m 1330.36,1010.2 c 6.04,-7.19 16.82,-8.12 24.01,-2.08 7.19,6.04 8.12,16.82 2.08,24.01 -6.04,7.19 -16.82,8.12 -24.01,2.08 -7.19,-6.04 -8.12,-16.81 -2.08,-24.01 6.04,-7.19 -6.04,7.2 0,0 z m 23.02,19.36 c 4.63,-5.5 3.91,-13.74 -1.59,-18.37 -5.51,-4.63 -13.74,-3.91 -18.37,1.59 -4.63,5.51 -3.91,13.74 1.59,18.37 5.5,4.63 13.75,3.91 18.37,-1.59 4.63,-5.51 -4.62,5.5 0,0 z"
   id="path402732" />
			</g>
		</g>
	</g>
</g>
<g
   id="g402754"
   transform="translate(56,-4)">
	<g
   id="g402752">
		<path
   class="st25"
   d="m 737.66,1404.13 c 0,74.67 63.58,378.39 -19.51,453.39"
   id="path402742" />
		<g
   id="g402750">
			<g
   id="g402748">
				<polygon
   class="st16"
   points="719.74,1856.03 710.09,1877.33 696.41,1857.69 "
   id="polygon402744" />
				<path
   class="st26"
   d="m 694.22,1856.65 27.44,-1.96 -11.35,25.06 z m 23.59,0.72 -19.21,1.37 11.27,16.17 z"
   id="path402746" />
			</g>
		</g>
	</g>
</g>
<g
   id="g402768"
   transform="translate(56,-4)">
	<g
   id="g402766">
		<path
   class="st25"
   d="m 1428.15,1404.13 c 0,74.67 63.58,378.39 -19.51,453.39"
   id="path402756" />
		<g
   id="g402764">
			<g
   id="g402762">
				<polygon
   class="st16"
   points="1410.23,1856.03 1400.59,1877.33 1386.91,1857.69 "
   id="polygon402758" />
				<path
   class="st26"
   d="m 1384.72,1856.65 27.44,-1.96 -11.34,25.06 z m 23.59,0.72 -19.21,1.37 11.27,16.17 z"
   id="path402760" />
			</g>
		</g>
	</g>
</g>
<g
   id="g402782"
   transform="translate(56,-4)">
	<g
   id="g402780">
		<path
   class="st25"
   d="m 1281.83,518.19 c 160.2,0 146.5,745.51 146.5,897.03 0,143.45 -138.29,156.06 -244.23,113.78"
   id="path402770" />
		<g
   id="g402778">
			<g
   id="g402776">
				<polygon
   class="st16"
   points="1186.1,1529.83 1162.91,1532.88 1172.37,1510.9 "
   id="polygon402772" />
				<path
   class="st26"
   d="m 1172.1,1508.48 16.15,22.27 -27.28,3.6 z m 11.84,20.42 -11.31,-15.59 -7.79,18.11 z"
   id="path402774" />
			</g>
		</g>
	</g>
</g>
<g
   id="g402796"
   transform="translate(56,-4)">
	<g
   id="g402794">
		<path
   class="st25"
   d="m 1360.72,602.4 c 18.1,74.99 -72.27,145.27 -180.4,156.61"
   id="path402784" />
		<g
   id="g402792">
			<g
   id="g402790">
				<polygon
   class="st16"
   points="1182.47,758.82 1163.34,772.29 1161.52,748.42 "
   id="polygon402786" />
				<path
   class="st26"
   d="m 1160.17,746.41 24.64,12.24 -22.5,15.84 z m 19.96,12.59 -17.25,-8.57 1.5,19.65 z"
   id="path402788" />
			</g>
		</g>
	</g>
</g>
<g
   id="g402814"
   transform="translate(56,-4)">
	<g
   id="g402812">
		<path
   class="st27"
   d="M 771.14,293.33 C 764.52,602.95 600.72,945.55 586.8,1114.9"
   id="path402798" />
		<g
   id="g402806">
			<g
   id="g402804">
				<polygon
   class="st16"
   points="771.05,295.48 783.36,275.6 759.43,275.19 "
   id="polygon402800" />
				<path
   d="m 757.34,273.95 13.67,23.88 14.48,-23.39 z m 13.75,19.19 -9.57,-16.71 19.71,0.34 z"
   id="path402802" />
			</g>
		</g>
		<g
   id="g402810">
			<polygon
   points="585.87,1136.4 602.19,1111.34 572.32,1109.73 "
   id="polygon402808" />
		</g>
	</g>
</g>
<g
   id="g402832"
   transform="translate(56,-4)">
	<g
   id="g402830">
		<path
   class="st27"
   d="m 915.74,293.32 c 20.37,292.88 517.46,-20.26 370.93,821.89"
   id="path402816" />
		<g
   id="g402824">
			<g
   id="g402822">
				<polygon
   class="st16"
   points="916.08,295.46 927.17,274.88 903.26,275.91 "
   id="polygon402818" />
				<path
   d="m 901.1,274.8 15.08,23.01 13.05,-24.22 z m 14.88,18.32 -10.56,-16.1 19.69,-0.85 z"
   id="path402820" />
			</g>
		</g>
		<g
   id="g402828">
			<polygon
   points="1282.89,1136.4 1302.08,1113.45 1272.61,1108.31 "
   id="polygon402826" />
		</g>
	</g>
</g>
<g
   id="g402850"
   transform="translate(56,-4)">
	<g
   id="g402848">
		<path
   class="st27"
   d="m 960.93,269.88 c 591.76,-123.35 602.71,1202.28 331.06,986.46"
   id="path402834" />
		<g
   id="g402842">
			<g
   id="g402840">
				<polygon
   class="st16"
   points="963.04,269.45 940.81,262.19 946.07,285.54 "
   id="polygon402836" />
				<path
   d="m 945.37,287.86 19.96,-18.93 -26.15,-8.53 z m 15.38,-17.9 -13.97,13.25 -4.34,-19.23 z"
   id="path402838" />
			</g>
		</g>
		<g
   id="g402846">
			<polygon
   points="1275.89,1242.04 1285.61,1270.33 1305.25,1247.77 "
   id="polygon402844" />
		</g>
	</g>
</g>
<g
   id="g402868"
   transform="translate(56,-4)">
	<g
   id="g402866">
		<path
   class="st27"
   d="m 809.57,292.72 c -85.91,352.2 -83.62,1391.46 -220.22,974.75"
   id="path402852" />
		<g
   id="g402860">
			<g
   id="g402858">
				<polygon
   class="st16"
   points="809.17,294.85 825.71,278.32 802.52,272.43 "
   id="polygon402854" />
				<path
   d="m 800.77,270.74 7.82,26.38 19.47,-19.44 z m 8.97,21.83 -5.47,-18.46 19.1,4.86 z"
   id="path402856" />
			</g>
		</g>
		<g
   id="g402864">
			<polygon
   points="582.87,1246.94 576.48,1276.16 604.99,1267.07 "
   id="polygon402862" />
		</g>
	</g>
</g>
<circle
   transform="rotate(-9.2183636)"
   class="st28"
   cx="774.10138"
   cy="442.15097"
   id="ellipse402870"
   r="14.550221"
   style="stroke-width:1.00002" />
<circle
   transform="rotate(-9.2183636)"
   class="st28"
   cx="810.09119"
   cy="447.99069"
   id="ellipse402872"
   r="14.550221"
   style="stroke-width:1.00002" />
<circle
   transform="rotate(-9.2183636)"
   class="st28"
   cx="919.73834"
   cy="465.78336"
   id="ellipse402874"
   r="14.550221"
   style="stroke-width:1.00002" />
<circle
   transform="rotate(-9.2183636)"
   class="st28"
   cx="985.07867"
   cy="433.03714"
   id="ellipse402876"
   r="14.550221"
   style="stroke-width:1.00002" />
<g
   id="g402886"
   transform="translate(56,-4)">
	<g
   id="g402884">
		<path
   class="st13"
   d="m 181.36,1552.8 c 0,104.21 -2.97,198.4 9.43,265.55"
   id="path402878" />
		<g
   id="g402882">
			<polygon
   class="st14"
   points="199.51,1853.16 213.69,1805.36 165.2,1816.99 "
   id="polygon402880" />
		</g>
	</g>
</g>
<g
   id="g402896"
   transform="translate(56,-4)">
	<g
   id="g402894">
		<path
   class="st13"
   d="m 865,1552.69 c 0,104.21 -2.97,198.4 9.43,265.55"
   id="path402888" />
		<g
   id="g402892">
			<polygon
   class="st14"
   points="883.14,1853.04 897.32,1805.25 848.84,1816.87 "
   id="polygon402890" />
		</g>
	</g>
</g>
<g
   id="g402906"
   transform="translate(56,-4)">
	<g
   id="g402904">
		<path
   class="st13"
   d="m 212.3,1640.88 c 30.56,67.2 48.8,125.4 68.71,174.84"
   id="path402898" />
		<g
   id="g402902">
			<polygon
   class="st14"
   points="295.27,1848.64 301.25,1799.14 255.4,1818.72 "
   id="polygon402900" />
		</g>
	</g>
</g>
<g
   id="g402924"
   transform="translate(56,-4)">
	<g
   id="g402922">
		<path
   class="st13"
   d="m 1295.49,1217.9 h -75.16 -83.66 c -234.83,0 -375.3,309.91 -178.88,605.9"
   id="path402908" />
		<g
   id="g402916">
			<g
   id="g402914">
				<polygon
   class="st16"
   points="1291,1218.04 1332.85,1242.97 1332.85,1193.11 "
   id="polygon402910" />
				<path
   class="st14"
   d="m 1335.35,1188.72 -49.24,29.33 49.24,29.33 z m -39.46,29.32 34.47,-20.53 v 41.06 z"
   id="path402912" />
			</g>
		</g>
		<g
   id="g402920">
			<polygon
   class="st14"
   points="978.43,1853.16 974.26,1803.48 933.32,1831.94 "
   id="polygon402918" />
		</g>
	</g>
</g>
</svg>
