<?xml version="1.0" encoding="utf-8"?>
<!-- Generator: Adobe Illustrator 26.3.1, SVG Export Plug-In . SVG Version: 6.00 Build 0)  -->
<svg version="1.1" id="Layer_1" xmlns="http://www.w3.org/2000/svg" xmlns:xlink="http://www.w3.org/1999/xlink" x="0px" y="0px"
	 viewBox="0 0 1984.25 1984.25" style="enable-background:new 0 0 1984.25 1984.25;" xml:space="preserve">
<style type="text/css">
	.st0{fill:#1C75BC;stroke:#000000;stroke-miterlimit:10;}
	.st1{fill:#C2B59B;stroke:#000000;stroke-miterlimit:10;}
	.st2{fill:#F9ED32;stroke:#000000;stroke-miterlimit:10;}
	.st3{fill:#C49A6C;stroke:#000000;stroke-miterlimit:10;}
	.st4{fill:#8DC63F;stroke:#000000;stroke-miterlimit:10;}
	.st5{fill:#808285;stroke:#000000;stroke-miterlimit:10;}
	.st6{fill:#D1D3D4;stroke:#000000;stroke-miterlimit:10;}
	.st7{fill:#6D6E71;stroke:#000000;stroke-miterlimit:10;}
	.st8{fill:#FFFFFF;stroke:#000000;stroke-miterlimit:10;}
	.st9{font-family:'CourierNewPS-BoldMT';}
	.st10{font-size:28px;}
	.st11{font-size:36px;}
	.st12{font-size:24px;}
	.st13{fill:none;stroke:#00AEEF;stroke-width:5;stroke-miterlimit:10;}
	.st14{fill:#00AEEF;}
	.st15{fill:none;stroke:#EC008C;stroke-width:5;stroke-miterlimit:10;}
	.st16{fill:#FFFFFF;}
	.st17{fill:#EC008C;}
	.st18{fill:#EC008C;stroke:#000000;stroke-miterlimit:10;}
	.st19{fill:#00AEEF;stroke:#000000;stroke-miterlimit:10;}
	.st20{font-family:'MyriadPro-Regular';}
	.st21{font-size:16px;}
	.st22{fill:none;stroke:#6D6E71;stroke-width:4;stroke-miterlimit:10;}
	.st23{fill:#6D6E71;}
	.st24{fill:#662D91;stroke:#000000;stroke-miterlimit:10;}
	.st25{fill:none;stroke:#662D91;stroke-width:4;stroke-miterlimit:10;}
	.st26{fill:#662D91;}
	.st27{fill:none;stroke:#000000;stroke-width:4;stroke-miterlimit:10;}
	.st28{stroke:#000000;stroke-miterlimit:10;}
</style>
<rect x="839.24" y="547.54" class="st0" width="636.95" height="15.38"/>
<rect x="839.24" y="562.92" class="st1" width="636.95" height="326.35"/>
<rect x="839.24" y="1389.63" class="st1" width="636.95" height="326.35"/>
<rect x="838.97" y="889.28" class="st2" width="636.95" height="500.35"/>
<rect x="839.24" y="1715.62" class="st3" width="636.95" height="31.92"/>
<rect x="839.24" y="1747.54" class="st4" width="636.95" height="46.89"/>
<rect x="839.24" y="1794.43" class="st5" width="636.95" height="90.46"/>
<rect x="839.24" y="1863.2" class="st6" width="636.95" height="65"/>
<rect x="839.24" y="1841.52" class="st7" width="636.95" height="43.37"/>
<rect x="839.24" y="547.54" class="st0" width="636.95" height="15.38"/>
<rect x="1528.21" y="547.54" class="st0" width="289.85" height="15.38"/>
<rect x="1528.21" y="562.92" class="st1" width="289.85" height="326.35"/>
<rect x="1528.21" y="1389.63" class="st1" width="289.85" height="326.35"/>
<rect x="1528.21" y="889.28" class="st2" width="289.85" height="500.35"/>
<rect x="1528.21" y="1715.62" class="st4" width="289.85" height="78.81"/>
<rect x="1528.21" y="1794.43" class="st5" width="289.85" height="90.46"/>
<rect x="1528.21" y="1863.2" class="st6" width="289.85" height="65"/>
<rect x="1528.21" y="1841.52" class="st7" width="289.85" height="43.37"/>
<rect x="1528.21" y="1389.63" class="st1" width="289.85" height="326.35"/>
<rect x="166.5" y="333.14" class="st8" width="124.83" height="109.5"/>
<rect x="317.5" y="420.68" class="st8" width="1090.94" height="116.08"/>
<text transform="matrix(0 -1 1 0 153.0579 442.6396)" class="st9 st10">NODOSE</text>
<text transform="matrix(1 0 0 1 374.1706 56.868)" class="st9 st10">INSULA</text>
<rect x="166.5" y="199.14" class="st8" width="124.83" height="109.5"/>
<text transform="matrix(0 -1 1 0 153.0579 308.3682)" class="st9 st10">NTS</text>
<rect x="166.5" y="65.15" class="st8" width="124.83" height="109.5"/>
<text transform="matrix(1 0 0 1 89.1228 56.8683)" class="st9 st10">PARABRACHIAL</text>
<rect x="374.17" y="65.15" class="st8" width="291.66" height="109.5"/>
<text transform="matrix(1 0 0 1 297.8945 1969.7083)" class="st9 st11">DISTAL STOMACH</text>
<text transform="matrix(1 0 0 1 968.7319 1969.7083)" class="st9 st11">PROXIMAL STOMACH</text>
<text transform="matrix(1 0 0 1 1528.2068 1969.7083)" class="st9 st11">LOWER ESOPHAGUS</text>
<text transform="matrix(1 0 0 1 55.5103 562.9232)" class="st9 st12">SEROSA</text>
<text transform="matrix(1 0 0 1 56.0357 666.0632)"><tspan x="0" y="0" class="st9 st12">LONG.</tspan><tspan x="0" y="28.8" class="st9 st12">MUSCLE</tspan></text>
<text transform="matrix(1 0 0 1 56.0357 1487.0049)"><tspan x="0" y="0" class="st9 st12">CIRC.</tspan><tspan x="0" y="28.8" class="st9 st12">MUSCLE</tspan></text>
<text transform="matrix(1 0 0 1 12.8287 1740.5791)" class="st9 st12">OB.MUSCLE</text>
<text transform="matrix(1 0 0 1 70.4381 1918.7363)" class="st9 st12">LUMEN</text>
<text transform="matrix(1 0 0 1 55.5104 1863.2043)" class="st9 st12">MUCOSA</text>
<text transform="matrix(1 0 0 1 26.7057 1825.9231)" class="st9 st12">M.MUCOSA</text>
<text transform="matrix(1 0 0 1 12.3033 1782.8029)" class="st9 st12">SUBMUCOSA</text>
<text transform="matrix(1 0 0 1 12.8287 1110.2976)"><tspan x="0" y="0" class="st9 st12">MYENTERIC</tspan><tspan x="0" y="28.8" class="st9 st12">PLEXUS</tspan></text>
<rect x="751.07" y="204.84" class="st8" width="252.63" height="148.28"/>
<text transform="matrix(0 -1 1 0 1032.2229 253.8945)" class="st9 st10">DMV</text>
<text transform="matrix(0 -1 1 0 1434.0637 503.0078)" class="st9 st10">VAGUS</text>
<g>
	<path class="st8" d="M975.12,857.19H927.1c-6.6,0-12-5.4-12-12V699.35c0-6.6,5.4-12,12-12h48.02c6.6,0,12,5.4,12,12v145.84
		C987.12,851.79,981.72,857.19,975.12,857.19z"/>
	<path class="st8" d="M1123.13,738.14h-107.43c-6.6,0-12-5.4-12-12v-26.79c0-6.6,5.4-12,12-12h107.43c6.6,0,12,5.4,12,12v26.79
		C1135.13,732.74,1129.73,738.14,1123.13,738.14z"/>
	<path class="st8" d="M1005.07,765.13c128.57-44.44,152.38,9.52,152.38,9.52v100.19h-41.92v-65.99c0,0,2.13-29.51-96.18,0
		C997.13,815.52,1005.07,765.13,1005.07,765.13z"/>
</g>
<g>
	<path class="st8" d="M975.39,1439.07h-48.02c-6.6,0-12,5.4-12,12v145.84c0,6.6,5.4,12,12,12h48.02c6.6,0,12-5.4,12-12v-145.84
		C987.39,1444.47,981.99,1439.07,975.39,1439.07z"/>
	<path class="st8" d="M1123.4,1558.12h-107.43c-6.6,0-12,5.4-12,12v26.79c0,6.6,5.4,12,12,12h107.43c6.6,0,12-5.4,12-12v-26.79
		C1135.4,1563.52,1130,1558.12,1123.4,1558.12z"/>
	<path class="st8" d="M1005.34,1531.13c128.57,44.44,152.38-9.52,152.38-9.52v-117.19l-41.92-0.28v83.28c0,0,2.13,29.51-96.18,0
		C997.41,1480.74,1005.34,1531.13,1005.34,1531.13z"/>
</g>
<g>
	<g>
		<path class="st13" d="M1215.53,1217.9c0-109.15,0-355.73,0-355.73s0.1-14.16-22.23-21.85"/>
		<g>
			<polygon class="st14" points="1204.46,818.13 1157.73,835.48 1196.11,867.29 			"/>
		</g>
	</g>
</g>
<g>
	<g>
		<path class="st13" d="M1215.53,1217.9c0,56.32,0,183.53,0,183.53s0.1,7.25-22.01,11.23"/>
		<g>
			<polygon class="st14" points="1198.49,1386.52 1157.73,1415.21 1202.96,1436.18 			"/>
		</g>
	</g>
</g>
<g>
	<g>
		<polyline class="st15" points="1302.27,1161.24 1291.96,1161.24 1244.09,1161.24 		"/>
		<g>
			<g>
				<polygon class="st16" points="1339.63,1136.45 1297.77,1161.38 1339.63,1186.31 				"/>
				<path class="st17" d="M1342.13,1132.05l-49.24,29.33l49.24,29.33V1132.05z M1302.66,1161.38l34.47-20.53v41.06L1302.66,1161.38z
					"/>
			</g>
		</g>
	</g>
</g>
<circle class="st18" cx="1275.89" cy="1161.24" r="21.03"/>
<g>
	<g>
		<path class="st15" d="M1244.09,1161.24c0-104.88,0-341.79,0-341.79s-17.66-21.12-52.24-30.85"/>
		<g>
			<polygon class="st17" points="1202.83,765.93 1156.29,783.79 1195.03,815.17 			"/>
		</g>
	</g>
</g>
<g>
	<g>
		<path class="st15" d="M1244.09,1081.73c0-104.88,0-341.79,0-341.79s-32.16-22.13-74.16-31.52"/>
		<g>
			<polygon class="st17" points="1180.36,685.23 1134.29,704.28 1173.82,734.66 			"/>
		</g>
	</g>
</g>
<g>
	<g>
		<path class="st15" d="M1244.09,1210.68c0,104.88,0,341.79,0,341.79s-30.8,22.05-72.16,31.47"/>
		<g>
			<polygon class="st17" points="1175.77,1557.69 1136.29,1588.13 1182.39,1607.11 			"/>
		</g>
	</g>
</g>
<g>
	<g>
		<path class="st15" d="M1244.09,1161.24c0,92.98,0,303.02,0,303.02s-15.7,13.32-49.06,19.57"/>
		<g>
			<polygon class="st17" points="1199.63,1457.71 1159.29,1487 1204.83,1507.29 			"/>
		</g>
	</g>
</g>
<circle class="st19" cx="1259.33" cy="1217.9" r="21.03"/>
<g>
	<g>
		<path class="st15" d="M1244.09,739.12c0-120.52-268.81-249.77-303.04-94.59"/>
		<g>
			<polygon class="st17" points="917.85,634.4 937.47,680.23 967.35,640.32 			"/>
		</g>
	</g>
</g>
<g>
	<g>
		<path class="st15" d="M1244.09,1551.39c0,108.45-264.59,227.28-302.19,92.03"/>
		<g>
			<polygon class="st17" points="968.5,1646.82 937.48,1607.8 919.18,1654.17 			"/>
		</g>
	</g>
</g>
<text transform="matrix(0 -1 1 0 944.4225 835.48)"><tspan x="0" y="0" class="st20 st21">Smooth</tspan><tspan x="0" y="15" class="st20 st21">Muscle</tspan></text>
<text transform="matrix(0 -1 1 0 944.4225 1588.1304)"><tspan x="0" y="0" class="st20 st21">Smooth</tspan><tspan x="0" y="15" class="st20 st21">Muscle</tspan></text>
<text transform="matrix(1 0 0 1 1015.6895 717.3705)" class="st20 st21">PDGFR-alpha</text>
<text transform="matrix(1 0 0 1 1015.6895 1588.1299)" class="st20 st21">PDGFR-alpha</text>
<text transform="matrix(1 0 0 1 1040.5669 779.1053)" class="st20 st21">ICC-IM</text>
<text transform="matrix(1 0 0 1 1040.5669 1523.9888)" class="st20 st21">ICC-IM</text>
<rect x="149.74" y="547.54" class="st0" width="636.95" height="15.38"/>
<rect x="149.74" y="562.92" class="st1" width="636.95" height="326.35"/>
<rect x="149.74" y="1389.63" class="st1" width="636.95" height="326.35"/>
<rect x="149.48" y="889.28" class="st2" width="636.95" height="500.35"/>
<rect x="149.74" y="1715.62" class="st3" width="636.95" height="31.92"/>
<rect x="149.74" y="1747.54" class="st4" width="636.95" height="46.89"/>
<rect x="149.74" y="1794.43" class="st5" width="636.95" height="90.46"/>
<rect x="149.74" y="1863.2" class="st6" width="636.95" height="65"/>
<rect x="149.74" y="1841.52" class="st7" width="636.95" height="43.37"/>
<rect x="149.74" y="547.54" class="st0" width="636.95" height="15.38"/>
<g>
	<path class="st8" d="M285.62,857.19H237.6c-6.6,0-12-5.4-12-12V699.35c0-6.6,5.4-12,12-12h48.02c6.6,0,12,5.4,12,12v145.84
		C297.62,851.79,292.22,857.19,285.62,857.19z"/>
	<path class="st8" d="M433.63,738.14H326.19c-6.6,0-12-5.4-12-12v-26.79c0-6.6,5.4-12,12-12h107.43c6.6,0,12,5.4,12,12v26.79
		C445.63,732.74,440.23,738.14,433.63,738.14z"/>
	<path class="st8" d="M315.57,765.13c128.57-44.44,152.38,9.52,152.38,9.52v100.19h-41.92v-65.99c0,0,2.13-29.51-96.18,0
		C307.64,815.52,315.57,765.13,315.57,765.13z"/>
</g>
<g>
	<path class="st8" d="M285.89,1439.07h-48.02c-6.6,0-12,5.4-12,12v145.84c0,6.6,5.4,12,12,12h48.02c6.6,0,12-5.4,12-12v-145.84
		C297.89,1444.47,292.49,1439.07,285.89,1439.07z"/>
	<path class="st8" d="M433.9,1558.12H326.47c-6.6,0-12,5.4-12,12v26.79c0,6.6,5.4,12,12,12H433.9c6.6,0,12-5.4,12-12v-26.79
		C445.9,1563.52,440.5,1558.12,433.9,1558.12z"/>
	<path class="st8" d="M315.85,1531.13c128.57,44.44,152.38-9.52,152.38-9.52v-117.19l-41.92-0.28v83.28c0,0,2.13,29.51-96.18,0
		C307.91,1480.74,315.85,1531.13,315.85,1531.13z"/>
</g>
<path class="st8" d="M228.19,1858.92h-48.02c-6.6,0-12,5.4-12,12v21.61c0,6.6,5.4,12,12,12h48.02c6.6,0,12-5.4,12-12v-21.61
	C240.19,1864.32,234.79,1858.92,228.19,1858.92z"/>
<path class="st8" d="M348.29,1858.92h-48.02c-6.6,0-12,5.4-12,12v21.61c0,6.6,5.4,12,12,12h48.02c6.6,0,12-5.4,12-12v-21.61
	C360.29,1864.32,354.89,1858.92,348.29,1858.92z"/>
<path class="st8" d="M534.83,1858.92H420.37c-6.6,0-12,5.4-12,12v21.61c0,6.6,5.4,12,12,12h114.46c6.6,0,12-5.4,12-12v-21.61
	C546.83,1864.32,541.43,1858.92,534.83,1858.92z"/>
<g>
	<g>
		<path class="st13" d="M601.96,1217.9H526.8h-83.66c-236.52,0-429.61,347.49-59.62,610.59"/>
		<g>
			<g>
				<polygon class="st16" points="639.32,1193.11 597.47,1218.04 639.32,1242.97 				"/>
				<path class="st14" d="M641.82,1188.72l-49.24,29.33l49.24,29.33V1188.72z M602.36,1218.04l34.47-20.53v41.06L602.36,1218.04z"/>
			</g>
		</g>
		<g>
			<polygon class="st14" points="363.51,1844.82 413.21,1848.64 391.67,1803.68 			"/>
		</g>
	</g>
</g>
<g>
	<g>
		<path class="st13" d="M526.03,1217.9c0-109.15,0-355.73,0-355.73s0.1-14.16-22.23-21.85"/>
		<g>
			<polygon class="st14" points="514.97,818.13 468.23,835.48 506.62,867.29 			"/>
		</g>
	</g>
</g>
<g>
	<g>
		<path class="st13" d="M526.03,1217.9c0,56.32,0,183.53,0,183.53s0.1,7.25-22.01,11.23"/>
		<g>
			<polygon class="st14" points="509,1386.52 468.23,1415.21 513.46,1436.18 			"/>
		</g>
	</g>
</g>
<g>
	<g>
		<line class="st15" x1="612.77" y1="1161.24" x2="554.59" y2="1161.24"/>
		<g>
			<g>
				<polygon class="st16" points="650.13,1136.45 608.28,1161.38 650.13,1186.31 				"/>
				<path class="st17" d="M652.63,1132.05l-49.24,29.33l49.24,29.33V1132.05z M613.16,1161.38l34.47-20.53v41.06L613.16,1161.38z"/>
			</g>
		</g>
	</g>
</g>
<circle class="st18" cx="586.4" cy="1161.24" r="21.03"/>
<g>
	<g>
		<path class="st15" d="M554.59,1161.24c0-104.88,0-341.79,0-341.79s-17.66-21.12-52.24-30.85"/>
		<g>
			<polygon class="st17" points="513.33,765.93 466.79,783.79 505.53,815.17 			"/>
		</g>
	</g>
</g>
<g>
	<g>
		<path class="st15" d="M554.59,1081.73c0-104.88,0-341.79,0-341.79s-32.16-22.13-74.16-31.52"/>
		<g>
			<polygon class="st17" points="490.86,685.23 444.79,704.28 484.32,734.66 			"/>
		</g>
	</g>
</g>
<g>
	<g>
		<path class="st15" d="M554.59,1210.68c0,104.88,0,341.79,0,341.79s-30.8,22.05-72.16,31.47"/>
		<g>
			<polygon class="st17" points="486.27,1557.69 446.79,1588.13 492.89,1607.11 			"/>
		</g>
	</g>
</g>
<g>
	<g>
		<path class="st15" d="M554.59,1161.24c0,92.98,0,303.02,0,303.02s-15.7,13.32-49.06,19.57"/>
		<g>
			<polygon class="st17" points="510.13,1457.71 469.79,1487 515.33,1507.29 			"/>
		</g>
	</g>
</g>
<circle class="st19" cx="569.84" cy="1217.9" r="21.03"/>
<g>
	<g>
		<path class="st15" d="M554.59,739.12c0-120.52-268.81-249.77-303.04-94.59"/>
		<g>
			<polygon class="st17" points="228.35,634.4 247.97,680.23 277.86,640.32 			"/>
		</g>
	</g>
</g>
<g>
	<g>
		<path class="st15" d="M554.59,1551.39c0,108.45-264.59,227.28-302.19,92.03"/>
		<g>
			<polygon class="st17" points="279,1646.82 247.98,1607.8 229.69,1654.17 			"/>
		</g>
	</g>
</g>
<g>
	<g>
		<path class="st15" d="M554.59,1551.39c0,108.89,0.17,130.12-68.78,269.56"/>
		<g>
			<polygon class="st17" points="466.6,1803.29 469.79,1853.04 511.28,1825.41 			"/>
		</g>
	</g>
</g>
<text transform="matrix(0 -1 1 0 254.9259 835.48)"><tspan x="0" y="0" class="st20 st21">Smooth</tspan><tspan x="0" y="15" class="st20 st21">Muscle</tspan></text>
<text transform="matrix(0 -1 1 0 254.9259 1588.1304)"><tspan x="0" y="0" class="st20 st21">Smooth</tspan><tspan x="0" y="15" class="st20 st21">Muscle</tspan></text>
<text transform="matrix(1 0 0 1 326.1929 717.3705)" class="st20 st21">PDGFR-alpha</text>
<text transform="matrix(1 0 0 1 326.1929 1588.1299)" class="st20 st21">PDGFR-alpha</text>
<text transform="matrix(1 0 0 1 436.5264 1106.762)"><tspan x="0" y="0" class="st20 st21">Inhibitory</tspan><tspan x="0" y="15" class="st20 st21">Gastric</tspan><tspan x="0" y="30" class="st20 st21">Ganglionic</tspan><tspan x="0" y="45" class="st20 st21">Neuron</tspan></text>
<text transform="matrix(1 0 0 1 436.5273 1237.936)"><tspan x="0" y="0" class="st20 st21">Excitatory</tspan><tspan x="0" y="15" class="st20 st21">Gastric</tspan><tspan x="0" y="30" class="st20 st21">Ganglionic</tspan><tspan x="0" y="45" class="st20 st21">Neuron</tspan></text>
<text transform="matrix(1 0 0 1 351.0703 779.1053)" class="st20 st21">ICC-IM</text>
<text transform="matrix(1 0 0 1 179.1464 1888.0676)" class="st20 st21">Parietal</text>
<text transform="matrix(1 0 0 1 301.3977 1888.0676)" class="st20 st21">Chief</text>
<path class="st8" d="M918.35,1858.92h-48.02c-6.6,0-12,5.4-12,12v21.61c0,6.6,5.4,12,12,12h48.02c6.6,0,12-5.4,12-12v-21.61
	C930.35,1864.32,924.95,1858.92,918.35,1858.92z"/>
<path class="st8" d="M1038.45,1858.92h-48.02c-6.6,0-12,5.4-12,12v21.61c0,6.6,5.4,12,12,12h48.02c6.6,0,12-5.4,12-12v-21.61
	C1050.45,1864.32,1045.05,1858.92,1038.45,1858.92z"/>
<text transform="matrix(1 0 0 1 869.3063 1888.0676)" class="st20 st21">Parietal</text>
<text transform="matrix(1 0 0 1 991.5576 1888.0676)" class="st20 st21">Chief</text>
<text transform="matrix(1 0 0 1 421.7043 1880.5676)"><tspan x="0" y="0" class="st20 st21">Enteroendocrine</tspan><tspan x="0" y="15" class="st20 st21">cell</tspan></text>
<g>
	<g>
		<path class="st22" d="M218.43,99.95c52.4-12.35,165.41-23.06,216.76-8.82"/>
		<g>
			<g>
				<polygon class="st16" points="204.43,116.39 220.53,99.43 197.95,93.36 				"/>
				<path class="st23" d="M203.85,118.75l18.94-19.95l-26.57-7.15L203.85,118.75z M218.27,100.07l-13.26,13.97l-5.34-18.97
					L218.27,100.07z"/>
			</g>
		</g>
		<g>
			<polygon class="st23" points="425.06,103.64 454.77,100.09 436.85,76.14 			"/>
		</g>
	</g>
</g>
<g>
	<g>
		<path class="st22" d="M248.5,263.93c93.14,2.08,457.7-47.12,546.82-29.07"/>
		<g>
			<g>
				<polygon class="st16" points="229.48,273.71 250.68,263.83 231.89,249.9 				"/>
				<path class="st23" d="M228.07,275.69l24.93-11.62l-22.1-16.39L228.07,275.69z M248.34,263.59l-17.45,8.14l1.99-19.61
					L248.34,263.59z"/>
			</g>
		</g>
		<g>
			<polygon class="st23" points="784.81,247.4 814.58,244.51 797.18,220.17 			"/>
		</g>
	</g>
</g>
<g>
	<g>
		<path class="st22" d="M193.42,250.48c-9.63-33.63-13.28-74.38,0.21-105.49"/>
		<g>
			<g>
				<polygon class="st16" points="210.39,263.85 192.83,248.4 187.61,271.2 				"/>
				<path class="st23" d="M212.77,264.34l-20.65-18.17l-6.14,26.82L212.77,264.34z M193.55,250.64l14.46,12.72l-18.76,6.05
					L193.55,250.64z"/>
			</g>
		</g>
		<g>
			<polygon class="st23" points="204.82,156.45 204.72,126.54 178.86,141.57 			"/>
		</g>
	</g>
</g>
<g>
	<g>
		<path class="st22" d="M485.2,114.76c-52.4,12.35-165.41,23.06-216.76,8.82"/>
		<g>
			<g>
				<polygon class="st16" points="499.2,98.31 483.1,115.27 505.68,121.35 				"/>
				<path class="st23" d="M499.78,95.95l-18.94,19.95l26.57,7.15L499.78,95.95z M485.36,114.64l13.26-13.97l5.34,18.97
					L485.36,114.64z"/>
			</g>
		</g>
		<g>
			<polygon class="st23" points="278.56,111.07 248.86,114.61 266.78,138.56 			"/>
		</g>
	</g>
</g>
<g>
	<g>
		<path class="st22" d="M563.21,110.65c-18.21,148.91-228.12,135.41-304.28,122.2"/>
		<g>
			<g>
				<polygon class="st16" points="552.51,91.85 562.93,112.79 576.37,93.66 				"/>
				<path class="st23" d="M550.49,90.5l12.26,24.63l15.82-22.51L550.49,90.5z M563.1,110.45l-8.58-17.24l19.65,1.48L563.1,110.45z"
					/>
			</g>
		</g>
		<g>
			<polygon class="st23" points="266.25,218.91 237.88,228.39 260.27,248.23 			"/>
		</g>
	</g>
</g>
<circle class="st7" cx="240.77" cy="87.34" r="14.55"/>
<circle class="st7" cx="448.42" cy="130.37" r="14.55"/>
<circle class="st7" cx="273.18" cy="274.2" r="14.55"/>
<circle class="st7" cx="560.58" cy="141.87" r="14.55"/>
<circle class="st7" cx="196.88" cy="226" r="14.55"/>
<circle class="st24" cx="200.05" cy="397.24" r="14.55"/>
<g>
	<g>
		<path class="st25" d="M1647.15,1642.99c-14.86-11.22-26.17-54.03-26.17-216.58c0-155.72,2.36-526.6-35.72-743.2
			c-17.31-98.45-42.97-165.03-81-165.03h-28.34H297.89h-10.16c-102.68,0-112.06-158.94-92.34-221.69"/>
		<g>
			<g>
				<polygon class="st16" points="1667.95,1635.15 1645.37,1641.22 1661.46,1658.18 				"/>
				<path class="st26" d="M1669.68,1633.44l-26.57,7.14l18.94,19.96L1669.68,1633.44z M1647.63,1641.85l18.6-5l-5.34,18.97
					L1647.63,1641.85z"/>
			</g>
		</g>
		<g>
			<polygon class="st26" points="207.64,306.85 204.72,277.08 180.4,294.5 			"/>
		</g>
	</g>
</g>
<g>
	<g>
		<path class="st25" d="M1583.78,675.75c8.17,42.78,25.72,110.97,49.16,134.96"/>
		<g>
			<g>
				<polygon class="st16" points="1643.07,829.15 1631.51,808.82 1654.89,808.34 				"/>
				<path class="st26" d="M1643.07,831.58l-13.6-23.92l27.51-0.57L1643.07,831.58z M1633.55,809.98l9.52,16.74l9.74-17.14
					L1633.55,809.98z"/>
			</g>
		</g>
	</g>
</g>
<g>
	<g>
		<path class="st25" d="M590.87,518.19c160.2,0,146.5,745.51,146.5,897.03c0,143.45-138.29,156.06-244.23,113.78"/>
		<g>
			<g>
				<polygon class="st16" points="481.4,1510.9 495.13,1529.83 471.95,1532.88 				"/>
				<path class="st26" d="M481.13,1508.48l16.15,22.27l-27.28,3.6L481.13,1508.48z M492.98,1528.9l-11.31-15.59l-7.79,18.11
					L492.98,1528.9z"/>
			</g>
		</g>
	</g>
</g>
<g>
	<g>
		<path class="st25" d="M669.76,602.4c18.1,74.99-72.27,145.27-180.4,156.61"/>
		<g>
			<g>
				<polygon class="st16" points="470.56,748.42 491.5,758.82 472.38,772.29 				"/>
				<path class="st26" d="M469.2,746.41l24.64,12.24l-22.5,15.84L469.2,746.41z M489.16,759l-17.25-8.57l1.5,19.65L489.16,759z"/>
			</g>
		</g>
	</g>
</g>
<g>
	<g>
		<path class="st25" d="M711.68,795.85c18.16,75.25,1.87,150.77-59.39,226.01"/>
		<g>
			<g>
				<path class="st16" d="M641.28,1011.49c-5.34,6.36-4.52,15.85,1.84,21.19c6.36,5.34,15.85,4.52,21.19-1.84
					c5.34-6.36,4.52-15.85-1.84-21.19C656.11,1004.31,646.62,1005.13,641.28,1011.49z"/>
				<path class="st26" d="M639.74,1010.2c6.04-7.19,16.82-8.12,24.01-2.08c7.19,6.04,8.12,16.82,2.08,24.01
					c-6.04,7.19-16.82,8.12-24.01,2.08C634.63,1028.17,633.7,1017.4,639.74,1010.2C645.79,1003.01,633.7,1017.4,639.74,1010.2z
					 M662.77,1029.56c4.63-5.5,3.91-13.74-1.59-18.37c-5.51-4.63-13.74-3.91-18.37,1.59c-4.63,5.51-3.91,13.74,1.59,18.37
					S658.14,1035.06,662.77,1029.56C667.4,1024.05,658.14,1035.06,662.77,1029.56z"/>
			</g>
		</g>
	</g>
</g>
<g>
	<g>
		<path class="st25" d="M1402.3,795.85c18.16,75.25,1.87,150.77-59.39,226.01"/>
		<g>
			<g>
				<path class="st16" d="M1331.89,1011.49c-5.34,6.36-4.52,15.85,1.84,21.19c6.36,5.34,15.85,4.52,21.19-1.84
					c5.34-6.36,4.52-15.85-1.84-21.19C1346.72,1004.31,1337.23,1005.13,1331.89,1011.49z"/>
				<path class="st26" d="M1330.36,1010.2c6.04-7.19,16.82-8.12,24.01-2.08c7.19,6.04,8.12,16.82,2.08,24.01
					c-6.04,7.19-16.82,8.12-24.01,2.08C1325.25,1028.17,1324.32,1017.4,1330.36,1010.2
					C1336.4,1003.01,1324.32,1017.4,1330.36,1010.2z M1353.38,1029.56c4.63-5.5,3.91-13.74-1.59-18.37
					c-5.51-4.63-13.74-3.91-18.37,1.59c-4.63,5.51-3.91,13.74,1.59,18.37S1348.76,1035.06,1353.38,1029.56
					C1358.01,1024.05,1348.76,1035.06,1353.38,1029.56z"/>
			</g>
		</g>
	</g>
</g>
<g>
	<g>
		<path class="st25" d="M737.66,1404.13c0,74.67,63.58,378.39-19.51,453.39"/>
		<g>
			<g>
				<polygon class="st16" points="696.41,1857.69 719.74,1856.03 710.09,1877.33 				"/>
				<path class="st26" d="M694.22,1856.65l27.44-1.96l-11.35,25.06L694.22,1856.65z M717.81,1857.37l-19.21,1.37l11.27,16.17
					L717.81,1857.37z"/>
			</g>
		</g>
	</g>
</g>
<g>
	<g>
		<path class="st25" d="M1428.15,1404.13c0,74.67,63.58,378.39-19.51,453.39"/>
		<g>
			<g>
				<polygon class="st16" points="1386.91,1857.69 1410.23,1856.03 1400.59,1877.33 				"/>
				<path class="st26" d="M1384.72,1856.65l27.44-1.96l-11.34,25.06L1384.72,1856.65z M1408.31,1857.37l-19.21,1.37l11.27,16.17
					L1408.31,1857.37z"/>
			</g>
		</g>
	</g>
</g>
<g>
	<g>
		<path class="st25" d="M1281.83,518.19c160.2,0,146.5,745.51,146.5,897.03c0,143.45-138.29,156.06-244.23,113.78"/>
		<g>
			<g>
				<polygon class="st16" points="1172.37,1510.9 1186.1,1529.83 1162.91,1532.88 				"/>
				<path class="st26" d="M1172.1,1508.48l16.15,22.27l-27.28,3.6L1172.1,1508.48z M1183.94,1528.9l-11.31-15.59l-7.79,18.11
					L1183.94,1528.9z"/>
			</g>
		</g>
	</g>
</g>
<g>
	<g>
		<path class="st25" d="M1360.72,602.4c18.1,74.99-72.27,145.27-180.4,156.61"/>
		<g>
			<g>
				<polygon class="st16" points="1161.52,748.42 1182.47,758.82 1163.34,772.29 				"/>
				<path class="st26" d="M1160.17,746.41l24.64,12.24l-22.5,15.84L1160.17,746.41z M1180.13,759l-17.25-8.57l1.5,19.65L1180.13,759
					z"/>
			</g>
		</g>
	</g>
</g>
<g>
	<g>
		<path class="st27" d="M771.14,293.33c-6.62,309.62-170.42,652.22-184.34,821.57"/>
		<g>
			<g>
				<polygon class="st16" points="759.43,275.19 771.05,295.48 783.36,275.6 				"/>
				<path d="M757.34,273.95l13.67,23.88l14.48-23.39L757.34,273.95z M771.09,293.14l-9.57-16.71l19.71,0.34L771.09,293.14z"/>
			</g>
		</g>
		<g>
			<polygon points="572.32,1109.73 585.87,1136.4 602.19,1111.34 			"/>
		</g>
	</g>
</g>
<g>
	<g>
		<path class="st27" d="M915.74,293.32c20.37,292.88,517.46-20.26,370.93,821.89"/>
		<g>
			<g>
				<polygon class="st16" points="903.26,275.91 916.08,295.46 927.17,274.88 				"/>
				<path d="M901.1,274.8l15.08,23.01l13.05-24.22L901.1,274.8z M915.98,293.12l-10.56-16.1l19.69-0.85L915.98,293.12z"/>
			</g>
		</g>
		<g>
			<polygon points="1272.61,1108.31 1282.89,1136.4 1302.08,1113.45 			"/>
		</g>
	</g>
</g>
<g>
	<g>
		<path class="st27" d="M960.93,269.88c591.76-123.35,602.71,1202.28,331.06,986.46"/>
		<g>
			<g>
				<polygon class="st16" points="946.07,285.54 963.04,269.45 940.81,262.19 				"/>
				<path d="M945.37,287.86l19.96-18.93l-26.15-8.53L945.37,287.86z M960.75,269.96l-13.97,13.25l-4.34-19.23L960.75,269.96z"/>
			</g>
		</g>
		<g>
			<polygon points="1305.25,1247.77 1275.89,1242.04 1285.61,1270.33 			"/>
		</g>
	</g>
</g>
<g>
	<g>
		<path class="st27" d="M809.57,292.72c-85.91,352.2-83.62,1391.46-220.22,974.75"/>
		<g>
			<g>
				<polygon class="st16" points="802.52,272.43 809.17,294.85 825.71,278.32 				"/>
				<path d="M800.77,270.74l7.82,26.38l19.47-19.44L800.77,270.74z M809.74,292.57l-5.47-18.46l19.1,4.86L809.74,292.57z"/>
			</g>
		</g>
		<g>
			<polygon points="604.99,1267.07 582.87,1246.94 576.48,1276.16 			"/>
		</g>
	</g>
</g>
<ellipse transform="matrix(0.9871 -0.1602 0.1602 0.9871 -40.6303 128.8564)" class="st28" cx="778.92" cy="316.44" rx="14.55" ry="14.55"/>
<ellipse transform="matrix(0.9871 -0.1602 0.1602 0.9871 -40.1595 134.6961)" class="st28" cx="815.38" cy="316.44" rx="14.55" ry="14.55"/>
<ellipse transform="matrix(0.9871 -0.1602 0.1602 0.9871 -38.7252 152.4888)" class="st28" cx="926.46" cy="316.44" rx="14.55" ry="14.55"/>
<ellipse transform="matrix(0.9871 -0.1602 0.1602 0.9871 -31.1053 161.428)" class="st28" cx="985.71" cy="273.65" rx="14.55" ry="14.55"/>
<g>
	<g>
		<path class="st13" d="M181.36,1552.8c0,104.21-2.97,198.4,9.43,265.55"/>
		<g>
			<polygon class="st14" points="165.2,1816.99 199.51,1853.16 213.69,1805.36 			"/>
		</g>
	</g>
</g>
<g>
	<g>
		<path class="st13" d="M865,1552.69c0,104.21-2.97,198.4,9.43,265.55"/>
		<g>
			<polygon class="st14" points="848.84,1816.87 883.14,1853.04 897.32,1805.25 			"/>
		</g>
	</g>
</g>
<g>
	<g>
		<path class="st13" d="M212.3,1640.88c30.56,67.2,48.8,125.4,68.71,174.84"/>
		<g>
			<polygon class="st14" points="255.4,1818.72 295.27,1848.64 301.25,1799.14 			"/>
		</g>
	</g>
</g>
<g>
	<g>
		<path class="st13" d="M1295.49,1217.9h-75.16h-83.66c-234.83,0-375.3,309.91-178.88,605.9"/>
		<g>
			<g>
				<polygon class="st16" points="1332.85,1193.11 1291,1218.04 1332.85,1242.97 				"/>
				<path class="st14" d="M1335.35,1188.72l-49.24,29.33l49.24,29.33V1188.72z M1295.89,1218.04l34.47-20.53v41.06L1295.89,1218.04z
					"/>
			</g>
		</g>
		<g>
			<polygon class="st14" points="933.32,1831.94 978.43,1853.16 974.26,1803.48 			"/>
		</g>
	</g>
</g>
</svg>
