<?xml version="1.0" encoding="utf-8"?>
<!-- Generator: Adobe Illustrator 25.3.1, SVG Export Plug-In . SVG Version: 6.00 Build 0)  -->
<svg version="1.1" id="Layer_1" xmlns="http://www.w3.org/2000/svg" xmlns:xlink="http://www.w3.org/1999/xlink" x="0px" y="0px"
	 viewBox="0 0 1445.67 1020.47" style="enable-background:new 0 0 1445.67 1020.47;" xml:space="preserve">
<style type="text/css">
	.st0{fill:#BDBEC0;stroke:#010101;stroke-miterlimit:10;}
	.st1{fill:#EE2A7B;stroke:#010101;stroke-miterlimit:10;}
	.st2{fill:#EC2227;stroke:#010101;stroke-miterlimit:10;}
	.st3{fill:#BCBEC0;stroke:#010101;stroke-miterlimit:10;}
	.st4{fill:#E6E7E8;stroke:#010101;stroke-miterlimit:10;}
	.st5{fill:#939598;stroke:#010101;stroke-miterlimit:10;}
	.st6{fill:#E6E7E7;stroke:#010101;stroke-miterlimit:10;}
	.st7{fill:#010101;}
	.st8{font-family:'TimesNewRomanPS-BoldMT';}
	.st9{font-size:13px;}
	.st10{font-family:'ArialMT';}
	.st11{font-size:12px;}
	.st12{enable-background:new    ;}
	.st13{fill:#9B8579;stroke:#010101;stroke-miterlimit:10;}
	.st14{font-family:'TimesNewRomanPS-ItalicMT';}
	.st15{font-size:11px;}
	.st16{fill:none;stroke:#010101;stroke-miterlimit:10;}
	.st17{fill:#FFFFFF;}
	.st18{fill:#010101;stroke:#010101;stroke-miterlimit:10;}
	.st19{font-size:18px;}
	.st20{font-family:'TimesNewRomanPS-BoldItalicMT';}
	.st21{font-size:16px;}
	.st22{fill:#009444;stroke:#010101;stroke-miterlimit:10;}
	.st23{fill:#8DC63F;stroke:#010101;stroke-miterlimit:10;}
	.st24{fill:#754C29;stroke:#010101;stroke-miterlimit:10;}
	.st25{fill:#3C2415;stroke:#010101;stroke-miterlimit:10;}
	.st26{fill:#2E3192;stroke:#010101;stroke-miterlimit:10;}
	.st27{fill:none;stroke:#6D6E71;stroke-width:2;stroke-miterlimit:10;}
	.st28{fill:none;stroke:#006838;stroke-width:2;stroke-miterlimit:10;}
	.st29{fill:#006838;}
	.st30{fill:none;stroke:#FBB040;stroke-width:2;stroke-miterlimit:10;}
	.st31{fill:#FBB040;}
	.st32{fill:none;stroke:#F7941D;stroke-width:2;stroke-miterlimit:10;}
	.st33{fill:#F7941D;}
	.st34{fill:none;stroke:#808285;stroke-width:2;stroke-miterlimit:10;}
	.st35{fill:#808285;}
	.st36{fill:none;stroke:#00AEEF;stroke-width:2;stroke-miterlimit:10;}
	.st37{fill:#00AEEF;}
	.st38{fill:#662D91;}
	.st39{fill:none;stroke:#000000;stroke-miterlimit:10;}
</style>
<rect x="469.6" y="189.47" class="st0" width="79.61" height="79.61"/>
<rect x="345.99" y="189.47" class="st0" width="79.61" height="79.61"/>
<rect x="220.62" y="189.47" class="st0" width="79.61" height="79.61"/>
<rect x="207.97" y="288.39" class="st0" width="25.09" height="70.06"/>
<rect x="310.56" y="190.65" class="st0" width="25.09" height="40.05"/>
<rect x="435.05" y="190.65" class="st0" width="25.09" height="40.05"/>
<rect x="558.14" y="190.65" class="st0" width="25.09" height="40.05"/>
<rect x="853.87" y="194.29" class="st0" width="42.77" height="193.6"/>
<rect x="591.38" y="180.49" class="st0" width="96.65" height="118.82"/>
<rect x="860.65" y="67.95" class="st1" width="79.61" height="44.95"/>
<rect x="860.65" y="48.36" class="st2" width="79.61" height="19.41"/>
<rect x="965.76" y="67.95" class="st1" width="103.29" height="44.95"/>
<rect x="965.76" y="48.36" class="st2" width="103.29" height="19.41"/>
<rect x="1292.28" y="617.31" class="st3" width="79.61" height="80.79"/>
<rect x="1292.28" y="697.47" class="st4" width="79.61" height="19.41"/>
<rect x="27.16" y="617.31" class="st3" width="79.61" height="80.79"/>
<rect x="27.16" y="697.47" class="st4" width="79.61" height="19.41"/>
<rect x="123.89" y="617.31" class="st3" width="79.61" height="80.79"/>
<rect x="123.89" y="697.47" class="st4" width="79.61" height="19.41"/>
<rect x="1304.84" y="641.12" class="st5" width="55.34" height="49.61"/>
<rect x="220.62" y="617.31" class="st3" width="79.61" height="80.79"/>
<rect x="220.62" y="697.47" class="st4" width="79.61" height="19.41"/>
<rect x="567.44" y="617.31" class="st3" width="79.61" height="80.79"/>
<rect x="567.44" y="697.47" class="st4" width="79.61" height="19.41"/>
<rect x="664.17" y="617.31" class="st3" width="79.61" height="80.79"/>
<rect x="664.17" y="697.47" class="st4" width="79.61" height="19.41"/>
<rect x="810.92" y="617.31" class="st3" width="311.29" height="80.79"/>
<rect x="810.92" y="697.47" class="st4" width="311.29" height="19.41"/>
<rect x="1145.53" y="617.31" class="st3" width="79.61" height="80.79"/>
<rect x="1145.53" y="697.47" class="st4" width="79.61" height="19.41"/>
<rect x="1242.26" y="617.31" class="st3" width="32.89" height="80.79"/>
<rect x="1242.26" y="697.47" class="st4" width="32.89" height="19.41"/>
<rect x="760.9" y="617.31" class="st3" width="32.89" height="80.79"/>
<rect x="760.9" y="697.47" class="st4" width="32.89" height="19.41"/>
<rect x="517.43" y="617.31" class="st3" width="32.89" height="80.79"/>
<rect x="517.43" y="697.47" class="st4" width="32.89" height="19.41"/>
<rect x="467.41" y="617.31" class="st3" width="32.89" height="80.79"/>
<rect x="467.41" y="697.47" class="st4" width="32.89" height="19.41"/>
<rect x="417.39" y="617.31" class="st3" width="32.89" height="80.79"/>
<rect x="417.39" y="697.47" class="st4" width="32.89" height="19.41"/>
<rect x="367.37" y="617.31" class="st6" width="32.89" height="80.79"/>
<rect x="367.37" y="617.31" class="st3" width="32.89" height="80.79"/>
<rect x="367.37" y="697.47" class="st4" width="32.89" height="19.41"/>
<rect x="317.35" y="617.31" class="st3" width="32.89" height="80.79"/>
<rect x="317.35" y="697.47" class="st4" width="32.89" height="19.41"/>
<text transform="matrix(1 0 0 1 1304.8424 635.5764)" class="st7 st8 st9">HYP</text>
<text transform="matrix(1 0 0 1 1292.2793 732.8101)" class="st7 st10 st11">DIENC</text>
<text transform="matrix(1 0 0 1 1326.4896 689.3884)" class="st7 st8 st9">PVN</text>
<text transform="matrix(1 0 0 1 840.5799 688.3884)" class="st7 st8 st9">NTS</text>
<text transform="matrix(1 0 0 1 687.6861 689.3884)" class="st7 st8 st9">IX</text>
<text transform="matrix(1 0 0 1 619.6978 689.3884)" class="st7 st8 st9">IX</text>
<text transform="matrix(1 0 0 1 529.6149 666.4073)" class="st7 st8 st9">PN</text>
<text transform="matrix(1 0 0 1 480.9494 666.4073)" class="st7 st8 st9">PN</text>
<text transform="matrix(1 0 0 1 272.8839 689.3884)" class="st7 st8 st9">VII</text>
<text transform="matrix(1 0 0 1 176.5193 689.3884)" class="st7 st8 st9">VII</text>
<text transform="matrix(1 0 0 1 80.1547 689.3884)" class="st7 st8 st9">VII</text>
<text transform="matrix(1 0 0 1 965.7525 125.0065)" class="st7 st10 st11">ICA</text>
<text transform="matrix(1 0 0 1 860.6478 125.0065)" class="st7 st10 st11">CCA</text>
<text transform="matrix(0 1 -1 0 833.0566 118.3444)" class="st7 st10 st11">AADN</text>
<text transform="matrix(1 0 0 1 371.118 794.2416)" class="st7 st10 st11">AADN: Aortic arch depressor nerve</text>
<text transform="matrix(1 0 0 1 751.9181 125.0065)" class="st12"><tspan x="0" y="0" class="st7 st10 st11">AORT</tspan><tspan x="0" y="12" class="st7 st10 st11">ARCH</tspan></text>
<text transform="matrix(1 0 0 1 1242.2595 732.8094)" class="st7 st10 st11">MID</text>
<text transform="matrix(1 0 0 1 494.597 183.2554)" class="st7 st10 st11">MCG</text>
<text transform="matrix(1 0 0 1 352.9867 183.2554)" class="st7 st10 st11">ICG</text>
<text transform="matrix(1 0 0 1 220.6167 183.2554)" class="st7 st10 st11">T1 SYMP</text>
<text transform="matrix(1 0 0 1 913.2465 970.6689)" class="st7 st10 st11">PN: Phrenic nucleus</text>
<text transform="matrix(1 0 0 1 913.2457 915.7613)" class="st12"><tspan x="0" y="0" class="st7 st10 st11">PBHN: Pharyngeal branch of</tspan><tspan x="0" y="14.4" class="st7 st10 st11">             Hypoglossal nerve</tspan></text>
<text transform="matrix(1 0 0 1 913.246 950.4147)" class="st7 st10 st11">PHRNIC: Phrenic nerve`</text>
<text transform="matrix(1 0 0 1 239.6277 310.6053)" class="st12"><tspan x="0" y="0" class="st7 st10 st11">T1 WHITE</tspan><tspan x="0" y="14.4" class="st7 st10 st11">RAMUS</tspan></text>
<text transform="matrix(1 0 0 1 303.7302 159.2554)" class="st12"><tspan x="0" y="0" class="st7 st10 st11">T1-ICG</tspan><tspan x="0" y="12" class="st7 st10 st11">SYMP</tspan><tspan x="0" y="24" class="st7 st10 st11">CORD</tspan></text>
<rect x="725.13" y="164.38" class="st0" width="25.09" height="128.03"/>
<text transform="matrix(1 0 0 1 725.1315 160.4282)" class="st7 st10 st11">ECN</text>
<rect x="1136.89" y="439.54" class="st0" width="25.09" height="81.83"/>
<rect x="1009.99" y="391.38" class="st0" width="25.09" height="44.62"/>
<text transform="matrix(0 1 -1 0 1168.1426 439.5446)" class="st7 st10 st11">HYPOGL</text>
<text transform="matrix(0 1 -1 0 1038.209 391.3847)" class="st7 st10 st11">PBHN</text>
<text transform="matrix(1 0 0 1 665.8661 847.8813)" class="st7 st10 st11">HYPOGL: Hypoglossal nerve</text>
<rect x="581.16" y="307.05" class="st0" width="90.88" height="26.78"/>
<text transform="matrix(1 0 0 1 557.4365 333.8286)" class="st7 st10 st11">ICN</text>
<g>
	<rect x="367.37" y="467.2" class="st0" width="26.78" height="90.88"/>
	<text transform="matrix(0 1 -1 0 400.084 466.2015)" class="st7 st10 st11">PHRNIC</text>
</g>
<rect x="956.31" y="139.32" class="st0" width="25.09" height="35.03"/>
<text transform="matrix(0 1 -1 0 984.9492 147.0166)" class="st7 st10 st11">GGN</text>
<rect x="1002.6" y="299.31" class="st0" width="19.69" height="35.03"/>
<rect x="978.95" y="299.31" class="st0" width="19.69" height="35.03"/>
<rect x="947.74" y="299.31" class="st0" width="19.69" height="35.03"/>
<rect x="923.74" y="299.31" class="st0" width="19.69" height="35.03"/>
<rect x="985.56" y="226" class="st0" width="19.69" height="35.03"/>
<rect x="922.52" y="214.62" class="st0" width="32.29" height="46.42"/>
<rect x="797.54" y="117.58" class="st0" width="32.29" height="35.03"/>
<text transform="matrix(0 1 -1 0 929.3398 118.3444)" class="st7 st10 st11">RGC</text>
<rect x="893.82" y="117.58" class="st0" width="32.29" height="35.03"/>
<text transform="matrix(0 1 -1 0 1054.8672 118.3444)" class="st7 st10 st11">HRG</text>
<rect x="1019.35" y="117.58" class="st0" width="32.29" height="35.03"/>
<rect x="868.68" y="267.91" class="st5" width="21.73" height="97.06"/>
<text transform="matrix(0 1 -1 0 1008.4043 242.3564)" class="st7 st10 st11">ILN</text>
<text transform="matrix(0 1 -1 0 957.5762 237.6865)" class="st7 st10 st11">SLN</text>
<text transform="matrix(0 1 -1 0 1011.9863 276.4651)" class="st7 st10 st11">iILN</text>
<text transform="matrix(0 1 -1 0 911.9883 304.9676)" class="st7 st10 st11">eSLN</text>
<text transform="matrix(0 1 -1 0 978.9453 272.4573)" class="st7 st10 st11">eILN</text>
<text transform="matrix(0 1 -1 0 957.5762 271.7952)" class="st7 st10 st11">iSLN</text>
<text transform="matrix(1 0 0 1 371.0996 912.2495)" class="st7 st10 st11">ECN: External carotid nerve plexus</text>
<text transform="matrix(1 0 0 1 665.8661 901.5218)" class="st7 st10 st11">ICN: Internal carotid nerve plexus</text>
<text transform="matrix(1 0 0 1 665.866 812.1212)" class="st7 st10 st11">GGN: Ganglioglomerular nerve</text>
<text transform="matrix(1 0 0 1 665.8663 937.2813)" class="st7 st10 st11">ILN: Inferior larynageal nerve</text>
<text transform="matrix(1 0 0 1 1154.9149 908.1661)" class="st7 st10 st11">SLN: Superior laryngeal nerve</text>
<text transform="matrix(1 0 0 1 665.866 919.4016)" class="st7 st10 st11">iILN: Internal branch of ILN</text>
<text transform="matrix(1 0 0 1 371.0995 990.9221)" class="st7 st10 st11">eSLN: External branch of SLN</text>
<text transform="matrix(1 0 0 1 371.0996 931.9172)" class="st7 st10 st11">eILN: External branch of ILN</text>
<text transform="matrix(1 0 0 1 665.8665 955.1616)" class="st7 st10 st11">iSLN: Internal branch of SLN</text>
<text transform="matrix(1 0 0 1 853.8664 409.3062)" class="st7 st10 st11">VAGUS</text>
<text transform="matrix(0 -1 1 0 864.9857 294.4258)" class="st7 st10 st11">NDG</text>
<rect x="1047.66" y="194.29" class="st0" width="42.77" height="99.12"/>
<rect x="1056.11" y="239.9" class="st5" width="21.73" height="34.7"/>
<text transform="matrix(1 0 0 1 1040.6633 306.6054)" class="st7 st10 st11">GLSSPHY</text>
<text transform="matrix(1 0 0 1 665.8665 794.241)" class="st7 st10 st11">GLSSPHY: Glossopharyngeal nerve</text>
<text transform="matrix(1 0 0 1 1056.1074 286.7303)" class="st7 st10 st11">PTR</text>
<text transform="matrix(1 0 0 1 426.0123 159.2554)" class="st12"><tspan x="0" y="0" class="st7 st10 st11">ICG-MCG</tspan><tspan x="0" y="12" class="st7 st10 st11">SYMP</tspan><tspan x="0" y="24" class="st7 st10 st11">CORD</tspan></text>
<text transform="matrix(1 0 0 1 550.317 159.2554)" class="st12"><tspan x="0" y="0" class="st7 st10 st11">MCG-SCG</tspan><tspan x="0" y="12" class="st7 st10 st11">SYMP</tspan><tspan x="0" y="24" class="st7 st10 st11">CORD</tspan></text>
<rect x="204.24" y="374.27" class="st0" width="25.09" height="129.19"/>
<text transform="matrix(1 0 0 1 235.8907 396.4885)" class="st12"><tspan x="0" y="0" class="st7 st10 st11">T1 VENTRAL</tspan><tspan x="0" y="14.4" class="st7 st10 st11">ROOT</tspan></text>
<text transform="matrix(1 0 0 1 662.0296 175.2554)" class="st7 st10 st11">SCG</text>
<text transform="matrix(1 0 0 1 1145.5302 732.8094)" class="st7 st10 st11">PONS</text>
<text transform="matrix(1 0 0 1 810.918 732.8094)" class="st7 st10 st11">MED</text>
<text transform="matrix(1 0 0 1 371.0996 892.5817)" class="st7 st10 st11">DIENC: Diencephalon</text>
<text transform="matrix(1 0 0 1 665.8661 865.761)" class="st7 st10 st11">ICA: Internal Carotid Artery</text>
<text transform="matrix(1 0 0 1 371.0995 872.9135)" class="st7 st10 st11">CCA: Common Carotid Artery</text>
<text transform="matrix(1 0 0 1 913.2465 875.2549)" class="st7 st10 st11">NTS: Nucleus Tractus Solitarius</text>
<text transform="matrix(1 0 0 1 1154.9153 794.2411)" class="st7 st10 st11">PVN: Paraventricular Nucleus</text>
<text transform="matrix(1 0 0 1 371.1183 833.5774)" class="st7 st10 st11">AORT ARCH : Aortic arch</text>
<text transform="matrix(1 0 0 1 665.866 990.9223)" class="st7 st10 st11">LRYNX: Larynx</text>
<text transform="matrix(1 0 0 1 371.0995 971.2539)" class="st7 st10 st11">EPIGLOT: Epiglottis</text>
<text transform="matrix(1 0 0 1 1154.9148 990.9219)" class="st7 st10 st11">TONG: Tongue</text>
<text transform="matrix(1 0 0 1 913.2464 834.7474)" class="st7 st10 st11">MID: Midbrain</text>
<text transform="matrix(1 0 0 1 913.2463 794.2411)" class="st7 st10 st11">MCG: Middle Cervical Ganglion</text>
<text transform="matrix(1 0 0 1 665.8662 883.6417)" class="st7 st10 st11">ICG: Inferior Cervical Ganglion</text>
<text transform="matrix(1 0 0 1 1154.9149 930.9519)" class="st7 st10 st11">T1 SYMP: Paravertebral Ganglion T1</text>
<text transform="matrix(1 0 0 1 1154.9149 885.3815)" class="st7 st10 st11">SCG: Superior Cervical Ganglion</text>
<text transform="matrix(1 0 0 1 371.0995 853.2452)" class="st7 st10 st11">CB/CS: Carotid Body/Sinus</text>
<text transform="matrix(1 0 0 1 371.1182 813.909)" class="st7 st10 st11">AB: Aortic arch baroreceptors</text>
<text transform="matrix(1 0 0 1 1154.9149 839.8118)" class="st7 st10 st11">RTRPZ: Retrotrapezoid nucleus</text>
<text transform="matrix(1 0 0 1 1154.915 862.5961)" class="st7 st10 st11">RVLM: Rostral ventrolateralmedulla</text>
<text transform="matrix(1 0 0 1 1154.9152 953.7363)" class="st12"><tspan x="0" y="0" class="st7 st10 st11">T1-T2 INTRCT: Intercostal muscle between </tspan><tspan x="0" y="14.4" class="st7 st10 st11">                          first and second rib</tspan></text>
<text transform="matrix(1 0 0 1 913.2465 814.4945)" class="st7 st10 st11">MED: Medulla</text>
<text transform="matrix(1 0 0 1 760.8992 732.8094)" class="st7 st10 st11">C1</text>
<text transform="matrix(1 0 0 1 664.1698 732.8094)" class="st7 st10 st11">C2</text>
<text transform="matrix(1 0 0 1 567.4409 732.8094)" class="st7 st10 st11">C3</text>
<text transform="matrix(1 0 0 1 467.4031 732.8094)" class="st7 st10 st11">C5</text>
<text transform="matrix(1 0 0 1 517.4219 732.8094)" class="st7 st10 st11">C4</text>
<text transform="matrix(1 0 0 1 417.3843 732.8094)" class="st7 st10 st11">C6</text>
<text transform="matrix(1 0 0 1 367.3654 732.8094)" class="st7 st10 st11">C7</text>
<text transform="matrix(1 0 0 1 317.3467 732.8094)" class="st7 st10 st11">C8</text>
<text transform="matrix(1 0 0 1 220.6174 732.8094)" class="st7 st10 st11">T1</text>
<text transform="matrix(1 0 0 1 123.8879 732.8094)" class="st7 st10 st11">T2</text>
<text transform="matrix(1 0 0 1 27.1591 732.8094)" class="st7 st10 st11">T3</text>
<rect x="67.69" y="650.52" class="st13" width="27.32" height="27.32"/>
<rect x="164.06" y="650.52" class="st13" width="27.32" height="27.32"/>
<rect x="250.03" y="640.12" class="st13" width="37.71" height="37.71"/>
<rect x="604.19" y="650.52" class="st13" width="27.32" height="27.32"/>
<rect x="470.15" y="667.66" class="st13" width="23.36" height="19.18"/>
<rect x="520.19" y="667.66" class="st13" width="23.36" height="19.18"/>
<text transform="matrix(1 0 0 1 991.0172 83.0931)" class="st7 st14 st15">CS</text>
<rect x="1010.41" y="73.96" class="st13" width="40.74" height="27.32"/>
<text transform="matrix(1 0 0 1 885.0961 83.0933)" class="st7 st14 st15">CB</text>
<rect x="750.22" y="67.95" class="st1" width="79.61" height="44.95"/>
<rect x="750.22" y="48.36" class="st2" width="79.61" height="19.41"/>
<text transform="matrix(1 0 0 1 913.2465 895.5084)" class="st7 st10 st11">OESOPHG: Oesophagus</text>
<text transform="matrix(1 0 0 1 913.2466 855.0016)" class="st7 st10 st11">NDG: Nodose ganglion</text>
<rect x="904.45" y="73.96" class="st13" width="27.32" height="27.32"/>
<rect x="861.41" y="452.5" class="st13" width="27.32" height="27.32"/>
<text transform="matrix(1 0 0 1 760.8997 83.0933)" class="st7 st14 st15">AB</text>
<rect x="780.25" y="73.96" class="st13" width="27.32" height="27.32"/>
<rect x="672.17" y="650.52" class="st13" width="27.32" height="27.32"/>
<rect x="1320.96" y="646.37" class="st13" width="27.32" height="31.47"/>
<rect x="826.06" y="649.52" class="st13" width="92.05" height="27.32"/>
<text transform="matrix(1 0 0 1 953.6239 688.3884)" class="st7 st8 st9">RVLM</text>
<rect x="950.1" y="641.76" class="st13" width="47.67" height="36.07"/>
<text transform="matrix(1 0 0 1 1033.1737 688.3884)" class="st7 st8 st9">RTRPZ</text>
<rect x="1029.65" y="649.52" class="st13" width="47.67" height="27.32"/>
<g>
	<g>
		<line class="st16" x1="84.3" y1="800.71" x2="180.83" y2="800.71"/>
		<g>
			<g>
				<polygon class="st17" points="76.82,805.67 85.19,800.68 76.82,795.69 				"/>
				<path class="st7" d="M76.32,806.55l9.85-5.87l-9.85-5.87V806.55z M84.22,800.68l-6.89,4.11v-8.21L84.22,800.68z"/>
			</g>
		</g>
		<g>
			<rect x="180.33" y="797.46" class="st7" width="1" height="6.5"/>
		</g>
	</g>
</g>
<circle class="st18" cx="108.11" cy="800.71" r="6.47"/>
<text transform="matrix(1 0 0 1 28.8324 767.9748)" class="st7 st8 st19">KEY #2:</text>
<text transform="matrix(1 0 0 1 28.8324 37.9356)" class="st7 st8 st19">KEY #1:</text>
<text transform="matrix(1 0 0 1 1388.8601 712.2237)" class="st7 st20 st21">CSF</text>
<text transform="matrix(1 0 0 1 1388.8601 638.5783)" class="st7 st20 st21">CNS</text>
<text transform="matrix(1 0 0 1 1077.8423 58.0609)" class="st7 st20 st21">BLOOD</text>
<text transform="matrix(1 0 0 1 1077.8423 96.7361)" class="st7 st20 st21">WALL</text>
<text transform="matrix(1 0 0 1 96.7221 816.4195)" class="st7 st8 st11">Soma</text>
<text transform="matrix(1 0 0 1 170.4063 792.2616)" class="st7 st8 st11">Axon Terminus</text>
<text transform="matrix(1 0 0 1 54.0092 945.2299)" class="st7 st8 st11">Layers of Neuron:</text>
<text transform="matrix(1 0 0 1 118.3404 968.1594)" class="st7 st20 st11">Plasma Membrane</text>
<text transform="matrix(1 0 0 1 118.3404 997.5172)" class="st7 st20 st11">Cytosol</text>
<text transform="matrix(1 0 0 1 51.9852 792.2616)" class="st7 st8 st11">Dendrite</text>
<text transform="matrix(1 0 0 1 164.2744 857.5515)" class="st7 st20 st11">Flow of Blood</text>
<g>
	<g>
		<rect x="27.16" y="50.81" class="st3" width="35.7" height="49.22"/>
		<rect x="27.16" y="99.65" class="st4" width="35.7" height="11.83"/>
	</g>
	<text transform="matrix(1 0 0 1 71.6338 73.9557)" class="st7 st20 st11">CNS Segment</text>
</g>
<g>
	<g>
		<rect x="27.16" y="127.34" class="st1" width="35.7" height="36.45"/>
		<rect x="27.16" y="163.94" class="st2" width="35.7" height="15.74"/>
	</g>
	<text transform="matrix(1 0 0 1 71.6339 154.1548)" class="st12"><tspan x="0" y="0" class="st7 st20 st11">Blood Vessel</tspan><tspan x="0" y="14.4" class="st7 st20 st11">Segment</tspan></text>
</g>
<g>
	<g>
		<rect x="27.16" y="195.54" class="st22" width="35.7" height="33.87"/>
		<rect x="27.16" y="229.57" class="st23" width="35.7" height="16.93"/>
	</g>
	<text transform="matrix(1 0 0 1 71.6338 224.0204)" class="st12"><tspan x="0" y="0" class="st7 st20 st11">Airway</tspan><tspan x="0" y="14.4" class="st7 st20 st11">Segment</tspan></text>
</g>
<g>
	<rect x="27.16" y="387.89" class="st0" width="35.7" height="42.83"/>
	<text transform="matrix(1 0 0 1 71.6338 405.9706)" class="st12"><tspan x="0" y="0" class="st7 st20 st11">PNS</tspan><tspan x="0" y="14.4" class="st7 st20 st11">Segment</tspan></text>
</g>
<g>
	<g>
		<rect x="27.16" y="262.37" class="st24" width="35.7" height="33.87"/>
		<rect x="27.16" y="296.4" class="st25" width="35.7" height="16.93"/>
	</g>
	<text transform="matrix(1 0 0 1 71.6338 290.8463)" class="st12"><tspan x="0" y="0" class="st7 st20 st11">Gut</tspan><tspan x="0" y="14.4" class="st7 st20 st11">Segment</tspan></text>
</g>
<g>
	<rect x="27.16" y="329.2" class="st26" width="35.7" height="42.83"/>
	<text transform="matrix(1 0 0 1 71.6338 347.2748)" class="st12"><tspan x="0" y="0" class="st7 st20 st11">Skeletal</tspan><tspan x="0" y="14.4" class="st7 st20 st11">muscle</tspan></text>
</g>
<text transform="matrix(1 0 0 1 164.2744 876.0289)" class="st7 st20 st11">Flow of Air</text>
<text transform="matrix(1 0 0 1 164.2744 896.6334)" class="st7 st20 st11">Flow of CSF</text>
<g>
	<g>
		<path class="st16" d="M845.69,668.46c-132.31-24.24-180-25.69-241.51-22.34c-3.31,0.18-303.93,25.43-323.65,27.14"/>
		<g>
			<g>
				<polygon class="st17" points="851.11,666.13 845.1,668.4 849.96,672.61 				"/>
				<path class="st7" d="M851.54,665.61l-7.08,2.68l5.72,4.95L851.54,665.61z M845.73,668.52l4.95-1.87l-0.95,5.34L845.73,668.52z"
					/>
			</g>
		</g>
		<g>
			
				<rect x="280.03" y="670.01" transform="matrix(0.9965 -0.0836 0.0836 0.9965 -55.275 25.7954)" class="st7" width="1" height="6.5"/>
		</g>
	</g>
</g>
<circle class="st18" cx="661.68" cy="194.07" r="3.42"/>
<circle class="st18" cx="612.05" cy="195.77" r="3.42"/>
<circle class="st18" cx="669.29" cy="254.16" r="3.42"/>
<circle class="st18" cx="665.1" cy="202.28" r="3.42"/>
<circle class="st18" cx="617.23" cy="286.73" r="3.42"/>
<circle class="st18" cx="598.74" cy="286.73" r="3.42"/>
<circle class="st18" cx="668.52" cy="264.84" r="3.42"/>
<circle class="st18" cx="607.63" cy="286.73" r="3.42"/>
<circle class="st18" cx="668.52" cy="243.94" r="3.42"/>
<circle class="st18" cx="670.52" cy="222.11" r="3.42"/>
<circle class="st18" cx="668.52" cy="234.3" r="3.42"/>
<circle class="st18" cx="669.29" cy="212.59" r="3.42"/>
<circle class="st18" cx="669.29" cy="275.22" r="3.42"/>
<circle class="st18" cx="646.45" cy="286.73" r="3.42"/>
<circle class="st18" cx="637.42" cy="286.73" r="3.42"/>
<circle class="st18" cx="628.22" cy="286.73" r="3.42"/>
<circle class="st18" cx="670.59" cy="286.11" r="3.42"/>
<line class="st27" x1="14" y1="707.17" x2="1384.98" y2="707.17"/>
<rect x="752.22" y="443.42" class="st22" width="79.61" height="38.82"/>
<rect x="752.22" y="482.42" class="st23" width="79.61" height="19.41"/>
<rect x="846.33" y="443.42" class="st22" width="79.61" height="38.82"/>
<rect x="942.6" y="443.42" class="st22" width="55.18" height="38.82"/>
<rect x="1009.99" y="443.42" class="st22" width="55.18" height="38.82"/>
<rect x="846.33" y="482.42" class="st23" width="79.61" height="19.41"/>
<rect x="942.6" y="482.42" class="st23" width="55.18" height="19.41"/>
<rect x="1009.99" y="482.42" class="st23" width="55.18" height="19.41"/>
<text transform="matrix(1 0 0 1 886.1437 515.2703)" class="st7 st10 st11">LRYNX</text>
<text transform="matrix(1 0 0 1 774.4675 515.2703)" class="st7 st10 st11">TRACHEA</text>
<text transform="matrix(1 0 0 1 945.9785 515.2703)" class="st7 st10 st11">EPIGLOT</text>
<text transform="matrix(1 0 0 1 1030.7236 515.2703)" class="st7 st10 st11">TONG</text>
<text transform="matrix(1 0 0 1 1074.9536 497.9195)" class="st7 st20 st21">AIR</text>
<text transform="matrix(1 0 0 1 1074.9536 458.5275)" class="st7 st20 st21">WALL</text>
<line class="st28" x1="752.22" y1="492.12" x2="1065.17" y2="492.12"/>
<circle class="st29" cx="752.22" cy="492.12" r="3.88"/>
<circle class="st29" cx="1065.17" cy="492.12" r="3.88"/>
<circle class="st29" cx="1004.38" cy="492.12" r="3.88"/>
<circle class="st29" cx="933.97" cy="492.12" r="3.88"/>
<circle class="st29" cx="839.13" cy="492.12" r="3.88"/>
<line class="st30" x1="751.17" y1="59.19" x2="1069.05" y2="59.19"/>
<circle class="st31" cx="845.08" cy="59.19" r="3.88"/>
<line class="st32" x1="54.35" y1="856.08" x2="148.26" y2="856.08"/>
<circle class="st33" cx="148.26" cy="856.08" r="3.88"/>
<circle class="st33" cx="54.35" cy="856.08" r="3.88"/>
<line class="st28" x1="54.35" y1="873.4" x2="148.26" y2="873.4"/>
<circle class="st29" cx="148.26" cy="873.4" r="3.88"/>
<circle class="st29" cx="54.35" cy="873.4" r="3.88"/>
<line class="st34" x1="54.35" y1="892.75" x2="148.26" y2="892.75"/>
<circle class="st35" cx="148.26" cy="892.75" r="3.88"/>
<circle class="st35" cx="54.35" cy="892.75" r="3.88"/>
<text transform="matrix(1 0 0 1 164.2744 917.3848)" class="st7 st20 st11">Flow of Gut Content</text>
<line class="st36" x1="54.35" y1="913.5" x2="148.26" y2="913.5"/>
<circle class="st37" cx="148.26" cy="913.5" r="3.88"/>
<circle class="st37" cx="54.35" cy="913.5" r="3.88"/>
<circle class="st31" cx="750.22" cy="59.19" r="3.88"/>
<circle class="st31" cx="1069.05" cy="59.19" r="3.88"/>
<g>
	<g>
		<text transform="matrix(1 0 0 1 1227.5164 125.0065)" class="st7 st10 st11">OESOPHG</text>
		<rect x="1227.52" y="67.95" class="st24" width="79.61" height="44.95"/>
		<rect x="1227.52" y="48.36" class="st25" width="79.61" height="19.41"/>
	</g>
	<text transform="matrix(1 0 0 1 1312.8374 58.0609)" class="st7 st20 st21">CONTENT</text>
	<text transform="matrix(1 0 0 1 1312.8374 96.7361)" class="st7 st20 st21">WALL</text>
	<line class="st36" x1="1227.52" y1="59.19" x2="1307.13" y2="59.19"/>
	<circle class="st37" cx="1227.52" cy="59.19" r="3.88"/>
	<circle class="st37" cx="1307.13" cy="59.19" r="3.88"/>
</g>
<g>
	<text transform="matrix(1 0 0 1 27.1591 578.439)" class="st7 st10 st11">DIAPHRAGM</text>
	<rect x="27.16" y="521.38" class="st26" width="79.61" height="44.95"/>
</g>
<g>
	<text transform="matrix(1 0 0 1 27.1591 511.5735)" class="st7 st10 st11">T1-T2 INTRCT</text>
	<rect x="27.16" y="454.51" class="st26" width="79.61" height="44.95"/>
</g>
<circle class="st31" cx="953.01" cy="59.19" r="3.88"/>
<circle class="st35" cx="16.01" cy="707.17" r="3.88"/>
<circle class="st35" cx="115.33" cy="707.17" r="3.88"/>
<circle class="st35" cx="211.49" cy="707.17" r="3.88"/>
<circle class="st35" cx="309.96" cy="707.17" r="3.88"/>
<circle class="st35" cx="358.8" cy="707.17" r="3.88"/>
<circle class="st35" cx="407.93" cy="707.17" r="3.88"/>
<circle class="st35" cx="458.84" cy="707.17" r="3.88"/>
<circle class="st35" cx="508.86" cy="707.17" r="3.88"/>
<circle class="st35" cx="558.88" cy="707.17" r="3.88"/>
<circle class="st35" cx="655.61" cy="707.17" r="3.88"/>
<circle class="st35" cx="751.92" cy="707.17" r="3.88"/>
<circle class="st35" cx="800.84" cy="707.17" r="3.88"/>
<circle class="st35" cx="1132.92" cy="707.17" r="3.88"/>
<circle class="st35" cx="1233.7" cy="707.17" r="3.88"/>
<circle class="st35" cx="1283.72" cy="707.17" r="3.88"/>
<circle class="st35" cx="1384.98" cy="707.17" r="3.88"/>
<g>
	
		<rect x="566.78" y="210.83" transform="matrix(0.9875 0.1576 -0.1576 0.9875 40.8591 -87.5597)" class="st38" width="11.45" height="6.03"/>
	
		<rect x="565.83" y="216.78" transform="matrix(0.9875 0.1576 -0.1576 0.9875 41.7853 -87.3356)" class="st33" width="11.45" height="6.03"/>
</g>
<g>
	
		<rect x="503.07" y="216.42" transform="matrix(-0.9957 -0.0927 0.0927 -0.9957 995.0505 485.0888)" class="st38" width="11.45" height="6.03"/>
	
		<rect x="503.63" y="210.42" transform="matrix(-0.9957 -0.0927 0.0927 -0.9957 996.7222 473.1635)" class="st33" width="11.45" height="6.03"/>
</g>
<g>
	
		<rect x="444.55" y="211.6" transform="matrix(-1 -1.224647e-16 1.224647e-16 -1 900.5535 429.2322)" class="st38" width="11.45" height="6.03"/>
	
		<rect x="444.55" y="205.57" transform="matrix(-1 -1.224647e-16 1.224647e-16 -1 900.5535 417.1774)" class="st33" width="11.45" height="6.03"/>
</g>
<g>
	<rect x="54.01" y="949.73" class="st38" width="52.72" height="27.75"/>
	<rect x="54.01" y="977.49" class="st33" width="52.72" height="27.75"/>
</g>
<g>
	
		<rect x="383.14" y="212.57" transform="matrix(-0.9944 0.1057 -0.1057 -0.9944 798.3498 388.8562)" class="st38" width="11.45" height="6.03"/>
	
		<rect x="382.51" y="206.58" transform="matrix(-0.9944 0.1057 -0.1057 -0.9944 796.4455 376.9699)" class="st33" width="11.45" height="6.03"/>
</g>
<g>
	
		<rect x="319.32" y="219.39" transform="matrix(-0.9817 0.1904 -0.1904 -0.9817 686.4863 378.8601)" class="st38" width="11.45" height="6.03"/>
	
		<rect x="318.17" y="213.47" transform="matrix(-0.9817 0.1904 -0.1904 -0.9817 683.086 367.3523)" class="st33" width="11.45" height="6.03"/>
</g>
<g>
	
		<rect x="611.5" y="230.67" transform="matrix(-0.9942 -0.1074 0.1074 -0.9942 1205.788 532.3069)" class="st38" width="11.45" height="6.03"/>
	
		<rect x="612.15" y="224.67" transform="matrix(-0.9942 -0.1074 0.1074 -0.9942 1207.7228 520.426)" class="st33" width="11.45" height="6.03"/>
</g>
<g>
	
		<rect x="270.01" y="233.2" transform="matrix(-0.9147 0.4042 -0.4042 -0.9147 623.4132 340.8293)" class="st38" width="11.45" height="6.03"/>
	
		<rect x="267.57" y="227.69" transform="matrix(-0.9147 0.4042 -0.4042 -0.9147 616.5202 331.2582)" class="st33" width="11.45" height="6.03"/>
</g>
<g>
	
		<rect x="211.5" y="325.64" transform="matrix(1.590452e-13 -1 1 1.590452e-13 -111.4297 545.874)" class="st38" width="11.45" height="6.03"/>
	
		<rect x="217.52" y="325.64" transform="matrix(2.380930e-13 -1 1 2.380930e-13 -105.4022 551.9014)" class="st33" width="11.45" height="6.03"/>
</g>
<g>
	
		<rect x="378.34" y="643.04" transform="matrix(-0.9964 0.0848 -0.0848 -0.9964 821.5271 1257.2161)" class="st38" width="11.45" height="6.03"/>
	
		<rect x="377.83" y="637.03" transform="matrix(-0.9964 0.0848 -0.0848 -0.9964 819.9977 1245.2697)" class="st33" width="11.45" height="6.03"/>
</g>
<g>
	
		<rect x="427.27" y="638.57" transform="matrix(-0.9972 0.0741 -0.0741 -0.9972 912.351 1249.3102)" class="st38" width="11.45" height="6.03"/>
	
		<rect x="426.82" y="632.56" transform="matrix(-0.9972 0.0741 -0.0741 -0.9972 911.0132 1237.3381)" class="st33" width="11.45" height="6.03"/>
</g>
<g>
	
		<rect x="476.8" y="633.34" transform="matrix(-0.9924 0.123 -0.123 -0.9924 1039.6351 1208.5482)" class="st38" width="11.45" height="6.03"/>
	
		<rect x="476.06" y="627.36" transform="matrix(-0.9924 0.123 -0.123 -0.9924 1037.4231 1196.7213)" class="st33" width="11.45" height="6.03"/>
</g>
<g>
	
		<rect x="1295.45" y="666.68" transform="matrix(-0.9976 -0.0688 0.0688 -0.9976 2547.4622 1427.1503)" class="st38" width="5.73" height="6.03"/>
	
		<rect x="1295.87" y="660.67" transform="matrix(-0.9976 -0.0688 0.0688 -0.9976 2548.7046 1415.1667)" class="st33" width="5.73" height="6.03"/>
</g>
<g>
	
		<rect x="1306.46" y="668.53" transform="matrix(-0.9941 -0.1088 0.1088 -0.9941 2543.4729 1481.9178)" class="st38" width="11.45" height="6.03"/>
	
		<rect x="1307.11" y="662.54" transform="matrix(-0.9941 -0.1088 0.1088 -0.9941 2545.4331 1470.0416)" class="st33" width="11.45" height="6.03"/>
</g>
<g>
	
		<rect x="208.6" y="414.95" transform="matrix(-0.0294 -0.9996 0.9996 -0.0294 -197.1633 644.4858)" class="st38" width="11.45" height="6.03"/>
	
		<rect x="214.62" y="414.78" transform="matrix(-0.0294 -0.9996 0.9996 -0.0294 -190.7843 650.3256)" class="st33" width="11.45" height="6.03"/>
</g>
<g>
	
		<rect x="291.01" y="656.91" transform="matrix(-0.9926 0.1218 -0.1218 -0.9926 666.4229 1279.1058)" class="st38" width="6.2" height="6.03"/>
	
		<rect x="290.27" y="650.93" transform="matrix(-0.9926 0.1218 -0.1218 -0.9926 664.231 1267.2748)" class="st33" width="6.2" height="6.03"/>
</g>
<g>
	
		<rect x="326.42" y="650.5" transform="matrix(-0.9939 0.1105 -0.1105 -0.9939 734.5003 1266.3048)" class="st38" width="11.45" height="6.03"/>
	
		<rect x="325.76" y="644.51" transform="matrix(-0.9939 0.1105 -0.1105 -0.9939 732.5096 1254.4342)" class="st33" width="11.45" height="6.03"/>
</g>
<g>
	
		<rect x="1151.56" y="650.93" transform="matrix(-0.9956 -0.0932 0.0932 -0.9956 2248.55 1412.937)" class="st38" width="11.45" height="6.03"/>
	
		<rect x="1152.12" y="644.93" transform="matrix(-0.9956 -0.0932 0.0932 -0.9956 2250.231 1401.0132)" class="st33" width="11.45" height="6.03"/>
</g>
<g>
	
		<rect x="1252.59" y="662.08" transform="matrix(-0.9914 -0.1308 0.1308 -0.9914 2418.8 1489.0809)" class="st38" width="11.45" height="6.03"/>
	
		<rect x="1253.37" y="656.1" transform="matrix(-0.9914 -0.1308 0.1308 -0.9914 2421.1521 1477.2842)" class="st33" width="11.45" height="6.03"/>
</g>
<g>
	
		<rect x="238.54" y="627.59" transform="matrix(-0.3027 -0.9531 0.9531 -0.3027 -282.7986 1054.3073)" class="st38" width="11.45" height="6.03"/>
	
		<rect x="244.29" y="625.76" transform="matrix(-0.3027 -0.9531 0.9531 -0.3027 -273.576 1057.4053)" class="st33" width="11.45" height="6.03"/>
</g>
<g>
	
		<rect x="695.86" y="628.23" transform="matrix(-0.9995 -0.0329 0.0329 -0.9995 1382.025 1285.2072)" class="st38" width="11.45" height="6.03"/>
	
		<rect x="696.05" y="622.2" transform="matrix(-0.9995 -0.0329 0.0329 -0.9995 1382.6194 1273.1687)" class="st33" width="11.45" height="6.03"/>
</g>
<g>
	
		<rect x="825.95" y="630.34" transform="matrix(-0.9987 -0.0505 0.0505 -0.9987 1630.3182 1307.8998)" class="st38" width="11.45" height="6.03"/>
	
		<rect x="826.26" y="624.32" transform="matrix(-0.9987 -0.0505 0.0505 -0.9987 1631.2303 1295.8833)" class="st33" width="11.45" height="6.03"/>
</g>
<g>
	
		<rect x="527.09" y="631.21" transform="matrix(-0.9953 0.0965 -0.0965 -0.9953 1124.3225 1214.0923)" class="st38" width="11.45" height="6.03"/>
	
		<rect x="526.5" y="625.21" transform="matrix(-0.9953 0.0965 -0.0965 -0.9953 1122.5834 1202.1777)" class="st33" width="11.45" height="6.03"/>
</g>
<g>
	
		<rect x="771.21" y="628.68" transform="matrix(-0.9977 -0.0671 0.0671 -0.9977 1509.7172 1314.1216)" class="st38" width="11.45" height="6.03"/>
	
		<rect x="771.62" y="622.67" transform="matrix(-0.9977 -0.0671 0.0671 -0.9977 1510.9292 1302.1346)" class="st33" width="11.45" height="6.03"/>
</g>
<g>
	
		<rect x="592.65" y="629.69" transform="matrix(-1 -1.224647e-16 1.224647e-16 -1 1196.7468 1265.4058)" class="st38" width="11.45" height="6.03"/>
	
		<rect x="592.65" y="623.66" transform="matrix(-1 -1.224647e-16 1.224647e-16 -1 1196.7468 1253.3508)" class="st33" width="11.45" height="6.03"/>
</g>
<g>
	
		<rect x="968.69" y="155.45" transform="matrix(-0.874 0.486 -0.486 -0.874 1903.0348 -176.5739)" class="st38" width="11.45" height="6.03"/>
	
		<rect x="965.76" y="150.19" transform="matrix(-0.874 0.486 -0.486 -0.874 1894.9856 -185.0221)" class="st33" width="11.45" height="6.03"/>
</g>
<g>
	
		<rect x="1022.49" y="88.83" transform="matrix(-0.1257 0.9921 -0.9921 -0.1257 1246.5314 -914.8564)" class="st38" width="7.81" height="6.03"/>
	
		<rect x="1016.51" y="88.07" transform="matrix(-0.1257 0.9921 -0.9921 -0.1257 1239.0485 -909.7772)" class="st33" width="7.81" height="6.03"/>
</g>
<g>
	
		<rect x="674.52" y="202.62" transform="matrix(-0.9963 0.0856 -0.0856 -0.9963 1373.1527 352.3848)" class="st38" width="9" height="6.03"/>
	
		<rect x="674" y="196.61" transform="matrix(-0.9963 0.0856 -0.0856 -0.9963 1371.6086 340.4404)" class="st33" width="9" height="6.03"/>
</g>
<g>
	
		<rect x="732.45" y="187.33" transform="matrix(0.9972 -0.0747 0.0747 0.9972 -12.161 55.6991)" class="st38" width="11.45" height="6.03"/>
	
		<rect x="732.9" y="193.34" transform="matrix(0.9972 -0.0747 0.0747 0.9972 -12.609 55.7496)" class="st33" width="11.45" height="6.03"/>
</g>
<g>
	
		<rect x="1019.19" y="104.36" transform="matrix(-1.836970e-16 1 -1 -1.836970e-16 1129.4255 -914.6804)" class="st38" width="5.73" height="6.03"/>
	
		<rect x="1013.16" y="104.36" transform="matrix(-1.836970e-16 1 -1 -1.836970e-16 1123.3981 -908.653)" class="st33" width="5.73" height="6.03"/>
</g>
<g>
	<g>
		<path class="st16" d="M258.31,652.88c-36.3-87.26-66.38-378.99,2.7-416.98c14.42-7.94,99.54-51.98,371.1-6.69"/>
		<g>
			<g>
				<polygon class="st17" points="263.31,656.12 258.12,652.32 257.25,658.69 				"/>
				<path class="st7" d="M263.97,656.2l-6.1-4.48l-1.03,7.5L263.97,656.2z M258.37,652.91l4.27,3.13l-4.99,2.11L258.37,652.91z"/>
			</g>
		</g>
		<g>
			
				<rect x="628.87" y="228.72" transform="matrix(0.1518 -0.9884 0.9884 0.1518 309.6153 819.2193)" class="st7" width="6.5" height="1"/>
		</g>
	</g>
</g>
<g>
	<polygon class="st7" points="631.81,232.44 632.55,226 633.41,226.13 632.67,232.58 	"/>
</g>
<g>
	<g>
		<path class="st16" d="M616.51,195.77c-104.22,0.46-194.33,14.26-211.16,4.07c-17.12-10.37-93.82-110.89-16.99-110.89
			c76.63,0,334.06,0,397.96,0"/>
		<g>
			<g>
				<polygon class="st17" points="621.39,192.49 615.92,195.87 621.49,199.07 				"/>
				<path class="st7" d="M621.71,191.91l-6.44,3.97l6.56,3.77L621.71,191.91z M616.56,195.86l4.51-2.78l0.08,5.42L616.56,195.86z"/>
			</g>
		</g>
		<g>
			<rect x="785.82" y="85.7" class="st7" width="1" height="6.5"/>
		</g>
	</g>
</g>
<g>
	<g>
		<path class="st16" d="M656.93,195.01C761.54,180,923,165.39,951.58,157.83c33.12-8.75,11.4-41.92-26.11-76.55"/>
		<g>
			<g>
				<polygon class="st17" points="652.5,198.96 657.52,194.95 651.6,192.44 				"/>
				<path class="st7" d="M652.25,199.58l5.92-4.72l-6.96-2.95L652.25,199.58z M656.89,195.04l-4.14,3.3l-0.73-5.37L656.89,195.04z"
					/>
			</g>
		</g>
		<g>
			
				<rect x="922.22" y="80.79" transform="matrix(0.6959 -0.7181 0.7181 0.6959 223.0511 689.3309)" class="st7" width="6.5" height="1"/>
		</g>
	</g>
</g>
<g>
	<g>
		<path class="st16" d="M660.66,203.59c74.18-18.85,353.57,9.14,361.46-121.94"/>
		<g>
			<g>
				<polygon class="st17" points="656.8,208.12 661.24,203.47 655.04,201.78 				"/>
				<path class="st7" d="M656.64,208.76l5.22-5.47l-7.3-1.99L656.64,208.76z M660.62,203.64l-3.66,3.83l-1.45-5.22L660.62,203.64z"
					/>
			</g>
		</g>
		<g>
			
				<rect x="1021.6" y="78.39" transform="matrix(0.0889 -0.996 0.996 0.0889 849.9449 1092.4417)" class="st7" width="1" height="6.5"/>
		</g>
	</g>
</g>
<g>
	<g>
		<path class="st16" d="M664.71,213.25c152.85-17.22,439.1-53.1,492.57-48.87c54.04,4.27,20.24,122.74-102.6,298.8"/>
		<g>
			<g>
				<polygon class="st17" points="660.19,217.05 665.3,213.16 659.44,210.51 				"/>
				<path class="st7" d="M659.93,217.67l6.02-4.59l-6.9-3.11L659.93,217.67z M664.66,213.23l-4.21,3.21l-0.62-5.38L664.66,213.23z"
					/>
			</g>
		</g>
		<g>
			
				<rect x="1054.18" y="459.93" transform="matrix(0.5627 -0.8266 0.8266 0.5627 78.2971 1074.3729)" class="st7" width="1" height="6.5"/>
		</g>
	</g>
</g>
<g>
	<g>
		<path class="st16" d="M664.65,223.49c123.42-23.75,327.64-44.93,335.95,8.12c8.42,53.73,32.99,95.97-13.42,226.51"/>
		<g>
			<g>
				<polygon class="st17" points="660.39,227.65 665.25,223.45 659.23,221.17 				"/>
				<path class="st7" d="M660.16,228.28l5.72-4.95l-7.08-2.67L660.16,228.28z M664.61,223.56l-4,3.47l-0.95-5.34L664.61,223.56z"/>
			</g>
		</g>
		<g>
			
				<rect x="986.67" y="454.87" transform="matrix(0.3193 -0.9476 0.9476 0.3193 237.8011 1247.3097)" class="st7" width="1" height="6.5"/>
		</g>
	</g>
</g>
<g>
	<g>
		<path class="st16" d="M664.68,234.3c127.4-20.56,321.2-47.5,327.95-3.6c6.8,44.24-10.78,199.28-15.37,227.08"/>
		<g>
			<g>
				<polygon class="st17" points="660.32,238.32 665.27,234.21 659.3,231.82 				"/>
				<path class="st7" d="M660.08,238.95l5.82-4.83l-7.02-2.82L660.08,238.95z M664.63,234.31l-4.07,3.38l-0.84-5.35L664.63,234.31z"
					/>
			</g>
		</g>
		<g>
			
				<rect x="976.76" y="454.53" transform="matrix(0.1417 -0.9899 0.9899 0.1417 385.5969 1360.2936)" class="st7" width="1" height="6.5"/>
		</g>
	</g>
</g>
<g>
	<g>
		<path class="st16" d="M664.67,244.9c97.15-16.7,276.03-44.88,283.06-12.35c7.11,32.9,17.28,199.05,18,225.24"/>
		<g>
			<g>
				<polygon class="st17" points="660.34,248.97 665.26,244.83 659.28,242.47 				"/>
				<path class="st7" d="M660.1,249.59l5.8-4.86l-7.04-2.78L660.1,249.59z M664.63,244.94l-4.06,3.4l-0.87-5.35L664.63,244.94z"/>
			</g>
		</g>
		<g>
			
				<rect x="962.48" y="457.28" transform="matrix(0.9987 -0.0504 0.0504 0.9987 -21.8254 49.2081)" class="st7" width="6.5" height="1"/>
		</g>
	</g>
</g>
<g>
	<g>
		<path class="st16" d="M664.61,255.28c70.83-15.63,272.68-44.71,277.59-21.6c5.04,23.69,14.64,153.09,10.8,171.68
			c-2.89,13.99,4.57,2.19-42.38,50.86"/>
		<g>
			<g>
				<polygon class="st17" points="660.47,259.58 665.22,255.24 659.14,253.13 				"/>
				<path class="st7" d="M660.26,260.21l5.59-5.1l-7.15-2.48L660.26,260.21z M664.59,255.37l-3.91,3.57l-1.09-5.31L664.59,255.37z"
					/>
			</g>
		</g>
		<g>
			
				<rect x="910.12" y="452.98" transform="matrix(0.7004 -0.7138 0.7138 0.7004 -52.8048 786.6749)" class="st7" width="1" height="6.5"/>
		</g>
	</g>
</g>
<g>
	<g>
		<path class="st16" d="M664.59,265.82c56.48-13.74,266.62-56.49,273.26-23.46c6.85,34.12-2.91,64.12-2.72,81.06
			c0.28,25.61,1.95,136.47,17.48,149.49"/>
		<g>
			<g>
				<polygon class="st17" points="660.56,270.2 665.18,265.74 659.05,263.79 				"/>
				<path class="st7" d="M660.37,270.84l5.44-5.25l-7.21-2.28L660.37,270.84z M664.55,265.88l-3.81,3.68l-1.24-5.28L664.55,265.88z"
					/>
			</g>
		</g>
		<g>
			
				<rect x="949.37" y="472.4" transform="matrix(0.6391 -0.7691 0.7691 0.6391 -19.9336 903.32)" class="st7" width="6.5" height="1"/>
		</g>
	</g>
</g>
<g>
	<g>
		<path class="st16" d="M664.67,276.8c110.35-20.31,249.88-61.66,262.23-30.89c12.5,31.13-0.04,191.39-41.33,206.52"/>
		<g>
			<g>
				<polygon class="st17" points="660.44,280.89 665.23,276.6 659.18,274.43 				"/>
				<path class="st7" d="M660.23,281.52l5.64-5.04l-7.12-2.55L660.23,281.52z M664.6,276.73l-3.95,3.53l-1.04-5.32L664.6,276.73z"/>
			</g>
		</g>
		<g>
			
				<rect x="885.06" y="449.16" transform="matrix(0.9294 -0.3691 0.3691 0.9294 -104.4493 358.7609)" class="st7" width="1" height="6.5"/>
		</g>
	</g>
</g>
<g>
	<g>
		<path class="st16" d="M616.68,281.7c-0.38,48.78,79.53,312.84,121,312.84c43.33,0,380.87,0,406.37,0
			c25.47,0,77.27-120.36-89.14-120.6"/>
		<g>
			<g>
				<polygon class="st17" points="613.94,276.53 616.77,282.3 620.5,277.07 				"/>
				<path class="st7" d="M613.39,276.15l3.33,6.79l4.39-6.16L613.39,276.15z M616.82,281.66l-2.33-4.76l5.4,0.44L616.82,281.66z"/>
			</g>
		</g>
		<g>
			
				<rect x="1051.65" y="473.45" transform="matrix(0.023 -0.9997 0.9997 0.023 556.7968 1517.66)" class="st7" width="6.5" height="1"/>
		</g>
	</g>
</g>
<g>
	<g>
		<path class="st16" d="M607.44,281.72c3.28,46.34,45.73,317.61,117.69,317.61c75.62,0,585.29,0,603.74,0
			c18.38,0,45.69,18.45,10.11,56.61"/>
		<g>
			<g>
				<polygon class="st17" points="603.99,276.94 607.52,282.32 610.56,276.65 				"/>
				<path class="st7" d="M603.39,276.64l4.15,6.32l3.58-6.67L603.39,276.64z M607.49,281.67l-2.91-4.43l5.41-0.24L607.49,281.67z"/>
			</g>
		</g>
		<g>
			
				<rect x="1338.47" y="652.7" transform="matrix(0.6703 -0.7421 0.7421 0.6703 -45.295 1209.9497)" class="st7" width="1" height="6.5"/>
		</g>
	</g>
</g>
<g>
	<g>
		<path class="st16" d="M598.55,281.58c-4.21,48.04,6.93,323.97,60.94,323.97c56.55,0,139.84,0,149.71,0
			c9.83,0,62.66,17.06,45.58,56.59"/>
		<g>
			<g>
				<polygon class="st17" points="595.95,276.3 598.55,282.18 602.49,277.1 				"/>
				<path class="st7" d="M595.42,275.9l3.05,6.92l4.63-5.98L595.42,275.9z M598.63,281.54l-2.14-4.85l5.38,0.66L598.63,281.54z"/>
			</g>
		</g>
		<g>
			
				<rect x="854.26" y="658.89" transform="matrix(0.3684 -0.9297 0.9297 0.3684 -75.6992 1212.8481)" class="st7" width="1" height="6.5"/>
		</g>
	</g>
</g>
<g>
	<g>
		<path class="st16" d="M637.06,282.4c29.86,276.27,173.81,323.15,230.01,323.15c56.55,0,171.84,0,181.71,0
			c9.83,0,34.88,17.06,17.58,56.6"/>
		<g>
			<g>
				<polygon class="st17" points="633.3,277.88 637.21,282.98 639.83,277.11 				"/>
				<path class="st7" d="M632.68,277.62l4.6,6l3.09-6.91L632.68,277.62z M637.13,282.34l-3.22-4.2l5.38-0.63L637.13,282.34z"/>
			</g>
		</g>
		<g>
			
				<rect x="1065.85" y="658.89" transform="matrix(0.3859 -0.9226 0.9226 0.3859 44.0187 1390.4039)" class="st7" width="1" height="6.5"/>
		</g>
	</g>
</g>
<g>
	<g>
		<path class="st16" d="M627.41,282.36c32.03,201.84,100.58,306.18,156.66,306.18c56.55,0,171.84,0,181.71,0
			c9.83,0,34.88,33.93,17.58,73.6"/>
		<g>
			<g>
				<polygon class="st17" points="623.42,278.04 627.6,282.93 629.91,276.94 				"/>
				<path class="st7" d="M622.8,277.81l4.91,5.76l2.72-7.06L622.8,277.81z M627.49,282.3l-3.44-4.03l5.34-0.91L627.49,282.3z"/>
			</g>
		</g>
		<g>
			
				<rect x="982.84" y="658.89" transform="matrix(0.3815 -0.9244 0.9244 0.3815 -3.841 1318.5366)" class="st7" width="1" height="6.5"/>
		</g>
	</g>
</g>
<g>
	<g>
		<path class="st16" d="M664.71,287.78c46.62-2.18,187.25,63.29,159.1,165.21"/>
		<g>
			<g>
				<polygon class="st17" points="660.13,291.62 665.31,287.8 659.49,285.07 				"/>
				<path class="st7" d="M659.86,292.23l6.09-4.49l-6.85-3.22L659.86,292.23z M664.67,287.87l-4.26,3.14l-0.53-5.39L664.67,287.87z"
					/>
			</g>
		</g>
		<g>
			
				<rect x="823.31" y="449.74" transform="matrix(0.2477 -0.9688 0.9688 0.2477 180.8431 1138.8898)" class="st7" width="1" height="6.5"/>
		</g>
	</g>
</g>
<g>
	<g>
		<path class="st16" d="M645.75,281.72c2.27,44.28,29.94,166.99,133.89,186.08"/>
		<g>
			<g>
				<polygon class="st17" points="642.34,276.93 645.86,282.32 648.91,276.66 				"/>
				<path class="st7" d="M641.75,276.63l4.14,6.33l3.6-6.65L641.75,276.63z M645.83,281.67l-2.9-4.43l5.42-0.22L645.83,281.67z"/>
			</g>
		</g>
		<g>
			
				<rect x="776.4" y="467.29" transform="matrix(0.2121 -0.9772 0.9772 0.2121 157.1246 1130.4615)" class="st7" width="6.5" height="1"/>
		</g>
	</g>
</g>
<g>
	<g>
		<path class="st16" d="M1335.45,670.38c-171.27-31.4-783.44-77.25-1054.92-12.79"/>
		<g>
			<g>
				<polygon class="st17" points="1340.83,668.07 1334.84,670.39 1339.74,674.56 				"/>
				<path class="st7" d="M1341.26,667.55l-7.05,2.74l5.77,4.9L1341.26,667.55z M1335.48,670.5l4.94-1.92l-0.9,5.34L1335.48,670.5z"
					/>
			</g>
		</g>
		<g>
			
				<rect x="280.03" y="654.35" transform="matrix(0.9772 -0.2122 0.2122 0.9772 -133.1634 74.5105)" class="st7" width="1" height="6.5"/>
		</g>
	</g>
</g>
<circle class="st18" cx="842.01" cy="667.6" r="3.42"/>
<circle class="st18" cx="961.85" cy="655.1" r="3.42"/>
<circle class="st18" cx="527.63" cy="673.52" r="3.42"/>
<circle class="st18" cx="476.57" cy="673.52" r="3.42"/>
<circle class="st18" cx="1331.09" cy="670.11" r="3.42"/>
<circle class="st18" cx="256.42" cy="648.52" r="3.42"/>
<circle class="st18" cx="268.14" cy="653.51" r="3.42"/>
<g>
	<g>
		<path class="st16" d="M527.98,676.88c-24.32-78.51-5.18-203.26-442.16-144.28"/>
		<g>
			<g>
				<polygon class="st17" points="532.63,680.58 527.82,676.31 526.36,682.57 				"/>
				<path class="st7" d="M533.29,680.71l-5.66-5.02l-1.71,7.37L533.29,680.71z M528.02,676.93l3.96,3.51l-5.16,1.65L528.02,676.93z"
					/>
			</g>
		</g>
		<g>
			
				<rect x="85.19" y="529.37" transform="matrix(0.9921 -0.1251 0.1251 0.9921 -65.9702 14.9076)" class="st7" width="1" height="6.5"/>
		</g>
	</g>
</g>
<g>
	<g>
		<path class="st16" d="M477.47,676.85c-25.23-89.08,22.12-186.54-391.78-132.15"/>
		<g>
			<g>
				<polygon class="st17" points="482.03,680.66 477.34,676.26 475.71,682.48 				"/>
				<path class="st7" d="M482.68,680.81l-5.52-5.17l-1.92,7.32L482.68,680.81z M477.52,676.88l3.87,3.62l-5.21,1.5L477.52,676.88z"
					/>
			</g>
		</g>
		<g>
			
				<rect x="85.19" y="541.45" transform="matrix(0.9924 -0.1234 0.1234 0.9924 -66.5679 14.7394)" class="st7" width="1" height="6.5"/>
		</g>
	</g>
</g>
<g>
	<g>
		<path class="st16" d="M268.49,657.27c-12.57-172.42,26.36-210.96-177.23-182.7"/>
		<g>
			<g>
				<polygon class="st17" points="272.13,661.98 268.49,656.68 265.56,662.4 				"/>
				<path class="st7" d="M272.73,662.27l-4.28-6.24l-3.45,6.73L272.73,662.27z M268.53,657.32l2.99,4.37l-5.41,0.34L268.53,657.32z"
					/>
			</g>
		</g>
		<g>
			
				<rect x="90.76" y="471.33" transform="matrix(0.992 -0.1263 0.1263 0.992 -59.2006 15.3233)" class="st7" width="1" height="6.5"/>
		</g>
	</g>
</g>
<text transform="matrix(1 0 0 1 1154.9155 817.026)" class="st7 st10 st11">RGC: Rami glomi carotici</text>
<text transform="matrix(1 0 0 1 665.8662 830.001)" class="st7 st10 st11">HRG: Hering’s nerve</text>
<text transform="matrix(1 0 0 1 913.2465 990.9218)" class="st7 st10 st11">PTR: Petrosal ganglion</text>
<text transform="matrix(1 0 0 1 371.0996 951.5856)" class="st7 st10 st11">EM: Epiglottic mechanoreceptors</text>
<text transform="matrix(1 0 0 1 665.8663 973.0416)" class="st7 st10 st11">LM: Laryngeal mechanoreceptors</text>
<g>
	<g>
		<path class="st16" d="M966.39,656.42c-167.77-48.58-616.88,8.97-690.86,9.98"/>
		<g>
			<g>
				<polygon class="st17" points="972.04,654.7 965.81,656.29 970.18,661.01 				"/>
				<path class="st7" d="M972.52,654.24l-7.33,1.88l5.14,5.55L972.52,654.24z M966.43,656.48l5.13-1.31l-1.53,5.2L966.43,656.48z"/>
			</g>
		</g>
		<g>
			
				<rect x="275.04" y="663.14" transform="matrix(0.9991 -0.0435 0.0435 0.9991 -28.6989 12.6035)" class="st7" width="1" height="6.5"/>
		</g>
	</g>
</g>
<g>
	<g>
		<path class="st16" d="M910.58,88.26c-9.04,52.17,18.77,84.48,156.39,173.17c142.1,91.58,190.79,96.19,181.99,185.42
			s-17.42,116.59-345.11,116.59c-49.66,0-11.68,71.89-3.96,94.61"/>
		<g>
			<g>
				<polygon class="st17" points="908.3,82.81 910.52,88.85 914.77,84.03 				"/>
				<path class="st7" d="M907.79,82.38l2.6,7.1l5.01-5.67L907.79,82.38z M910.64,88.22l-1.82-4.97l5.33,1L910.64,88.22z"/>
			</g>
		</g>
		<g>
			
				<rect x="896.62" y="657.55" transform="matrix(0.9341 -0.3571 0.3571 0.9341 -175.6456 364.6797)" class="st7" width="6.5" height="1"/>
		</g>
	</g>
</g>
<circle class="st18" cx="1062.29" cy="258.46" r="3.42"/>
<circle class="st18" cx="879.06" cy="278.3" r="3.42"/>
<circle class="st18" cx="879.06" cy="303.31" r="3.42"/>
<circle class="st18" cx="879.06" cy="353.3" r="3.42"/>
<circle class="st18" cx="1071.53" cy="253.1" r="3.42"/>
<g>
	<g>
		<path class="st16" d="M1040.8,88.35c-1.32,44.18-59.52,113.7,32.13,165.81c95.38,54.23,190.69,86.03,193.35,179.84
			c4,141.34-147.52,141.33-352.83,141.33c-38.03,0-16.9,27.48-2.13,84.1"/>
		<g>
			<g>
				<polygon class="st17" points="1037.4,83.46 1040.75,88.95 1043.98,83.39 				"/>
				<path class="st7" d="M1036.81,83.14l3.94,6.46l3.8-6.54L1036.81,83.14z M1040.74,88.3l-2.76-4.52l5.42-0.06L1040.74,88.3z"/>
			</g>
		</g>
		<g>
			
				<rect x="908.06" y="658.94" transform="matrix(0.9614 -0.2753 0.2753 0.9614 -146.3182 276.333)" class="st7" width="6.5" height="1"/>
		</g>
	</g>
</g>
<rect x="978.65" y="462.83" class="st13" width="16.25" height="17.23"/>
<g>
	<g>
		<path class="st16" d="M798.46,88.27c15.71,78.73,102.58,138.86,76.79,202.82c-26.35,65.35-193.21-1.64-171.28,157.6
			c18.84,136.79,167.7,95.28,164.03,216.74"/>
		<g>
			<g>
				<polygon class="st17" points="794.38,84.02 798.64,88.84 800.85,82.81 				"/>
				<path class="st7" d="M793.75,83.81l5.01,5.67l2.6-7.1L793.75,83.81z M798.52,88.21l-3.5-3.97l5.33-1L798.52,88.21z"/>
			</g>
		</g>
		<g>
			
				<rect x="867.49" y="662.17" transform="matrix(0.0144 -0.9999 0.9999 0.0144 190.1345 1523.7427)" class="st7" width="1" height="6.5"/>
		</g>
	</g>
</g>
<g>
	<g>
		<path class="st16" d="M988.45,468.83c77.12-117.77,29.38-115.9-105.97-115.9c-137.01,0-164.56,12.42-150.65,110.66
			c14.53,102.59,147.8,83.02,157.85,197.71"/>
		<g>
			<g>
				<polygon class="st17" points="988.49,474.7 988.69,468.28 982.94,471.16 				"/>
				<path class="st7" d="M988.8,475.29l0.24-7.56l-6.76,3.39L988.8,475.29z M988.34,468.82l-0.17,5.29l-4.57-2.92L988.34,468.82z"/>
			</g>
		</g>
		<g>
			
				<rect x="886.42" y="660.8" transform="matrix(0.9927 -0.1206 0.1206 0.9927 -73.2645 112.1288)" class="st7" width="6.5" height="1"/>
		</g>
	</g>
</g>
<rect x="878.14" y="462.83" class="st13" width="16.25" height="17.23"/>
<g>
	<g>
		<path class="st39" d="M888.31,470.82c69.7-90.56,85.16-115.02,86.64-174.46c4-161.26-27.24,23.92-226.6,63.32
			c-44.37,8.77-65.11,113.82,17.35,177.2c48.5,37.28,109.31,46.48,114.28,125.8"/>
		<g>
			<g>
				<polygon class="st17" points="887.9,476.72 888.64,470.33 882.67,472.72 				"/>
				<path d="M888.16,477.33l0.87-7.52l-7.02,2.81L888.16,477.33z M888.25,470.84l-0.61,5.26l-4.31-3.29L888.25,470.84z"/>
			</g>
		</g>
		<g>
			<rect x="876.71" y="662.18" transform="matrix(0.9965 -0.0833 0.0833 0.9965 -52.1149 75.5598)" width="6.5" height="1"/>
		</g>
	</g>
</g>
<text transform="matrix(1 0 0 1 859.9861 479.221)" class="st7 st14 st15">LM</text>
<text transform="matrix(1 0 0 1 960.2255 479.221)" class="st7 st14 st15">EM</text>
</svg>
