<?xml version="1.0" encoding="utf-8"?>
<!-- Generator: Adobe Illustrator 26.3.1, SVG Export Plug-In . SVG Version: 6.00 Build 0)  -->
<svg version="1.1" id="Layer_1" xmlns="http://www.w3.org/2000/svg" xmlns:xlink="http://www.w3.org/1999/xlink" x="0px" y="0px"
	 viewBox="0 0 1190.55 841.89" style="enable-background:new 0 0 1190.55 841.89;" xml:space="preserve">
<style type="text/css">
	.st0{fill:#8DC63F;stroke:#000000;stroke-width:0.5;stroke-miterlimit:10;}
	.st1{fill:#E6E7E8;stroke:#010101;stroke-miterlimit:10;}
	.st2{fill:#BCBEC0;stroke:#010101;stroke-miterlimit:10;}
	.st3{fill:#E6E7E7;stroke:#010101;stroke-miterlimit:10;}
	.st4{fill:#D1D3D4;stroke:#000000;stroke-width:0.25;stroke-miterlimit:10;}
	.st5{fill:#1C75BC;stroke:#000000;stroke-width:0.25;stroke-miterlimit:10;}
	.st6{fill:#C49A6C;stroke:#000000;stroke-width:0.25;stroke-miterlimit:10;}
	.st7{fill:#F9ED32;stroke:#000000;stroke-width:0.25;stroke-miterlimit:10;}
	.st8{fill:#8DC63F;stroke:#000000;stroke-width:0.25;stroke-miterlimit:10;}
	.st9{fill:#808285;stroke:#000000;stroke-width:0.25;stroke-miterlimit:10;}
	.st10{fill:#6D6E71;stroke:#000000;stroke-width:0.25;stroke-miterlimit:10;}
	.st11{fill:none;stroke:#39B54A;stroke-width:2;stroke-miterlimit:10;}
	.st12{fill:none;stroke:#006838;stroke-width:2;stroke-miterlimit:10;}
	.st13{fill:#8DC63F;}
	.st14{fill:none;stroke:#EC008C;stroke-width:2;stroke-miterlimit:10;}
	.st15{fill:#BE1E2D;}
	.st16{fill:none;stroke:#1C75BC;stroke-width:2;stroke-miterlimit:10;}
	.st17{fill:none;stroke:#27AAE1;stroke-miterlimit:10;}
	.st18{fill:#27AAE1;}
	.st19{font-family:'TimesNewRomanPS-BoldMT';}
	.st20{font-size:9px;}
	.st21{font-size:11px;}
	.st22{fill:#C2B59B;stroke:#010101;stroke-width:0.25;stroke-miterlimit:10;}
	.st23{font-family:'CourierNewPS-BoldMT';}
	.st24{font-size:14px;}
	.st25{fill:#010101;}
	.st26{font-family:'ArialMT';}
	.st27{font-size:7.3528px;}
	.st28{font-size:6.5183px;}
	.st29{fill:#D7DF23;stroke:#000000;stroke-width:0.5;stroke-miterlimit:10;}
	.st30{fill:#39B54A;stroke:#000000;stroke-width:0.5;stroke-miterlimit:10;}
	.st31{fill:#662D91;stroke:#000000;stroke-width:0.5;stroke-miterlimit:10;}
	.st32{fill:#A97C50;stroke:#000000;stroke-width:0.5;stroke-miterlimit:10;}
	.st33{fill:#ED1C24;stroke:#000000;stroke-width:0.5;stroke-miterlimit:10;}
	.st34{fill:#009444;stroke:#000000;stroke-width:0.5;stroke-miterlimit:10;}
	.st35{fill:#BCBEC0;stroke:#000000;stroke-width:0.5;stroke-miterlimit:10;}
	.st36{fill:#FFFFFF;stroke:#000000;stroke-width:0.5;stroke-miterlimit:10;}
	.st37{font-family:'MyriadPro-Regular';}
	.st38{font-size:8.2178px;}
	.st39{fill:#E6E7E8;stroke:#000000;stroke-width:0.5;stroke-miterlimit:10;}
	.st40{fill:#D1D3D4;stroke:#000000;stroke-width:0.5;stroke-miterlimit:10;}
	.st41{fill:none;stroke:#EE2A7B;stroke-width:2;stroke-miterlimit:10;}
	.st42{font-size:12px;}
	.st43{font-size:6px;}
	.st44{fill:none;stroke:#000000;stroke-miterlimit:10;}
	.st45{fill:#FFFFFF;}
	.st46{fill:#010101;stroke:#010101;stroke-miterlimit:10;}
	.st47{fill:none;stroke:#F15A29;stroke-miterlimit:10;}
	.st48{fill:#F15A29;}
	.st49{fill:#662D91;}
	.st50{fill:none;stroke:#662D91;stroke-miterlimit:10;}
	.st51{fill:none;stroke:#FBB040;stroke-miterlimit:10;}
</style>
<rect x="431.69" y="80.32" transform="matrix(-1 7.965257e-08 -7.965257e-08 -1 901.5415 170.8935)" class="st0" width="38.17" height="10.26"/>
<rect x="732.96" y="621.9" class="st1" width="99.55" height="15.4"/>
<rect x="732.96" y="581.39" class="st2" width="99.55" height="40.51"/>
<g>
	<rect x="492.62" y="621.9" class="st1" width="19.44" height="15.4"/>
	<rect x="492.62" y="581.39" class="st2" width="19.44" height="40.51"/>
</g>
<g>
	<rect x="463.91" y="621.9" class="st1" width="19.44" height="15.4"/>
	<rect x="463.91" y="621.9" class="st1" width="19.44" height="15.4"/>
	<rect x="463.91" y="581.39" class="st3" width="19.44" height="40.51"/>
	<rect x="463.91" y="581.39" class="st2" width="19.44" height="40.51"/>
</g>
<g>
	<rect x="435.21" y="621.9" class="st1" width="19.44" height="15.4"/>
	<rect x="435.21" y="581.39" class="st2" width="19.44" height="40.51"/>
</g>
<g>
	<rect x="406.5" y="621.9" class="st1" width="19.44" height="15.4"/>
	<rect x="406.5" y="581.39" class="st2" width="19.44" height="40.51"/>
</g>
<g>
	<rect x="377.8" y="621.9" class="st1" width="19.44" height="15.4"/>
	<rect x="377.8" y="581.39" class="st2" width="19.44" height="40.51"/>
</g>
<g>
	
		<rect x="679.43" y="22.33" transform="matrix(-0.991 -0.1341 0.1341 -0.991 1375.903 142.5718)" class="st4" width="26.66" height="5.23"/>
	
		<rect x="671.14" y="83.82" transform="matrix(-0.991 -0.1341 0.1341 -0.991 1351.1962 263.3418)" class="st5" width="26.66" height="4.67"/>
	
		<rect x="671.71" y="80" transform="matrix(-0.991 -0.1341 0.1341 -0.991 1352.9031 254.9983)" class="st6" width="26.66" height="3.86"/>
	
		<rect x="674.23" y="46.44" transform="matrix(-0.991 -0.1341 0.1341 -0.991 1360.4198 218.2556)" class="st7" width="26.66" height="33.73"/>
	
		<rect x="676.77" y="42.54" transform="matrix(-0.991 -0.1341 0.1341 -0.991 1367.9784 181.3081)" class="st6" width="26.66" height="4.07"/>
	
		<rect x="677.34" y="38.06" transform="matrix(-0.991 -0.1341 0.1341 -0.991 1369.6963 172.9105)" class="st8" width="26.66" height="4.52"/>
	
		<rect x="678.36" y="27.49" transform="matrix(-0.991 -0.1341 0.1341 -0.991 1372.7283 158.0895)" class="st9" width="26.66" height="10.64"/>
	
		<rect x="678.7" y="27.51" transform="matrix(-0.991 -0.1341 0.1341 -0.991 1373.7501 153.0947)" class="st10" width="26.66" height="5.53"/>
</g>
<g>
	
		<rect x="740.58" y="32.26" transform="matrix(-0.9839 -0.1786 0.1786 -0.9839 1489.4684 203.8529)" class="st4" width="26.66" height="5.23"/>
	
		<rect x="729.55" y="93.32" transform="matrix(-0.9839 -0.1786 0.1786 -0.9839 1456.7189 322.4678)" class="st5" width="26.66" height="4.67"/>
	
		<rect x="730.31" y="89.52" transform="matrix(-0.9839 -0.1786 0.1786 -0.9839 1458.9814 314.2732)" class="st6" width="26.66" height="3.86"/>
	
		<rect x="733.67" y="56.1" transform="matrix(-0.9839 -0.1786 0.1786 -0.9839 1468.9451 278.1861)" class="st7" width="26.66" height="33.73"/>
	
		<rect x="737.04" y="52.33" transform="matrix(-0.9839 -0.1786 0.1786 -0.9839 1478.9641 241.898)" class="st6" width="26.66" height="4.07"/>
	
		<rect x="737.81" y="47.88" transform="matrix(-0.9839 -0.1786 0.1786 -0.9839 1481.2413 233.6502)" class="st8" width="26.66" height="4.52"/>
	
		<rect x="739.17" y="37.36" transform="matrix(-0.9839 -0.1786 0.1786 -0.9839 1485.2604 219.0937)" class="st9" width="26.66" height="10.64"/>
	
		<rect x="739.62" y="37.4" transform="matrix(-0.9839 -0.1786 0.1786 -0.9839 1486.6149 214.188)" class="st10" width="26.66" height="5.53"/>
</g>
<g>
	<path class="st11" d="M234.26,106.85c81.76,55.91,141.14-28.21,235.59-21.53"/>
</g>
<ellipse class="st12" cx="589.55" cy="423.15" rx="577.06" ry="404.88"/>
<circle class="st13" cx="88.56" cy="623.53" r="10.1"/>
<circle class="st13" cx="108.77" cy="647.43" r="10.1"/>
<circle class="st13" cx="992.35" cy="714.42" r="10.1"/>
<circle class="st13" cx="1118.09" cy="585.33" r="10.1"/>
<circle class="st13" cx="1128.19" cy="567.38" r="10.1"/>
<circle class="st13" cx="1118.09" cy="585.33" r="10.1"/>
<circle class="st13" cx="1128.19" cy="567.38" r="10.1"/>
<circle class="st13" cx="1138" cy="293.03" r="10.1"/>
<circle class="st13" cx="589.55" cy="828.03" r="10.1"/>
<ellipse class="st14" cx="603.26" cy="534.62" rx="402.45" ry="232.66"/>
<ellipse class="st15" cx="972.02" cy="445.15" rx="10.23" ry="9.17"/>
<ellipse class="st15" cx="574.98" cy="301.96" rx="10.23" ry="9.17"/>
<ellipse class="st15" cx="1005.71" cy="534.37" rx="10.23" ry="9.17"/>
<ellipse class="st15" cx="603.26" cy="767.28" rx="10.23" ry="9.17"/>
<rect x="767.55" y="460.26" class="st16" width="53.05" height="53.05"/>
<rect x="321.19" y="515.46" class="st16" width="273.59" height="45.23"/>
<rect x="321.19" y="449.19" class="st16" width="273.59" height="62.18"/>
<rect x="368.13" y="414.32" class="st16" width="226.66" height="27.88"/>
<g>
	<g>
		<line class="st17" x1="268.8" y1="626.89" x2="933.15" y2="626.89"/>
		<g>
			<path class="st18" d="M268.99,630.65c-2.08,0-3.76-1.68-3.76-3.76s1.68-3.76,3.76-3.76c2.08,0,3.76,1.68,3.76,3.76
				S271.06,630.65,268.99,630.65z"/>
		</g>
		<g>
			<circle class="st18" cx="932.96" cy="626.89" r="3.76"/>
		</g>
	</g>
</g>
<line class="st16" x1="272.03" y1="627.52" x2="928.93" y2="627.52"/>
<line class="st16" x1="845.61" y1="674.01" x2="845.61" y2="627.93"/>
<circle class="st18" cx="845.45" cy="672.23" r="3.43"/>
<circle class="st13" cx="1166.61" cy="417.63" r="10.1"/>
<circle class="st13" cx="12.49" cy="414.32" r="10.1"/>
<circle class="st18" cx="845.45" cy="650.97" r="3.43"/>
<circle cx="845.61" cy="627.93" r="3.43"/>
<circle class="st13" cx="1156.51" cy="349.11" r="10.1"/>
<text transform="matrix(1 0 0 1 765.1149 457.2086)" class="st19 st20">CN10</text>
<text transform="matrix(1 0 0 1 221.26 147.9012)"><tspan x="0" y="0" class="st19 st21">Pancreatic</tspan><tspan x="0" y="11" class="st19 st21">Ducts</tspan></text>
<text transform="matrix(1 0 0 1 380.6701 72.9623)" class="st19 st21">HepatobiliaryTract</text>
<text transform="matrix(1 0 0 1 603.2609 477.2162)"><tspan x="0" y="0" class="st19 st21">Infracervical</tspan><tspan x="0" y="11" class="st19 st21">Autonomic</tspan><tspan x="0" y="22" class="st19 st21">Ganglia</tspan></text>
<text transform="matrix(1 0 0 1 603.2609 424.4175)"><tspan x="0" y="0" class="st19 st21">Infracranial</tspan><tspan x="0" y="11" class="st19 st21">Nerves </tspan></text>
<text transform="matrix(1 0 0 1 254.4948 542.0663)"><tspan x="0" y="0" class="st19 st21">Spinal Roots</tspan><tspan x="0" y="11" class="st19 st21">and Nerves</tspan></text>
<text transform="matrix(1 0 0 1 360.809 767.2779)" class="st19 st21">Systemic Arterial</text>
<text transform="matrix(1 0 0 1 756.9936 762.2511)" class="st19 st21">Pulmonary Venous</text>
<text transform="matrix(1 0 0 1 995.478 466.1886)" class="st19 st21">Pulmonary Arterial</text>
<ellipse class="st15" cx="946.96" cy="411.38" rx="10.23" ry="9.17"/>
<rect x="489.78" y="540.34" class="st1" width="12.56" height="15.4"/>
<rect x="464.56" y="540.78" class="st1" width="12.56" height="15.4"/>
<rect x="439.35" y="540.78" class="st1" width="12.56" height="15.4"/>
<rect x="414.14" y="540.78" class="st1" width="12.56" height="15.4"/>
<rect x="388.92" y="540.78" class="st1" width="12.56" height="15.4"/>
<rect x="454.11" y="485.5" class="st1" width="11.04" height="12.52"/>
<rect x="470.84" y="485.78" class="st1" width="11.04" height="12.52"/>
<rect x="392.07" y="454.66" class="st1" width="31.3" height="15.4"/>
<rect x="477.4" y="454.66" class="st1" width="31.3" height="15.4"/>
<rect x="424.62" y="520.63" class="st1" width="31.3" height="15.4"/>
<rect x="437.38" y="485.78" class="st1" width="11.04" height="12.52"/>
<rect x="420.64" y="485.78" class="st1" width="11.04" height="12.52"/>
<rect x="403.91" y="485.78" class="st1" width="11.04" height="12.52"/>
<rect x="387.18" y="485.78" class="st1" width="11.04" height="12.52"/>
<rect x="739.19" y="592" class="st22" width="55.52" height="19.3"/>
<text transform="matrix(1 0 0 1 849.0432 624.7037)" class="st23 st24">N</text>
<text transform="matrix(1 0 0 1 732.9647 650.9706)" class="st25 st26 st27">MEDULLA</text>
<text transform="matrix(1 0 0 1 500.4697 647.5402)" class="st25 st26 st27">T5</text>
<text transform="matrix(1 0 0 1 472.5406 647.5402)" class="st25 st26 st27">T6</text>
<text transform="matrix(1 0 0 1 444.6114 647.5402)" class="st25 st26 st27">T7</text>
<text transform="matrix(1 0 0 1 416.682 647.5403)" class="st25 st26 st27">T8</text>
<text transform="matrix(1 0 0 1 388.7528 647.5403)" class="st25 st26 st27">T9</text>
<text transform="matrix(1 0 0 1 741.4957 617.8655)" class="st25 st19 st28">DMV</text>
<g>
	
		<rect x="368.94" y="134.32" transform="matrix(0.5391 -0.8422 0.8422 0.5391 57.4773 380.0898)" class="st29" width="14.2" height="6.41"/>
	
		<rect x="374.34" y="137.78" transform="matrix(0.5391 -0.8422 0.8422 0.5391 57.0545 386.2337)" class="st30" width="14.2" height="6.41"/>
	
		<rect x="381.61" y="144.65" transform="matrix(0.5391 -0.8422 0.8422 0.5391 56.4856 394.501)" class="st31" width="14.2" height="1.98"/>
	
		<rect x="378.91" y="141.69" transform="matrix(0.5391 -0.8422 0.8422 0.5391 56.697 391.429)" class="st32" width="14.2" height="4.43"/>
	
		<rect x="385.15" y="144.69" transform="matrix(0.5391 -0.8422 0.8422 0.5391 56.2089 398.5217)" class="st33" width="14.2" height="6.41"/>
</g>
<rect x="431.69" y="90.58" transform="matrix(-1 7.965262e-08 -7.965262e-08 -1 901.5415 184.3265)" class="st34" width="38.17" height="3.17"/>
<rect x="431.69" y="93.75" transform="matrix(-1 7.965264e-08 -7.965264e-08 -1 901.5415 194.5898)" class="st32" width="38.17" height="7.09"/>
<rect x="431.69" y="100.84" transform="matrix(-1 -6.055264e-08 6.055264e-08 -1 901.5416 207.0766)" class="st35" width="38.17" height="5.39"/>
<rect x="212.95" y="304.73" transform="matrix(0.6755 0.7373 -0.7373 0.6755 311.8106 -60.148)" class="st29" width="22.6" height="38.97"/>
<rect x="195.43" y="336" transform="matrix(0.6755 0.7373 -0.7373 0.6755 317.9627 -42.0192)" class="st30" width="22.6" height="8.56"/>
<rect x="186.94" y="346.73" transform="matrix(0.6755 0.7373 -0.7373 0.6755 320.9432 -33.2364)" class="st31" width="22.6" height="2.64"/>
<rect x="190.09" y="342.21" transform="matrix(0.6755 0.7373 -0.7373 0.6755 319.8357 -36.5)" class="st32" width="22.6" height="5.91"/>
<rect x="181.7" y="347.07" transform="matrix(0.6755 0.7373 -0.7373 0.6755 322.7831 -27.8148)" class="st33" width="22.6" height="11.57"/>
<rect x="215" y="322.08" transform="matrix(0.6755 0.7373 -0.7373 0.6755 313.1129 -56.3104)" class="st36" width="11.09" height="11.09"/>
<rect x="241.68" y="339.93" transform="matrix(0.6465 0.7629 -0.7629 0.6465 363.0063 -65.6146)" class="st29" width="21.24" height="37.92"/>
<rect x="223.74" y="369.54" transform="matrix(0.6465 0.7629 -0.7629 0.6465 368.2636 -46.5463)" class="st30" width="21.24" height="9.12"/>
<rect x="214.37" y="380.63" transform="matrix(0.6465 0.7629 -0.7629 0.6465 371.0077 -36.594)" class="st31" width="21.24" height="2.82"/>
<rect x="217.85" y="375.93" transform="matrix(0.6465 0.7629 -0.7629 0.6465 369.988 -40.2921)" class="st32" width="21.24" height="6.31"/>
<rect x="208.26" y="380.61" transform="matrix(0.6465 0.7629 -0.7629 0.6465 372.7983 -30.0997)" class="st33" width="21.24" height="13.21"/>
<g>
	
		<rect x="166.54" y="420.13" transform="matrix(0.7673 0.6412 -0.6412 0.7673 323.52 -13.3023)" class="st29" width="27.11" height="38.09"/>
	
		<rect x="150.7" y="452.47" transform="matrix(0.7673 0.6412 -0.6412 0.7673 331.9738 1.2598)" class="st30" width="27.11" height="11.27"/>
	
		<rect x="140.96" y="468" transform="matrix(0.7673 0.6412 -0.6412 0.7673 337.1693 10.2091)" class="st31" width="27.11" height="3.48"/>
	
		<rect x="144.58" y="461.52" transform="matrix(0.7673 0.6412 -0.6412 0.7673 335.2387 6.8837)" class="st32" width="27.11" height="7.79"/>
	
		<rect x="136.23" y="469.76" transform="matrix(0.7673 0.6412 -0.6412 0.7673 339.696 14.5615)" class="st33" width="27.11" height="11.27"/>
	
		<rect x="173.44" y="431.87" transform="matrix(0.7673 0.6412 -0.6412 0.7673 323.5201 -13.3023)" class="st36" width="13.3" height="14.61"/>
</g>
<g>
	<polygon class="st29" points="312.6,314.16 324.28,331.23 302.55,346.25 290.87,329.18 	"/>
	<polygon class="st30" points="319.03,309.72 330.71,326.79 324.28,331.23 312.6,314.16 	"/>
	<polygon class="st31" points="325.46,305.27 337.15,322.34 335.16,323.71 323.48,306.65 	"/>
	<polygon class="st32" points="319.03,309.72 330.71,326.79 335.16,323.71 323.48,306.65 	"/>
	<polygon class="st33" points="331.89,300.83 343.58,317.9 337.15,322.34 325.46,305.27 	"/>
	<polygon class="st36" points="308.88,323.14 314.61,331.51 306.27,337.27 300.54,328.9 	"/>
</g>
<g>
	
		<rect x="334.15" y="333.17" transform="matrix(-0.5667 -0.8239 0.8239 -0.5667 261.8314 807.5228)" class="st31" width="18.2" height="3.48"/>
	<g>
		
			<rect x="311.92" y="336.99" transform="matrix(-0.5667 -0.8239 0.8239 -0.5667 214.417 813.1622)" class="st29" width="18.2" height="26.42"/>
		
			<rect x="326.02" y="336.59" transform="matrix(-0.5667 -0.8239 0.8239 -0.5667 244.5039 809.5837)" class="st30" width="18.2" height="7.82"/>
		
			<rect x="331.47" y="334.05" transform="matrix(-0.5667 -0.8239 0.8239 -0.5667 256.1233 808.2017)" class="st32" width="18.2" height="5.4"/>
		
			<rect x="338.8" y="327.8" transform="matrix(-0.5667 -0.8239 0.8239 -0.5667 271.7632 806.3415)" class="st33" width="18.2" height="7.82"/>
	</g>
</g>
<rect x="431.69" y="113.12" class="st31" width="38.17" height="3.17"/>
<rect x="431.69" y="106.02" class="st32" width="38.17" height="7.09"/>
<rect x="431.69" y="116.29" class="st33" width="38.17" height="10.26"/>
<text transform="matrix(1 0 0 1 133.8242 499.2156)" class="st37 st38">Splenic Artery</text>
<text transform="matrix(1 0 0 1 187.6625 399.5103)"><tspan x="0" y="0" class="st37 st38">Coeliac</tspan><tspan x="0" y="8" class="st37 st38">Trunk</tspan></text>
<text transform="matrix(1 0 0 1 146.6145 358.7651)"><tspan x="0" y="0" class="st37 st38">Hepatic</tspan><tspan x="0" y="8" class="st37 st38">Artery</tspan></text>
<text transform="matrix(1 0 0 1 685.2716 12.6705)"><tspan x="0" y="0" class="st37 st38">Proximal</tspan><tspan x="0" y="8" class="st37 st38">Duodenum</tspan></text>
<text transform="matrix(1 0 0 1 747.7596 18.2668)"><tspan x="0" y="0" class="st37 st38">Gastric</tspan><tspan x="0" y="8" class="st37 st38">Antrum</tspan></text>
<text transform="matrix(1 0 0 1 762.4068 81.9294)" class="st37 st38">Myenteric Plexus</text>
<text transform="matrix(1 0 0 1 613.198 63.3051)" class="st37 st38">Myenteric Plexus</text>
<text transform="matrix(1 0 0 1 473.6321 106.022)" class="st37 st38">Hepato-vascular coalescence</text>
<text transform="matrix(1 0 0 1 345.2461 257.6245)"><tspan x="0" y="0" class="st37 st38">Pancreatico-vascular</tspan><tspan x="0" y="8" class="st37 st38">coalescence</tspan></text>
<text transform="matrix(1 0 0 1 343.8663 314.4946)" class="st37 st38">IPDA</text>
<text transform="matrix(1 0 0 1 296.9004 216.1269)" class="st37 st38">Islets</text>
<text transform="matrix(1 0 0 1 234.8964 205.8569)"><tspan x="0" y="0" class="st37 st38">Pancreatic</tspan><tspan x="0" y="8" class="st37 st38">Acini</tspan></text>
<rect x="230.59" y="200.1" transform="matrix(-0.412 0.9112 -0.9112 -0.412 582.9356 34.2741)" class="st0" width="99.63" height="10.26"/>
<g>
	<path class="st11" d="M234.26,106.85c81.76,55.91,57.32,87.59,25.49,143.71"/>
</g>
<rect x="283.77" y="251.71" transform="matrix(-0.412 0.9112 -0.9112 -0.412 644.726 97.6157)" class="st39" width="14.2" height="10.26"/>
<rect x="238.75" y="205.1" transform="matrix(-0.412 0.9112 -0.9112 -0.412 597.8154 32.0489)" class="st34" width="99.63" height="7.64"/>
<rect x="243.43" y="209.72" transform="matrix(-0.412 0.9112 -0.9112 -0.412 606.3439 30.773)" class="st32" width="99.63" height="2.62"/>
<rect x="265.01" y="198.52" transform="matrix(0.412 -0.9112 0.9112 0.412 -16.154 416.6564)" class="st40" width="99.47" height="44.65"/>
<rect x="292.98" y="242.57" transform="matrix(0.412 -0.9112 0.9112 0.412 -52.6022 425.0092)" class="st36" width="20.04" height="21.37"/>
<rect x="269.98" y="225.6" transform="matrix(0.412 -0.9112 0.9112 0.412 -42.7985 389.0951)" class="st29" width="20.17" height="4.22"/>
<rect x="316.57" y="180.39" transform="matrix(0.412 -0.9112 0.9112 0.412 14.2137 412.3476)" class="st36" width="20.04" height="29.54"/>
<rect x="289.99" y="230.43" transform="matrix(0.412 -0.9112 0.9112 0.412 -11.5767 446.0811)" class="st31" width="99.69" height="3.17"/>
<rect x="286.93" y="228.85" transform="matrix(0.412 -0.9112 0.9112 0.412 -12.1153 442.4793)" class="st32" width="99.69" height="3.55"/>
<rect x="295.4" y="230.29" transform="matrix(0.412 -0.9112 0.9112 0.412 -10.6784 452.4857)" class="st33" width="99.69" height="8.45"/>
<text transform="matrix(1 0 0 1 287.2618 237.1451)" class="st37 st38">IPGs</text>
<rect x="519.99" y="317.76" class="st41" width="45.73" height="41"/>
<text transform="matrix(1 0 0 1 524.4835 372.4997)" class="st19 st42">Spleen</text>
<text transform="matrix(1 0 0 1 341.9553 143.9086)"><tspan x="0" y="0" class="st37 st38">Hepatic</tspan><tspan x="0" y="8" class="st37 st38">Portal</tspan><tspan x="0" y="16" class="st37 st38">Vein</tspan></text>
<text transform="matrix(1 0 0 1 356.295 324.2213)"><tspan x="0" y="0" class="st37 st38">Superior</tspan><tspan x="0" y="8" class="st37 st38">Mesenteric</tspan><tspan x="0" y="16" class="st37 st38">Artery</tspan></text>
<text transform="matrix(1 0 0 1 939.7205 623.5336)" class="st23 st24">H</text>
<text transform="matrix(1 0 0 1 255.0664 624.4963)" class="st23 st24">T</text>
<text transform="matrix(1 0 0 1 64.3511 633.6357)" class="st23 st24">G</text>
<text transform="matrix(1 0 0 1 108.7655 670.8749)" class="st23 st24">U</text>
<text transform="matrix(1 0 0 1 986.1251 437.6953)" class="st23 st24">P</text>
<text transform="matrix(1 0 0 1 613.4924 787.6114)" class="st23 st24">A</text>
<text transform="matrix(1 0 0 1 599.5319 817.9296)" class="st23 st24">M</text>
<text transform="matrix(1 0 0 1 1020.1121 534.6171)" class="st23 st24">L</text>
<text transform="matrix(1 0 0 1 575.1096 288.9724)" class="st23 st24">S</text>
<text transform="matrix(1 0 0 1 234.262 92.5495)" class="st23 st24">O</text>
<text transform="matrix(1 0 0 1 25.4707 411.8838)" class="st23 st24">R</text>
<text transform="matrix(1 0 0 1 1002.4565 732.6332)" class="st23 st24">W</text>
<text transform="matrix(1 0 0 1 1122.6329 606.3936)" class="st23 st24">J</text>
<text transform="matrix(1 0 0 1 1138.2944 580.4261)" class="st23 st24">V</text>
<text transform="matrix(1 0 0 1 1150.8381 288.9727)" class="st23 st24">X</text>
<text transform="matrix(1 0 0 1 955.9185 402.2043)" class="st23 st24">Y</text>
<text transform="matrix(1 0 0 1 1170.5278 437.1451)" class="st23 st24">B</text>
<text transform="matrix(1 0 0 1 1169.4921 359.2103)" class="st23 st24">Z</text>
<text transform="matrix(1 0 0 1 977.8555 395.4317)"><tspan x="0" y="0" class="st19 st42">Systemic</tspan><tspan x="0" y="11" class="st19 st42">Post-lymphatic </tspan><tspan x="0" y="22" class="st19 st42">Venous</tspan></text>
<text transform="matrix(1 0 0 1 766.9545 293.0269)"><tspan x="0" y="0" class="st19 st42">Systemic</tspan><tspan x="0" y="11" class="st19 st42">Pre-lymphatic </tspan><tspan x="0" y="22" class="st19 st42">Venous</tspan></text>
<text transform="matrix(1 0 0 1 369.5085 466.1881)" class="st19 st21">CG</text>
<text transform="matrix(1 0 0 1 513.4076 466.1881)" class="st19 st21">SMG</text>
<text transform="matrix(1 0 0 1 463.8101 531.2691)" class="st19 st21">Greater Splanchnic Nerve</text>
<text transform="matrix(1 0 0 1 312.5986 178.7049)" class="st37 st38">Islets</text>
<text transform="matrix(0.412 -0.9112 0.9112 0.412 287.1371 216.9794)" class="st37 st43">Acinar cell</text>
<g>
	<g>
		<path class="st44" d="M309.99,253.22c24.06-37.48,1.11-25.33,21.27-56.52"/>
		<g>
			<g>
				<polygon class="st45" points="310.03,259.12 310.26,252.7 304.5,255.55 				"/>
				<path d="M310.34,259.71l0.28-7.56l-6.78,3.36L310.34,259.71z M309.91,253.24l-0.19,5.29l-4.55-2.94L309.91,253.24z"/>
			</g>
		</g>
		<g>
			<rect x="330.77" y="193.46" transform="matrix(0.5259 -0.8506 0.8506 0.5259 -10.2533 375.0273)" width="1" height="6.5"/>
		</g>
	</g>
</g>
<ellipse transform="matrix(0.5391 -0.8422 0.8422 0.5391 -66.4189 378.0595)" class="st46" cx="312.23" cy="249.72" rx="1.92" ry="1.81"/>
<g>
	<g>
		<path class="st47" d="M747.23,79.55c-87.56,112.94-299.05,30.27-511.71,51.19c-76.86,7.56,9.83,203.5,61.74,120.24"/>
		<g>
			<g>
				<polygon class="st45" points="747.56,73.63 746.86,80.02 752.81,77.59 				"/>
				<path class="st48" d="M747.3,73.02l-0.83,7.52l7.01-2.86L747.3,73.02z M747.25,79.51l0.58-5.26l4.33,3.26L747.25,79.51z"/>
			</g>
		</g>
		<g>
			
				<rect x="296.75" y="247.73" transform="matrix(0.548 -0.8365 0.8365 0.548 -75.5791 362.0969)" class="st48" width="1" height="6.5"/>
		</g>
	</g>
</g>
<g>
	<g>
		<path class="st47" d="M691.97,70.74c-82.04,113.06-259.5,40.5-460.01,60.52"/>
		<g>
			<g>
				<polygon class="st45" points="692.13,64.81 691.62,71.22 697.5,68.61 				"/>
				<path class="st48" d="M691.85,64.2l-0.59,7.54l6.91-3.07L691.85,64.2z M692,70.69l0.42-5.28l4.42,3.13L692,70.69z"/>
			</g>
		</g>
	</g>
</g>
<ellipse transform="matrix(0.5391 -0.8422 0.8422 0.5391 275.2816 665.7083)" class="st48" cx="745.92" cy="81.32" rx="1.92" ry="1.81"/>
<ellipse transform="matrix(0.5391 -0.8422 0.8422 0.5391 257.4343 615.0137)" class="st48" cx="690.67" cy="72.28" rx="1.92" ry="1.81"/>
<circle class="st13" cx="231.36" cy="104.42" r="10.1"/>
<g>
	<g>
		<path class="st47" d="M292.9,257.23c1.46-1.03-5.62-10.82-11.99-11.58c-5.95-0.71-5.91-3.57-5.7-5.97"/>
		<g>
			
				<rect x="274.73" y="236.44" transform="matrix(0.0535 -0.9986 0.9986 0.0535 21.1495 501.6913)" class="st48" width="1" height="6.5"/>
		</g>
	</g>
</g>
<g>
	<g>
		<path class="st17" d="M774.96,598.52c45.55-159.89,77.12-417.03-427.06-313.63c-68.96,14.14-45.03-18.67-41.91-22.66"/>
		<g>
			<g>
				<polygon class="st45" points="776.75,604.12 775.03,597.92 770.4,602.39 				"/>
				<path class="st18" d="M777.22,604.59l-2.03-7.29l-5.44,5.25L777.22,604.59z M774.86,598.55l1.42,5.1l-5.23-1.42L774.86,598.55z"
					/>
			</g>
		</g>
		<g>
			
				<rect x="305.5" y="258.99" transform="matrix(0.605 -0.7962 0.7962 0.605 -87.9352 347.2235)" class="st18" width="1" height="6.5"/>
		</g>
	</g>
</g>
<ellipse transform="matrix(0.5391 -0.8422 0.8422 0.5391 -145.9641 928.3042)" class="st18" cx="775.24" cy="597.52" rx="1.92" ry="1.81"/>
<ellipse transform="matrix(0.5391 -0.8422 0.8422 0.5391 -196.6233 559.1933)" class="st49" cx="412.64" cy="459.26" rx="1.92" ry="1.81"/>
<ellipse transform="matrix(0.5391 -0.8422 0.8422 0.5391 -196.6233 559.1933)" class="st49" cx="412.64" cy="459.26" rx="1.92" ry="1.81"/>
<g>
	<g>
		<path class="st50" d="M297.18,300.83c0,0-4.08-8.05,0.35-29.27c3.65-17.52,5.77-44.57,23.87-74.84"/>
		<g>
			
				<rect x="320.91" y="193.47" transform="matrix(0.4978 -0.8673 0.8673 0.4978 -9.202 377.5464)" class="st49" width="1" height="6.5"/>
		</g>
	</g>
</g>
<g>
	<g>
		<path class="st50" d="M411.28,460.97c16.83-14.35,38.79-14.61,26.71-24.27"/>
		<g>
			<g>
				<polygon class="st45" points="409.92,466.77 411.75,460.61 405.46,461.93 				"/>
				<path class="st49" d="M410.07,467.42l2.16-7.25l-7.4,1.56L410.07,467.42z M411.28,461.05l-1.51,5.08l-3.67-3.98L411.28,461.05z"
					/>
			</g>
		</g>
	</g>
</g>
<g>
	<g>
		<path class="st50" d="M299.46,262.66c1.68-10.64,3.49-11.91,6.65-14.71"/>
		<g>
			
				<rect x="305.62" y="244.7" transform="matrix(0.7382 -0.6746 0.6746 0.7382 -87.1232 271.4065)" class="st49" width="1" height="6.5"/>
		</g>
	</g>
</g>
<g>
	<g>
		<path class="st50" d="M487.89,462.29c-48.28-23.51-200.63-100.08-191.73-181.82"/>
		<g>
			<g>
				<polygon class="st45" points="493.77,461.51 487.36,462.02 490.86,467.41 				"/>
				<path class="st49" d="M494.32,461.14l-7.54,0.6l4.12,6.35L494.32,461.14z M487.94,462.3l5.28-0.42l-2.4,4.86L487.94,462.3z"/>
			</g>
		</g>
	</g>
</g>
<ellipse transform="matrix(0.5391 -0.8422 0.8422 0.5391 -164.8082 621.9259)" class="st49" cx="485.87" cy="461.55" rx="1.92" ry="1.81"/>
<ellipse transform="matrix(0.5391 -0.8422 0.8422 0.5391 -325.045 598.6311)" cx="384.46" cy="596.32" rx="1.92" ry="1.81"/>
<ellipse transform="matrix(0.5391 -0.8422 0.8422 0.5391 -283.8719 673.8731)" cx="473.8" cy="596.32" rx="1.92" ry="1.81"/>
<ellipse transform="matrix(0.5391 -0.8422 0.8422 0.5391 -296.0058 651.699)" cx="447.47" cy="596.32" rx="1.92" ry="1.81"/>
<ellipse transform="matrix(0.5391 -0.8422 0.8422 0.5391 -310.409 625.3777)" cx="416.22" cy="596.32" rx="1.92" ry="1.81"/>
<ellipse transform="matrix(0.5391 -0.8422 0.8422 0.5391 -270.7199 697.9078)" cx="502.34" cy="596.32" rx="1.92" ry="1.81"/>
<ellipse transform="matrix(0.5391 -0.8422 0.8422 0.5391 -164.8082 621.9259)" class="st49" cx="485.87" cy="461.55" rx="1.92" ry="1.81"/>
<ellipse transform="matrix(0.5391 -0.8422 0.8422 0.5391 -164.8082 621.9259)" class="st49" cx="485.87" cy="461.55" rx="1.92" ry="1.81"/>
<path class="st50" d="M437.99,436.71c-33.14-12.87-238.28-95.19-238.23-128.96c0.04-23.41,95.2-10.9,97.13-32.61"/>
<path class="st51" d="M245.37,425.25c-24.27-28.3-101.16-145.82-104.56-175.53c-7.28-63.64,458-288.64,592.7,64.45"/>
<path class="st51" d="M358.64,349.11c-18.81-28.62-35.28-52.96-35.17-60.8c0.24-17.08,46.4-106.36,54.32-121.26
	c7.92-14.9,36.91-45.18,53.89-46.17"/>
<path class="st51" d="M211.35,378.43c-10.73-12.59-161.94,146.98,17.12,93.76S381.01,338.03,454.7,334.68s81.84-0.46,88.15-13.18
	c6.14-12.39-203.66-84.99-155.64-167.86"/>
<path class="st50" d="M433.83,435.08C354.99,411.26,8.5,509.82,144.16,316.72C169.62,280.47,270,299.3,296.9,275.14"/>
<g>
	<g>
		<path class="st44" d="M502.27,598.32c-2.12-86.7-56.95-53.79-57.35-72.07c-0.4-18.64,35.1-18.66,35.1-31
			c0-25.5-42.31-13.83-42.55-23.05c-0.23-9.09,32.41-7.64,44.03-7.6"/>
		<g>
			<g>
				<polygon class="st45" points="505.6,603.18 502.21,597.72 499.02,603.31 				"/>
				<path d="M506.19,603.5l-4-6.42l-3.74,6.57L506.19,603.5z M502.22,598.37l2.8,4.5l-5.42,0.11L502.22,598.37z"/>
			</g>
		</g>
		<g>
			<rect x="478.26" y="464.09" transform="matrix(9.399286e-03 -1 1 9.399286e-03 12.4229 941.7136)" width="6.5" height="1"/>
		</g>
	</g>
</g>
<g>
	<g>
		<path class="st44" d="M473.76,598.32c-1.14-79.96-28.39-53.82-28.58-72.07c-0.2-18.64,17.5-18.66,17.5-31
			c0-25.5-25.08-13.83-25.2-23.05s26.18-7.6,26.18-7.6"/>
		<g>
			<g>
				<polygon class="st45" points="477.07,603.18 473.66,597.72 470.49,603.32 				"/>
				<path d="M477.65,603.49l-4.01-6.42l-3.73,6.58L477.65,603.49z M473.67,598.37l2.81,4.49l-5.42,0.12L473.67,598.37z"/>
			</g>
		</g>
	</g>
</g>
<g>
	<g>
		<path class="st44" d="M384.54,598.32c2.32-82.52,59.65-53.81,60.06-72.07c0.42-18.64-36.77-18.66-36.77-31
			c0-25.5,29.41-13.83,29.66-23.05c0.24-9.09-9.76-7.64-21.23-7.6"/>
		<g>
			<g>
				<polygon class="st45" points="387.74,603.32 384.57,597.72 381.16,603.18 				"/>
				<path d="M388.32,603.66l-3.73-6.58l-4.01,6.42L388.32,603.66z M384.56,598.37l2.61,4.61l-5.42-0.12L384.56,598.37z"/>
			</g>
		</g>
		<g>
			<rect x="415.75" y="461.33" transform="matrix(0.9999 -0.0132 0.0132 0.9999 -6.0746 5.515)" width="1" height="6.5"/>
		</g>
	</g>
</g>
<g>
	<g>
		<path class="st44" d="M416.26,598.32c1.13-79.96,28.11-53.82,28.34-72.07c0.23-18.64-20.11-20.74-20.13-33.09
			c-0.04-25.49,12.87-11.74,13.02-20.96c0.15-9.22-12.16-7.63-18.68-7.63"/>
		<g>
			<g>
				<polygon class="st45" points="419.5,603.32 416.33,597.72 412.92,603.18 				"/>
				<path d="M420.07,603.66l-3.73-6.58l-4.01,6.42L420.07,603.66z M416.31,598.37l2.61,4.61l-5.42-0.11L416.31,598.37z"/>
			</g>
		</g>
	</g>
</g>
<g>
	<g>
		<path class="st44" d="M447.45,598.32c-3.59-80.44-2.94-53.82-2.86-72.08c0.09-18.64-1.69-21.09-1.7-33.43
			c-0.02-25.49-5.47-11.4-5.41-20.62c0.06-9.22-9.95-7.11-12.27-7.71"/>
		<g>
			<g>
				<polygon class="st45" points="450.94,603.09 447.39,597.73 444.37,603.4 				"/>
				<path d="M451.53,603.4l-4.17-6.31l-3.56,6.67L451.53,603.4z M447.42,598.37l2.92,4.42l-5.41,0.25L447.42,598.37z"/>
			</g>
		</g>
	</g>
</g>
<path class="st44" d="M444.93,526.24c0.42-18.64-52.25-18.66-52.25-31c0-25.5,44.56-13.83,44.81-23.05s-9.12-7.6-20.8-7.6"/>
</svg>
